{"glyphs":{"0":{"ha":842,"x_min":62,"x_max":781,"o":"m 420 -16 q 228 45 308 -16 q 104 220 147 107 q 62 489 62 334 l 62 490 q 104 759 62 646 q 228 933 147 872 q 420 995 308 995 q 614 933 533 995 q 738 759 694 872 q 781 490 781 646 l 781 489 q 738 220 781 334 q 614 45 694 107 q 420 -16 533 -16 m 420 90 q 548 139 495 90 q 630 277 602 187 q 658 489 658 366 l 658 490 q 630 702 658 613 q 548 840 602 791 q 420 888 495 888 q 293 840 346 888 q 212 702 240 791 q 184 490 184 613 l 184 489 q 212 277 184 366 q 293 139 240 187 q 420 90 346 90 "},"1":{"ha":616,"x_min":67,"x_max":447,"o":"m 329 0 l 329 849 l 326 849 l 67 669 l 67 791 l 328 979 l 447 979 l 447 0 l 329 0 "},"2":{"ha":786,"x_min":73,"x_max":725,"o":"m 79 0 l 79 84 l 424 444 q 525 558 490 513 q 573 639 560 603 q 587 715 587 675 l 587 717 q 563 806 587 767 q 499 866 540 844 q 404 888 458 888 q 295 863 343 888 q 219 795 247 838 q 191 699 191 752 l 191 696 l 73 696 l 73 700 q 117 851 73 785 q 236 957 161 918 q 402 995 311 995 q 560 959 491 995 q 669 861 629 923 q 709 723 709 800 l 709 722 q 689 618 709 668 q 619 505 669 568 q 479 350 570 442 l 211 75 l 247 150 l 247 75 l 211 109 l 725 109 l 725 0 l 79 0 "},"3":{"ha":822,"x_min":62,"x_max":749,"o":"m 409 -16 q 233 18 308 -16 q 114 113 157 53 q 63 251 70 174 l 62 259 l 180 259 l 180 252 q 215 168 186 204 q 294 110 245 131 q 409 90 344 90 q 522 112 473 90 q 597 174 570 134 q 625 265 625 214 l 625 267 q 565 405 625 357 q 401 454 505 454 l 279 454 l 279 557 l 396 557 q 499 579 454 557 q 569 639 544 601 q 594 726 594 677 l 594 728 q 572 815 594 779 q 509 870 551 851 q 408 889 467 889 q 305 870 350 889 q 233 814 260 850 q 200 729 205 779 l 199 722 l 82 722 l 83 729 q 133 869 91 809 q 246 962 176 928 q 408 995 316 995 q 571 963 501 995 q 679 874 640 930 q 717 743 717 817 l 717 741 q 690 634 717 681 q 617 556 664 587 q 509 512 570 525 l 509 509 q 683 437 616 500 q 749 269 749 374 l 749 268 q 705 122 749 186 q 584 21 661 58 q 409 -16 507 -16 "},"4":{"ha":840,"x_min":53,"x_max":801,"o":"m 545 0 l 545 203 l 53 203 l 53 314 q 139 447 96 380 q 225 580 182 513 q 311 713 268 646 q 396 846 353 779 q 482 979 439 912 l 663 979 l 663 311 l 801 311 l 801 203 l 663 203 l 663 0 l 545 0 m 174 311 l 545 311 l 545 874 l 541 874 q 467 762 504 818 q 394 650 431 706 q 320 538 357 594 q 247 426 283 481 q 174 313 210 370 l 174 311 "},"5":{"ha":812,"x_min":80,"x_max":764,"o":"m 416 -16 q 249 20 322 -16 q 132 118 176 56 q 81 260 88 180 l 80 267 l 200 267 l 201 262 q 236 175 207 214 q 312 113 265 136 q 417 91 359 91 q 534 119 484 91 q 614 198 585 148 q 642 315 642 249 l 642 316 q 613 430 642 380 q 534 509 585 480 q 419 537 484 537 q 327 523 370 537 q 252 478 285 508 q 228 452 239 466 q 206 420 216 437 l 98 420 l 149 979 l 709 979 l 709 870 l 249 870 l 216 541 l 218 541 q 275 597 241 574 q 351 631 309 619 q 441 642 393 642 q 608 600 535 642 q 723 485 681 558 q 764 318 764 412 l 764 317 q 720 144 764 219 q 596 26 675 68 q 416 -16 517 -16 "},"6":{"ha":857,"x_min":62,"x_max":780,"o":"m 433 -16 q 300 9 366 -16 q 180 92 234 35 q 94 242 126 149 q 62 471 62 335 l 62 473 q 107 754 62 637 q 237 933 152 871 q 441 995 322 995 q 592 965 525 995 q 703 882 659 936 q 764 758 748 829 l 766 749 l 642 749 l 640 756 q 597 826 625 797 q 530 871 570 855 q 440 887 490 887 q 293 834 349 887 q 210 694 237 781 q 180 505 183 608 q 180 491 180 498 q 180 478 180 485 l 209 317 q 238 204 209 255 q 319 122 268 153 q 432 92 370 92 q 545 122 494 92 q 626 201 596 151 q 656 313 656 252 l 656 315 q 627 428 656 378 q 549 506 599 477 q 434 534 498 534 q 319 506 370 534 q 238 429 268 478 q 209 318 209 380 l 209 317 l 168 317 l 168 484 l 182 484 q 241 563 202 527 q 334 620 280 598 q 455 641 389 641 q 622 599 549 641 q 738 484 695 557 q 780 317 780 410 l 780 316 q 735 145 780 220 q 612 27 690 70 q 433 -16 534 -16 "},"7":{"ha":760,"x_min":52,"x_max":699,"o":"m 136 0 l 578 867 l 578 870 l 52 870 l 52 979 l 699 979 l 699 865 l 264 0 l 136 0 "},"8":{"ha":833,"x_min":61,"x_max":772,"o":"m 416 -16 q 233 20 313 -16 q 107 119 153 56 q 61 264 61 182 l 61 266 q 87 378 61 326 q 161 466 114 429 q 271 516 209 502 l 271 519 q 144 602 191 544 q 96 736 96 659 l 96 738 q 138 870 96 812 q 252 961 179 928 q 416 995 324 995 q 582 961 509 995 q 695 870 654 928 q 736 738 736 812 l 736 736 q 689 602 736 659 q 562 519 642 544 l 562 516 q 672 466 625 502 q 745 378 719 429 q 772 266 772 326 l 772 264 q 726 119 772 182 q 601 20 681 56 q 416 -16 520 -16 m 416 90 q 536 114 484 90 q 618 178 588 137 q 648 272 648 219 l 648 273 q 618 368 648 327 q 536 433 589 410 q 416 457 484 457 q 296 433 349 457 q 215 368 244 410 q 185 273 185 327 l 185 272 q 215 178 185 219 q 297 114 245 137 q 416 90 349 90 m 416 564 q 520 585 475 564 q 590 642 565 606 q 615 726 615 679 l 615 728 q 590 812 615 775 q 520 869 565 848 q 416 890 475 890 q 313 869 357 890 q 243 812 268 848 q 218 728 218 775 l 218 726 q 243 642 218 679 q 313 585 268 606 q 416 564 357 564 "},"9":{"ha":857,"x_min":77,"x_max":795,"o":"m 424 995 q 557 969 492 995 q 677 887 623 944 q 763 737 731 830 q 795 507 795 644 l 795 506 q 750 224 795 341 q 621 45 705 107 q 416 -16 536 -16 q 266 14 333 -16 q 154 97 199 43 q 93 221 109 150 l 91 230 l 215 230 l 218 222 q 260 153 233 182 q 327 107 288 123 q 417 92 367 92 q 565 144 509 92 q 647 284 621 197 q 677 474 674 372 q 677 487 677 481 q 677 500 677 494 l 648 661 q 619 775 648 724 q 539 856 589 826 q 425 886 488 886 q 312 857 363 886 q 231 777 261 827 q 201 665 201 727 l 201 664 q 230 551 201 600 q 309 473 258 501 q 423 445 359 445 q 538 473 488 445 q 619 549 589 500 q 648 661 648 598 l 648 661 l 689 661 l 689 495 l 675 495 q 616 416 655 452 q 523 359 578 380 q 402 338 469 338 q 236 380 309 338 q 120 495 162 422 q 77 661 77 568 l 77 663 q 122 834 77 759 q 245 952 168 909 q 424 995 323 995 "}," ":{"ha":0,"x_min":0,"x_max":0,"o":""}," ":{"ha":0,"x_min":0,"x_max":0,"o":""}," ":{"ha":285,"x_min":0,"x_max":0,"o":""}," ":{"ha":285,"x_min":0,"x_max":0,"o":""}," ":{"ha":142,"x_min":0,"x_max":0,"o":""}," ":{"ha":694,"x_min":0,"x_max":0,"o":""}," ":{"ha":1389,"x_min":0,"x_max":0,"o":""}," ":{"ha":694,"x_min":0,"x_max":0,"o":""}," ":{"ha":1389,"x_min":0,"x_max":0,"o":""}," ":{"ha":463,"x_min":0,"x_max":0,"o":""}," ":{"ha":347,"x_min":0,"x_max":0,"o":""}," ":{"ha":231,"x_min":0,"x_max":0,"o":""}," ":{"ha":840,"x_min":0,"x_max":0,"o":""}," ":{"ha":298,"x_min":0,"x_max":0,"o":""}," ":{"ha":142,"x_min":0,"x_max":0,"o":""}," ":{"ha":71,"x_min":0,"x_max":0,"o":""},"​":{"ha":0,"x_min":0,"x_max":0,"o":""},"‌":{"ha":0,"x_min":0,"x_max":0,"o":""},"‍":{"ha":0,"x_min":0,"x_max":0,"o":""},"⁠":{"ha":0,"x_min":0,"x_max":0,"o":""}," ":{"ha":309,"x_min":0,"x_max":0,"o":""},"A":{"ha":882,"x_min":17,"x_max":865,"o":"m 17 0 l 381 979 l 471 979 l 471 832 l 440 832 l 145 0 l 17 0 m 184 280 l 224 384 l 659 384 l 699 280 l 184 280 m 737 0 l 443 832 l 443 979 l 502 979 l 865 0 l 737 0 "},"À":{"ha":882,"x_min":17,"x_max":865,"o":"m 17 0 l 381 979 l 471 979 l 471 832 l 440 832 l 145 0 l 17 0 m 184 280 l 224 384 l 659 384 l 699 280 l 184 280 m 737 0 l 443 832 l 443 979 l 502 979 l 865 0 l 737 0 m 412 1057 l 269 1253 l 391 1253 l 501 1057 l 412 1057 "},"Á":{"ha":882,"x_min":17,"x_max":865,"o":"m 17 0 l 381 979 l 471 979 l 471 832 l 440 832 l 145 0 l 17 0 m 184 280 l 224 384 l 659 384 l 699 280 l 184 280 m 737 0 l 443 832 l 443 979 l 502 979 l 865 0 l 737 0 m 475 1057 l 386 1057 l 496 1253 l 618 1253 l 475 1057 "},"Ä":{"ha":882,"x_min":17,"x_max":865,"o":"m 17 0 l 381 979 l 471 979 l 471 832 l 440 832 l 145 0 l 17 0 m 184 280 l 224 384 l 659 384 l 699 280 l 184 280 m 737 0 l 443 832 l 443 979 l 502 979 l 865 0 l 737 0 m 320 1090 q 273 1109 292 1090 q 253 1157 253 1129 q 273 1204 253 1185 q 320 1224 292 1224 q 367 1204 348 1224 q 387 1157 387 1185 q 367 1109 387 1129 q 320 1090 348 1090 m 563 1090 q 516 1109 536 1090 q 496 1157 496 1129 q 516 1204 496 1185 q 563 1224 536 1224 q 611 1204 591 1224 q 630 1157 630 1185 q 611 1109 630 1129 q 563 1090 591 1090 "},"Ǟ":{"ha":882,"x_min":17,"x_max":865,"o":"m 17 0 l 381 979 l 471 979 l 471 832 l 440 832 l 145 0 l 17 0 m 184 280 l 224 384 l 659 384 l 699 280 l 184 280 m 737 0 l 443 832 l 443 979 l 502 979 l 865 0 l 737 0 "},"Å":{"ha":882,"x_min":17,"x_max":865,"o":"m 17 0 l 381 979 l 471 979 l 471 832 l 440 832 l 145 0 l 17 0 m 184 280 l 224 384 l 659 384 l 699 280 l 184 280 m 737 0 l 443 832 l 443 979 l 502 979 l 865 0 l 737 0 m 444 1034 q 356 1069 393 1034 q 320 1155 320 1105 l 320 1156 q 337 1217 320 1190 q 381 1260 353 1244 q 444 1276 410 1276 q 506 1260 478 1276 q 551 1217 534 1244 q 568 1156 568 1190 l 568 1155 q 531 1069 568 1105 q 444 1034 495 1034 m 444 1100 q 483 1116 467 1100 q 499 1155 499 1132 l 499 1156 q 483 1195 499 1179 q 444 1211 467 1211 q 405 1195 421 1211 q 389 1156 389 1179 l 389 1155 q 405 1116 389 1132 q 444 1100 421 1100 "},"Å":{"ha":882,"x_min":17,"x_max":865,"o":"m 17 0 l 145 0 l 440 832 l 471 832 l 471 979 l 381 979 l 17 0 m 184 280 l 699 280 l 659 384 l 224 384 l 184 280 m 737 0 l 865 0 l 502 979 l 443 979 l 443 832 l 737 0 m 444 1034 q 531 1069 495 1034 q 568 1155 568 1105 l 568 1156 q 551 1217 568 1190 q 506 1260 534 1244 q 444 1276 478 1276 q 381 1260 410 1276 q 337 1217 353 1244 q 320 1156 320 1190 l 320 1155 q 356 1069 320 1105 q 444 1034 393 1034 m 444 1100 q 405 1116 421 1100 q 389 1155 389 1132 l 389 1156 q 405 1195 389 1179 q 444 1211 421 1211 q 483 1195 467 1211 q 499 1156 499 1179 l 499 1155 q 483 1116 499 1132 q 444 1100 467 1100 "},"Ǻ":{"ha":882,"x_min":17,"x_max":865,"o":"m 17 0 l 381 979 l 471 979 l 471 832 l 440 832 l 145 0 l 17 0 m 184 280 l 224 384 l 659 384 l 699 280 l 184 280 m 737 0 l 443 832 l 443 979 l 502 979 l 865 0 l 737 0 "},"Ã":{"ha":882,"x_min":17,"x_max":865,"o":"m 17 0 l 381 979 l 471 979 l 471 832 l 440 832 l 145 0 l 17 0 m 184 280 l 224 384 l 659 384 l 699 280 l 184 280 m 737 0 l 443 832 l 443 979 l 502 979 l 865 0 l 737 0 m 533 1058 q 483 1068 506 1058 q 443 1093 460 1078 l 419 1112 q 389 1136 404 1126 q 361 1145 375 1145 q 334 1126 342 1145 q 326 1065 326 1106 l 326 1059 l 245 1059 l 245 1067 q 273 1192 245 1150 q 349 1234 300 1234 q 398 1224 376 1234 q 437 1199 419 1215 l 460 1179 q 492 1156 477 1166 q 521 1146 507 1146 q 548 1166 540 1146 q 556 1226 556 1185 l 556 1232 l 637 1232 l 637 1225 q 609 1100 637 1141 q 533 1058 582 1058 "},"Ằ":{"ha":882,"x_min":17,"x_max":865,"o":"m 17 0 l 381 979 l 471 979 l 471 832 l 440 832 l 145 0 l 17 0 m 184 280 l 224 384 l 659 384 l 699 280 l 184 280 m 737 0 l 443 832 l 443 979 l 502 979 l 865 0 l 737 0 "},"Ǡ":{"ha":882,"x_min":17,"x_max":865,"o":"m 17 0 l 381 979 l 471 979 l 471 832 l 440 832 l 145 0 l 17 0 m 184 280 l 224 384 l 659 384 l 699 280 l 184 280 m 737 0 l 443 832 l 443 979 l 502 979 l 865 0 l 737 0 "},"Ḁ":{"ha":882,"x_min":17,"x_max":865,"o":"m 17 0 l 381 979 l 471 979 l 471 832 l 440 832 l 145 0 l 17 0 m 184 280 l 224 384 l 659 384 l 699 280 l 184 280 m 737 0 l 443 832 l 443 979 l 502 979 l 865 0 l 737 0 m 442 -68 q 538 -107 498 -68 q 577 -200 577 -146 l 577 -201 q 538 -294 577 -255 q 442 -332 498 -332 l 441 -332 q 346 -294 385 -332 q 306 -201 306 -255 l 306 -200 q 346 -107 306 -146 q 441 -68 385 -68 l 442 -68 m 442 -137 l 441 -137 q 396 -156 414 -137 q 378 -200 378 -174 l 378 -201 q 396 -245 378 -227 q 441 -263 414 -263 l 442 -263 q 487 -245 469 -263 q 505 -201 505 -227 l 505 -200 q 487 -156 505 -174 q 442 -137 469 -137 "},"Â":{"ha":882,"x_min":17,"x_max":865,"o":"m 17 0 l 381 979 l 471 979 l 471 832 l 440 832 l 145 0 l 17 0 m 184 280 l 224 384 l 659 384 l 699 280 l 184 280 m 737 0 l 443 832 l 443 979 l 502 979 l 865 0 l 737 0 m 243 1057 l 389 1253 l 494 1253 l 640 1057 l 540 1057 l 433 1205 l 449 1205 l 343 1057 l 243 1057 "},"Ậ":{"ha":882,"x_min":17,"x_max":865,"o":"m 17 0 l 381 979 l 471 979 l 471 832 l 440 832 l 145 0 l 17 0 m 184 280 l 224 384 l 659 384 l 699 280 l 184 280 m 737 0 l 443 832 l 443 979 l 502 979 l 865 0 l 737 0 m 243 1057 l 389 1253 l 494 1253 l 640 1057 l 540 1057 l 433 1205 l 449 1205 l 343 1057 l 243 1057 m 441 -267 q 389 -245 411 -267 q 368 -193 368 -224 q 389 -141 368 -162 q 441 -119 411 -119 q 494 -141 473 -119 q 515 -193 515 -162 q 494 -245 515 -224 q 441 -267 473 -267 "},"Ấ":{"ha":882,"x_min":17,"x_max":865,"o":"m 17 0 l 381 979 l 471 979 l 471 832 l 440 832 l 145 0 l 17 0 m 184 280 l 224 384 l 659 384 l 699 280 l 184 280 m 737 0 l 443 832 l 443 979 l 502 979 l 865 0 l 737 0 "},"Ẫ":{"ha":882,"x_min":17,"x_max":865,"o":"m 17 0 l 381 979 l 471 979 l 471 832 l 440 832 l 145 0 l 17 0 m 184 280 l 224 384 l 659 384 l 699 280 l 184 280 m 737 0 l 443 832 l 443 979 l 502 979 l 865 0 l 737 0 "},"Ầ":{"ha":882,"x_min":17,"x_max":865,"o":"m 17 0 l 381 979 l 471 979 l 471 832 l 440 832 l 145 0 l 17 0 m 184 280 l 224 384 l 659 384 l 699 280 l 184 280 m 737 0 l 443 832 l 443 979 l 502 979 l 865 0 l 737 0 "},"Ẩ":{"ha":882,"x_min":17,"x_max":865,"o":"m 17 0 l 381 979 l 471 979 l 471 832 l 440 832 l 145 0 l 17 0 m 184 280 l 224 384 l 659 384 l 699 280 l 184 280 m 737 0 l 443 832 l 443 979 l 502 979 l 865 0 l 737 0 "},"Ă":{"ha":882,"x_min":17,"x_max":865,"o":"m 17 0 l 381 979 l 471 979 l 471 832 l 440 832 l 145 0 l 17 0 m 184 280 l 224 384 l 659 384 l 699 280 l 184 280 m 737 0 l 443 832 l 443 979 l 502 979 l 865 0 l 737 0 m 442 1055 q 343 1079 385 1055 q 278 1145 301 1103 q 256 1242 256 1187 l 256 1248 l 340 1248 l 340 1244 q 368 1168 340 1201 q 442 1136 395 1136 q 516 1168 490 1136 q 543 1244 543 1201 l 543 1248 l 628 1248 l 628 1242 q 605 1145 628 1187 q 541 1079 583 1103 q 442 1055 499 1055 "},"Ắ":{"ha":882,"x_min":17,"x_max":865,"o":"m 17 0 l 381 979 l 471 979 l 471 832 l 440 832 l 145 0 l 17 0 m 184 280 l 224 384 l 659 384 l 699 280 l 184 280 m 737 0 l 443 832 l 443 979 l 502 979 l 865 0 l 737 0 "},"Ẵ":{"ha":882,"x_min":17,"x_max":865,"o":"m 17 0 l 381 979 l 471 979 l 471 832 l 440 832 l 145 0 l 17 0 m 184 280 l 224 384 l 659 384 l 699 280 l 184 280 m 737 0 l 443 832 l 443 979 l 502 979 l 865 0 l 737 0 "},"Ẳ":{"ha":882,"x_min":17,"x_max":865,"o":"m 17 0 l 381 979 l 471 979 l 471 832 l 440 832 l 145 0 l 17 0 m 184 280 l 224 384 l 659 384 l 699 280 l 184 280 m 737 0 l 443 832 l 443 979 l 502 979 l 865 0 l 737 0 "},"Ặ":{"ha":882,"x_min":17,"x_max":865,"o":"m 17 0 l 381 979 l 471 979 l 471 832 l 440 832 l 145 0 l 17 0 m 184 280 l 224 384 l 659 384 l 699 280 l 184 280 m 737 0 l 443 832 l 443 979 l 502 979 l 865 0 l 737 0 m 442 1055 q 343 1079 385 1055 q 278 1145 301 1103 q 256 1242 256 1187 l 256 1248 l 340 1248 l 340 1244 q 368 1168 340 1201 q 442 1136 395 1136 q 516 1168 490 1136 q 543 1244 543 1201 l 543 1248 l 628 1248 l 628 1242 q 605 1145 628 1187 q 541 1079 583 1103 q 442 1055 499 1055 m 441 -267 q 389 -245 411 -267 q 368 -193 368 -224 q 389 -141 368 -162 q 441 -119 411 -119 q 494 -141 473 -119 q 515 -193 515 -162 q 494 -245 515 -224 q 441 -267 473 -267 "},"Ȃ":{"ha":882,"x_min":17,"x_max":865,"o":"m 17 0 l 381 979 l 471 979 l 471 832 l 440 832 l 145 0 l 17 0 m 184 280 l 224 384 l 659 384 l 699 280 l 184 280 m 737 0 l 443 832 l 443 979 l 502 979 l 865 0 l 737 0 m 441 1248 q 541 1224 499 1248 q 605 1158 583 1200 q 628 1061 628 1116 l 628 1055 l 543 1055 l 543 1059 q 516 1135 543 1103 q 441 1167 490 1167 q 367 1135 394 1167 q 340 1059 340 1103 l 340 1055 l 256 1055 l 256 1061 q 278 1158 256 1116 q 343 1224 301 1200 q 441 1248 385 1248 "},"Ǎ":{"ha":882,"x_min":17,"x_max":865,"o":"m 17 0 l 381 979 l 471 979 l 471 832 l 440 832 l 145 0 l 17 0 m 184 280 l 224 384 l 659 384 l 699 280 l 184 280 m 737 0 l 443 832 l 443 979 l 502 979 l 865 0 l 737 0 m 640 1253 l 494 1057 l 389 1057 l 243 1253 l 343 1253 l 450 1105 l 434 1105 l 540 1253 l 640 1253 "},"Ȧ":{"ha":882,"x_min":17,"x_max":865,"o":"m 17 0 l 381 979 l 471 979 l 471 832 l 440 832 l 145 0 l 17 0 m 184 280 l 224 384 l 659 384 l 699 280 l 184 280 m 737 0 l 443 832 l 443 979 l 502 979 l 865 0 l 737 0 m 441 1092 q 392 1113 412 1092 q 371 1162 371 1133 q 392 1212 371 1192 q 441 1232 412 1232 q 491 1212 471 1232 q 511 1162 511 1192 q 491 1113 511 1133 q 441 1092 471 1092 "},"Ạ":{"ha":882,"x_min":17,"x_max":865,"o":"m 17 0 l 381 979 l 471 979 l 471 832 l 440 832 l 145 0 l 17 0 m 184 280 l 224 384 l 659 384 l 699 280 l 184 280 m 737 0 l 443 832 l 443 979 l 502 979 l 865 0 l 737 0 m 441 -267 q 389 -245 411 -267 q 368 -193 368 -224 q 389 -141 368 -162 q 441 -119 411 -119 q 494 -141 473 -119 q 515 -193 515 -162 q 494 -245 515 -224 q 441 -267 473 -267 "},"Ả":{"ha":882,"x_min":17,"x_max":865,"o":"m 17 0 l 381 979 l 471 979 l 471 832 l 440 832 l 145 0 l 17 0 m 184 280 l 224 384 l 659 384 l 699 280 l 184 280 m 737 0 l 443 832 l 443 979 l 502 979 l 865 0 l 737 0 m 390 1057 l 390 1059 q 437 1102 420 1082 q 453 1140 453 1122 q 430 1174 453 1162 q 373 1186 407 1186 q 348 1185 358 1186 q 332 1183 338 1184 l 332 1252 q 362 1260 343 1257 q 405 1263 382 1263 q 500 1235 458 1263 q 541 1160 541 1207 q 525 1105 541 1131 q 474 1057 509 1080 l 390 1057 "},"Ȁ":{"ha":882,"x_min":17,"x_max":865,"o":"m 17 0 l 381 979 l 471 979 l 471 832 l 440 832 l 145 0 l 17 0 m 184 280 l 224 384 l 659 384 l 699 280 l 184 280 m 737 0 l 443 832 l 443 979 l 502 979 l 865 0 l 737 0 m 307 1057 l 151 1253 l 272 1253 l 396 1057 l 307 1057 m 516 1057 l 374 1253 l 495 1253 l 606 1057 l 516 1057 "},"Ā":{"ha":882,"x_min":17,"x_max":865,"o":"m 17 0 l 381 979 l 471 979 l 471 832 l 440 832 l 145 0 l 17 0 m 184 280 l 224 384 l 659 384 l 699 280 l 184 280 m 737 0 l 443 832 l 443 979 l 502 979 l 865 0 l 737 0 m 261 1114 l 261 1200 l 621 1200 l 621 1114 l 261 1114 "},"Ą":{"ha":882,"x_min":17,"x_max":873,"o":"m 17 0 l 381 979 l 471 979 l 471 832 l 440 832 l 145 0 l 17 0 m 184 280 l 224 384 l 659 384 l 699 280 l 184 280 m 737 0 l 443 832 l 443 979 l 502 979 l 865 0 l 737 0 m 807 -320 q 729 -304 765 -320 q 672 -257 694 -288 q 651 -178 651 -225 l 651 -177 q 682 -72 651 -123 q 765 14 713 -21 l 791 14 l 791 0 l 865 0 q 788 -74 816 -35 q 761 -159 761 -113 l 761 -161 q 782 -219 761 -200 q 831 -237 802 -237 q 854 -236 844 -237 q 873 -230 865 -234 l 873 -309 q 841 -317 861 -315 q 807 -320 821 -320 "},"Ⱥ":{"ha":882,"x_min":17,"x_max":865,"o":"m 17 0 l 381 979 l 471 979 l 471 832 l 440 832 l 145 0 l 17 0 m 184 280 l 224 384 l 659 384 l 699 280 l 184 280 m 737 0 l 443 832 l 443 979 l 502 979 l 865 0 l 737 0 m 588 1091 l 686 1061 l 327 -113 l 229 -83 l 588 1091 "},"B":{"ha":840,"x_min":95,"x_max":796,"o":"m 156 0 l 156 108 l 446 108 q 613 152 556 108 q 671 279 671 195 l 671 281 q 644 376 671 338 q 565 433 618 414 q 435 452 513 452 l 156 452 l 156 557 l 400 557 q 566 599 509 557 q 623 720 623 641 l 623 722 q 575 832 623 794 q 438 871 527 871 l 156 871 l 156 979 l 466 979 q 613 948 550 979 q 711 863 676 918 q 747 734 747 808 l 747 733 q 724 636 747 682 q 661 558 701 590 q 570 519 621 527 l 570 517 q 691 476 640 509 q 769 392 742 444 q 796 276 796 341 l 796 275 q 756 127 796 189 q 643 33 717 66 q 465 0 569 0 l 156 0 m 95 0 l 95 979 l 217 979 l 217 0 l 95 0 "},"Ḇ":{"ha":840,"x_min":95,"x_max":796,"o":"m 156 0 l 156 108 l 446 108 q 613 152 556 108 q 671 279 671 195 l 671 281 q 644 376 671 338 q 565 433 618 414 q 435 452 513 452 l 156 452 l 156 557 l 400 557 q 566 599 509 557 q 623 720 623 641 l 623 722 q 575 832 623 794 q 438 871 527 871 l 156 871 l 156 979 l 466 979 q 613 948 550 979 q 711 863 676 918 q 747 734 747 808 l 747 733 q 724 636 747 682 q 661 558 701 590 q 570 519 621 527 l 570 517 q 691 476 640 509 q 769 392 742 444 q 796 276 796 341 l 796 275 q 756 127 796 189 q 643 33 717 66 q 465 0 569 0 l 156 0 m 95 0 l 95 979 l 217 979 l 217 0 l 95 0 m 198 -228 l 198 -142 l 572 -142 l 572 -228 l 198 -228 "},"Ḅ":{"ha":840,"x_min":95,"x_max":796,"o":"m 156 0 l 156 108 l 446 108 q 613 152 556 108 q 671 279 671 195 l 671 281 q 644 376 671 338 q 565 433 618 414 q 435 452 513 452 l 156 452 l 156 557 l 400 557 q 566 599 509 557 q 623 720 623 641 l 623 722 q 575 832 623 794 q 438 871 527 871 l 156 871 l 156 979 l 466 979 q 613 948 550 979 q 711 863 676 918 q 747 734 747 808 l 747 733 q 724 636 747 682 q 661 558 701 590 q 570 519 621 527 l 570 517 q 691 476 640 509 q 769 392 742 444 q 796 276 796 341 l 796 275 q 756 127 796 189 q 643 33 717 66 q 465 0 569 0 l 156 0 m 95 0 l 95 979 l 217 979 l 217 0 l 95 0 m 385 -267 q 333 -245 355 -267 q 311 -193 311 -224 q 333 -141 311 -162 q 385 -119 355 -119 q 438 -141 416 -119 q 459 -193 459 -162 q 438 -245 459 -224 q 385 -267 416 -267 "},"Ḃ":{"ha":840,"x_min":95,"x_max":796,"o":"m 156 0 l 156 108 l 446 108 q 613 152 556 108 q 671 279 671 195 l 671 281 q 644 376 671 338 q 565 433 618 414 q 435 452 513 452 l 156 452 l 156 557 l 400 557 q 566 599 509 557 q 623 720 623 641 l 623 722 q 575 832 623 794 q 438 871 527 871 l 156 871 l 156 979 l 466 979 q 613 948 550 979 q 711 863 676 918 q 747 734 747 808 l 747 733 q 724 636 747 682 q 661 558 701 590 q 570 519 621 527 l 570 517 q 691 476 640 509 q 769 392 742 444 q 796 276 796 341 l 796 275 q 756 127 796 189 q 643 33 717 66 q 465 0 569 0 l 156 0 m 95 0 l 95 979 l 217 979 l 217 0 l 95 0 m 385 1092 q 335 1113 356 1092 q 315 1162 315 1133 q 335 1212 315 1192 q 385 1232 356 1232 q 435 1212 414 1232 q 455 1162 455 1192 q 435 1113 455 1133 q 385 1092 414 1092 "},"Ɓ":{"ha":1019,"x_min":14,"x_max":976,"o":"m 336 0 l 336 108 l 626 108 q 793 152 736 108 q 850 279 850 195 l 850 281 q 824 376 850 338 q 745 433 798 414 q 614 452 692 452 l 336 452 l 336 557 l 580 557 q 746 599 688 557 q 803 720 803 641 l 803 722 q 755 832 803 794 q 618 871 707 871 l 336 871 l 336 979 l 646 979 q 793 948 730 979 q 891 863 856 918 q 926 734 926 808 l 926 733 q 903 636 926 682 q 840 558 880 590 q 749 519 800 527 l 749 517 q 871 476 820 509 q 949 392 922 444 q 976 276 976 341 l 976 275 q 936 127 976 189 q 823 33 897 66 q 644 0 749 0 l 336 0 m 275 0 l 275 979 l 397 979 l 397 0 l 275 0 m 33 664 q 18 723 23 694 q 14 782 14 751 q 70 927 14 875 q 224 979 125 979 l 288 979 l 288 869 l 233 869 q 153 843 179 869 q 127 766 127 817 q 131 718 127 743 q 144 664 135 694 l 33 664 "},"C":{"ha":953,"x_min":57,"x_max":904,"o":"m 504 -16 q 268 46 368 -16 q 112 222 167 109 q 57 490 57 336 l 57 490 q 112 758 57 644 q 267 933 167 871 q 504 995 368 995 q 689 956 606 995 q 828 848 772 918 q 903 686 884 779 l 904 680 l 781 680 l 776 694 q 719 796 757 754 q 627 860 682 838 q 504 882 573 882 q 334 834 406 882 q 222 697 262 785 q 182 490 182 610 l 182 490 q 222 282 182 371 q 334 145 262 194 q 504 96 407 96 q 626 119 572 96 q 719 185 680 141 q 779 293 758 229 l 781 299 l 904 299 l 903 292 q 829 129 884 199 q 690 22 773 60 q 504 -16 606 -16 "},"Ć":{"ha":953,"x_min":57,"x_max":904,"o":"m 504 -16 q 268 46 368 -16 q 112 222 167 109 q 57 490 57 336 l 57 490 q 112 758 57 644 q 267 933 167 871 q 504 995 368 995 q 689 956 606 995 q 828 848 772 918 q 903 686 884 779 l 904 680 l 781 680 l 776 694 q 719 796 757 754 q 627 860 682 838 q 504 882 573 882 q 334 834 406 882 q 222 697 262 785 q 182 490 182 610 l 182 490 q 222 282 182 371 q 334 145 262 194 q 504 96 407 96 q 626 119 572 96 q 719 185 680 141 q 779 293 758 229 l 781 299 l 904 299 l 903 292 q 829 129 884 199 q 690 22 773 60 q 504 -16 606 -16 m 538 1057 l 449 1057 l 559 1253 l 681 1253 l 538 1057 "},"Č":{"ha":953,"x_min":57,"x_max":904,"o":"m 504 -16 q 268 46 368 -16 q 112 222 167 109 q 57 490 57 336 l 57 490 q 112 758 57 644 q 267 933 167 871 q 504 995 368 995 q 689 956 606 995 q 828 848 772 918 q 903 686 884 779 l 904 680 l 781 680 l 776 694 q 719 796 757 754 q 627 860 682 838 q 504 882 573 882 q 334 834 406 882 q 222 697 262 785 q 182 490 182 610 l 182 490 q 222 282 182 371 q 334 145 262 194 q 504 96 407 96 q 626 119 572 96 q 719 185 680 141 q 779 293 758 229 l 781 299 l 904 299 l 903 292 q 829 129 884 199 q 690 22 773 60 q 504 -16 606 -16 m 703 1253 l 557 1057 l 452 1057 l 307 1253 l 406 1253 l 513 1105 l 497 1105 l 603 1253 l 703 1253 "},"Ĉ":{"ha":953,"x_min":57,"x_max":904,"o":"m 504 -16 q 268 46 368 -16 q 112 222 167 109 q 57 490 57 336 l 57 490 q 112 758 57 644 q 267 933 167 871 q 504 995 368 995 q 689 956 606 995 q 828 848 772 918 q 903 686 884 779 l 904 680 l 781 680 l 776 694 q 719 796 757 754 q 627 860 682 838 q 504 882 573 882 q 334 834 406 882 q 222 697 262 785 q 182 490 182 610 l 182 490 q 222 282 182 371 q 334 145 262 194 q 504 96 407 96 q 626 119 572 96 q 719 185 680 141 q 779 293 758 229 l 781 299 l 904 299 l 903 292 q 829 129 884 199 q 690 22 773 60 q 504 -16 606 -16 m 307 1057 l 452 1253 l 557 1253 l 703 1057 l 603 1057 l 496 1205 l 512 1205 l 406 1057 l 307 1057 "},"Ċ":{"ha":953,"x_min":57,"x_max":904,"o":"m 504 -16 q 268 46 368 -16 q 112 222 167 109 q 57 490 57 336 l 57 490 q 112 758 57 644 q 267 933 167 871 q 504 995 368 995 q 689 956 606 995 q 828 848 772 918 q 903 686 884 779 l 904 680 l 781 680 l 776 694 q 719 796 757 754 q 627 860 682 838 q 504 882 573 882 q 334 834 406 882 q 222 697 262 785 q 182 490 182 610 l 182 490 q 222 282 182 371 q 334 145 262 194 q 504 96 407 96 q 626 119 572 96 q 719 185 680 141 q 779 293 758 229 l 781 299 l 904 299 l 903 292 q 829 129 884 199 q 690 22 773 60 q 504 -16 606 -16 m 504 1092 q 455 1113 475 1092 q 434 1162 434 1133 q 455 1212 434 1192 q 504 1232 475 1232 q 554 1212 534 1232 q 574 1162 574 1192 q 554 1113 574 1133 q 504 1092 534 1092 "},"Ç":{"ha":953,"x_min":57,"x_max":904,"o":"m 504 -16 q 268 46 368 -16 q 112 222 167 109 q 57 490 57 336 l 57 490 q 112 758 57 644 q 267 933 167 871 q 504 995 368 995 q 689 956 606 995 q 828 848 772 918 q 903 686 884 779 l 904 680 l 781 680 l 776 694 q 719 796 757 754 q 627 860 682 838 q 504 882 573 882 q 334 834 406 882 q 222 697 262 785 q 182 490 182 610 l 182 490 q 222 282 182 371 q 334 145 262 194 q 504 96 407 96 q 626 119 572 96 q 719 185 680 141 q 779 293 758 229 l 781 299 l 904 299 l 903 292 q 829 129 884 199 q 690 22 773 60 q 504 -16 606 -16 m 498 -309 q 439 -304 466 -309 q 396 -292 412 -299 l 396 -217 q 428 -225 408 -222 q 470 -229 448 -229 q 518 -220 497 -229 q 538 -188 538 -211 l 538 -186 q 518 -150 538 -161 q 458 -138 497 -138 l 427 -138 l 427 -78 l 488 14 l 563 14 l 563 0 l 520 -64 q 608 -97 574 -68 q 642 -184 642 -126 l 642 -185 q 621 -253 642 -225 q 568 -295 601 -280 q 498 -309 535 -309 "},"Ḉ":{"ha":953,"x_min":57,"x_max":904,"o":"m 504 -16 q 268 46 368 -16 q 112 222 167 109 q 57 490 57 336 l 57 490 q 112 758 57 644 q 267 933 167 871 q 504 995 368 995 q 689 956 606 995 q 828 848 772 918 q 903 686 884 779 l 904 680 l 781 680 l 776 694 q 719 796 757 754 q 627 860 682 838 q 504 882 573 882 q 334 834 406 882 q 222 697 262 785 q 182 490 182 610 l 182 490 q 222 282 182 371 q 334 145 262 194 q 504 96 407 96 q 626 119 572 96 q 719 185 680 141 q 779 293 758 229 l 781 299 l 904 299 l 903 292 q 829 129 884 199 q 690 22 773 60 q 504 -16 606 -16 m 498 -309 q 439 -304 466 -309 q 396 -292 412 -299 l 396 -217 q 428 -225 408 -222 q 470 -229 448 -229 q 518 -220 497 -229 q 538 -188 538 -211 l 538 -186 q 518 -150 538 -161 q 458 -138 497 -138 l 427 -138 l 427 -78 l 488 14 l 563 14 l 563 0 l 520 -64 q 608 -97 574 -68 q 642 -184 642 -126 l 642 -185 q 621 -253 642 -225 q 568 -295 601 -280 q 498 -309 535 -309 m 538 1057 l 449 1057 l 559 1253 l 681 1253 l 538 1057 "},"Ȼ":{"ha":953,"x_min":57,"x_max":904,"o":"m 504 -16 q 268 46 368 -16 q 112 222 167 109 q 57 490 57 336 l 57 490 q 112 758 57 644 q 267 933 167 871 q 504 995 368 995 q 689 956 606 995 q 828 848 772 918 q 903 686 884 779 l 904 680 l 781 680 l 776 694 q 719 796 757 754 q 627 860 682 838 q 504 882 573 882 q 334 834 406 882 q 222 697 262 785 q 182 490 182 610 l 182 490 q 222 282 182 371 q 334 145 262 194 q 504 96 407 96 q 626 119 572 96 q 719 185 680 141 q 779 293 758 229 l 781 299 l 904 299 l 903 292 q 829 129 884 199 q 690 22 773 60 q 504 -16 606 -16 m 614 1091 l 711 1061 l 353 -113 l 255 -83 l 614 1091 "},"D":{"ha":943,"x_min":95,"x_max":886,"o":"m 95 0 l 95 979 l 424 979 q 672 921 569 979 q 830 754 775 863 q 886 491 886 645 l 886 490 q 831 226 886 336 q 673 58 776 116 q 424 0 570 0 l 95 0 m 217 110 l 416 110 q 604 154 527 110 q 721 282 681 198 q 761 488 761 367 l 761 490 q 721 696 761 612 q 604 825 681 781 q 416 869 527 869 l 217 869 l 217 110 "},"Ḋ":{"ha":943,"x_min":95,"x_max":886,"o":"m 95 0 l 95 979 l 424 979 q 672 921 569 979 q 830 754 775 863 q 886 491 886 645 l 886 490 q 831 226 886 336 q 673 58 776 116 q 424 0 570 0 l 95 0 m 217 110 l 416 110 q 604 154 527 110 q 721 282 681 198 q 761 488 761 367 l 761 490 q 721 696 761 612 q 604 825 681 781 q 416 869 527 869 l 217 869 l 217 110 m 420 1092 q 371 1113 391 1092 q 350 1162 350 1133 q 371 1212 350 1192 q 420 1232 391 1232 q 470 1212 450 1232 q 490 1162 490 1192 q 470 1113 490 1133 q 420 1092 450 1092 "},"Ḓ":{"ha":943,"x_min":95,"x_max":886,"o":"m 95 0 l 95 979 l 424 979 q 672 921 569 979 q 830 754 775 863 q 886 491 886 645 l 886 490 q 831 226 886 336 q 673 58 776 116 q 424 0 570 0 l 95 0 m 217 110 l 416 110 q 604 154 527 110 q 721 282 681 198 q 761 488 761 367 l 761 490 q 721 696 761 612 q 604 825 681 781 q 416 869 527 869 l 217 869 l 217 110 m 214 -286 l 367 -81 l 474 -81 l 627 -286 l 525 -286 l 413 -130 l 427 -130 l 316 -286 l 214 -286 "},"Ḑ":{"ha":943,"x_min":95,"x_max":886,"o":"m 95 0 l 95 979 l 424 979 q 672 921 569 979 q 830 754 775 863 q 886 491 886 645 l 886 490 q 831 226 886 336 q 673 58 776 116 q 424 0 570 0 l 95 0 m 217 110 l 416 110 q 604 154 527 110 q 721 282 681 198 q 761 488 761 367 l 761 490 q 721 696 761 612 q 604 825 681 781 q 416 869 527 869 l 217 869 l 217 110 m 300 -309 l 361 -81 l 475 -81 l 376 -309 l 300 -309 "},"Ḏ":{"ha":943,"x_min":95,"x_max":886,"o":"m 95 0 l 95 979 l 424 979 q 672 921 569 979 q 830 754 775 863 q 886 491 886 645 l 886 490 q 831 226 886 336 q 673 58 776 116 q 424 0 570 0 l 95 0 m 217 110 l 416 110 q 604 154 527 110 q 721 282 681 198 q 761 488 761 367 l 761 490 q 721 696 761 612 q 604 825 681 781 q 416 869 527 869 l 217 869 l 217 110 m 233 -228 l 233 -142 l 608 -142 l 608 -228 l 233 -228 "},"Ď":{"ha":943,"x_min":95,"x_max":886,"o":"m 95 0 l 95 979 l 424 979 q 672 921 569 979 q 830 754 775 863 q 886 491 886 645 l 886 490 q 831 226 886 336 q 673 58 776 116 q 424 0 570 0 l 95 0 m 217 110 l 416 110 q 604 154 527 110 q 721 282 681 198 q 761 488 761 367 l 761 490 q 721 696 761 612 q 604 825 681 781 q 416 869 527 869 l 217 869 l 217 110 m 618 1253 l 473 1057 l 368 1057 l 222 1253 l 322 1253 l 429 1105 l 413 1105 l 519 1253 l 618 1253 "},"Ḍ":{"ha":943,"x_min":95,"x_max":886,"o":"m 95 0 l 95 979 l 424 979 q 672 921 569 979 q 830 754 775 863 q 886 491 886 645 l 886 490 q 831 226 886 336 q 673 58 776 116 q 424 0 570 0 l 95 0 m 217 110 l 416 110 q 604 154 527 110 q 721 282 681 198 q 761 488 761 367 l 761 490 q 721 696 761 612 q 604 825 681 781 q 416 869 527 869 l 217 869 l 217 110 m 420 -267 q 368 -245 390 -267 q 347 -193 347 -224 q 368 -141 347 -162 q 420 -119 390 -119 q 473 -141 452 -119 q 494 -193 494 -162 q 473 -245 494 -224 q 420 -267 452 -267 "},"Ð":{"ha":974,"x_min":31,"x_max":917,"o":"m 126 0 l 126 979 l 455 979 q 703 921 600 979 q 862 754 806 863 q 917 491 917 645 l 917 490 q 862 226 917 336 q 704 58 807 116 q 455 0 601 0 l 126 0 m 248 110 l 447 110 q 635 154 558 110 q 752 282 712 198 q 792 488 792 367 l 792 490 q 752 696 792 612 q 635 825 712 781 q 447 869 558 869 l 248 869 l 248 110 m 31 439 l 31 541 l 425 541 l 425 439 l 31 439 "},"Đ":{"ha":974,"x_min":31,"x_max":917,"o":"m 126 0 l 455 0 q 704 58 601 0 q 862 226 807 116 q 917 490 917 336 l 917 491 q 862 754 917 645 q 703 921 806 863 q 455 979 600 979 l 126 979 l 126 0 m 248 110 l 248 869 l 447 869 q 635 825 558 869 q 752 696 712 781 q 792 490 792 612 l 792 488 q 752 282 792 367 q 635 154 712 198 q 447 110 558 110 l 248 110 m 31 439 l 425 439 l 425 541 l 31 541 l 31 439 "},"Ɗ":{"ha":1122,"x_min":14,"x_max":1065,"o":"m 275 0 l 275 979 l 604 979 q 852 921 749 979 q 1010 754 955 863 q 1065 491 1065 645 l 1065 490 q 1010 226 1065 336 q 852 58 956 116 q 604 0 749 0 l 275 0 m 397 110 l 595 110 q 784 154 707 110 q 901 282 861 198 q 941 488 941 367 l 941 490 q 901 696 941 612 q 784 825 861 781 q 595 869 707 869 l 397 869 l 397 110 m 33 664 q 18 723 23 694 q 14 782 14 751 q 70 927 14 875 q 224 979 125 979 l 288 979 l 288 869 l 233 869 q 153 843 179 869 q 127 766 127 817 q 131 718 127 743 q 144 664 135 694 l 33 664 "},"E":{"ha":767,"x_min":95,"x_max":701,"o":"m 95 0 l 95 979 l 701 979 l 701 869 l 217 869 l 217 555 l 676 555 l 676 446 l 217 446 l 217 110 l 701 110 l 701 0 l 95 0 "},"È":{"ha":767,"x_min":95,"x_max":701,"o":"m 95 0 l 95 979 l 701 979 l 701 869 l 217 869 l 217 555 l 676 555 l 676 446 l 217 446 l 217 110 l 701 110 l 701 0 l 95 0 m 368 1057 l 226 1253 l 347 1253 l 458 1057 l 368 1057 "},"Ȅ":{"ha":767,"x_min":95,"x_max":701,"o":"m 95 0 l 95 979 l 701 979 l 701 869 l 217 869 l 217 555 l 676 555 l 676 446 l 217 446 l 217 110 l 701 110 l 701 0 l 95 0 m 263 1057 l 107 1253 l 229 1253 l 353 1057 l 263 1057 m 473 1057 l 330 1253 l 452 1253 l 562 1057 l 473 1057 "},"É":{"ha":767,"x_min":95,"x_max":701,"o":"m 95 0 l 95 979 l 701 979 l 701 869 l 217 869 l 217 555 l 676 555 l 676 446 l 217 446 l 217 110 l 701 110 l 701 0 l 95 0 m 432 1057 l 342 1057 l 453 1253 l 574 1253 l 432 1057 "},"Ê":{"ha":767,"x_min":95,"x_max":701,"o":"m 95 0 l 95 979 l 701 979 l 701 869 l 217 869 l 217 555 l 676 555 l 676 446 l 217 446 l 217 110 l 701 110 l 701 0 l 95 0 m 200 1057 l 345 1253 l 451 1253 l 596 1057 l 496 1057 l 390 1205 l 406 1205 l 300 1057 l 200 1057 "},"Ể":{"ha":767,"x_min":95,"x_max":701,"o":"m 95 0 l 95 979 l 701 979 l 701 869 l 217 869 l 217 555 l 676 555 l 676 446 l 217 446 l 217 110 l 701 110 l 701 0 l 95 0 "},"Ề":{"ha":767,"x_min":95,"x_max":701,"o":"m 95 0 l 95 979 l 701 979 l 701 869 l 217 869 l 217 555 l 676 555 l 676 446 l 217 446 l 217 110 l 701 110 l 701 0 l 95 0 "},"Ễ":{"ha":767,"x_min":95,"x_max":701,"o":"m 95 0 l 95 979 l 701 979 l 701 869 l 217 869 l 217 555 l 676 555 l 676 446 l 217 446 l 217 110 l 701 110 l 701 0 l 95 0 "},"Ệ":{"ha":767,"x_min":95,"x_max":701,"o":"m 95 0 l 95 979 l 701 979 l 701 869 l 217 869 l 217 555 l 676 555 l 676 446 l 217 446 l 217 110 l 701 110 l 701 0 l 95 0 m 200 1057 l 345 1253 l 451 1253 l 596 1057 l 496 1057 l 390 1205 l 406 1205 l 300 1057 l 200 1057 m 398 -267 q 346 -245 368 -267 q 324 -193 324 -224 q 346 -141 324 -162 q 398 -119 368 -119 q 451 -141 429 -119 q 472 -193 472 -162 q 451 -245 472 -224 q 398 -267 429 -267 "},"Ế":{"ha":767,"x_min":95,"x_max":701,"o":"m 95 0 l 95 979 l 701 979 l 701 869 l 217 869 l 217 555 l 676 555 l 676 446 l 217 446 l 217 110 l 701 110 l 701 0 l 95 0 "},"Ë":{"ha":767,"x_min":95,"x_max":701,"o":"m 95 0 l 95 979 l 701 979 l 701 869 l 217 869 l 217 555 l 676 555 l 676 446 l 217 446 l 217 110 l 701 110 l 701 0 l 95 0 m 277 1090 q 229 1109 249 1090 q 210 1157 210 1129 q 229 1204 210 1185 q 277 1224 249 1224 q 324 1204 304 1224 q 343 1157 343 1185 q 324 1109 343 1129 q 277 1090 304 1090 m 519 1090 q 473 1109 492 1090 q 453 1157 453 1129 q 473 1204 453 1185 q 519 1224 492 1224 q 567 1204 548 1224 q 587 1157 587 1185 q 567 1109 587 1129 q 519 1090 548 1090 "},"Ẹ":{"ha":767,"x_min":95,"x_max":701,"o":"m 95 0 l 95 979 l 701 979 l 701 869 l 217 869 l 217 555 l 676 555 l 676 446 l 217 446 l 217 110 l 701 110 l 701 0 l 95 0 m 398 -267 q 346 -245 368 -267 q 324 -193 324 -224 q 346 -141 324 -162 q 398 -119 368 -119 q 451 -141 429 -119 q 472 -193 472 -162 q 451 -245 472 -224 q 398 -267 429 -267 "},"Ȇ":{"ha":767,"x_min":95,"x_max":701,"o":"m 95 0 l 95 979 l 701 979 l 701 869 l 217 869 l 217 555 l 676 555 l 676 446 l 217 446 l 217 110 l 701 110 l 701 0 l 95 0 m 398 1248 q 497 1224 456 1248 q 562 1158 539 1200 q 585 1061 585 1116 l 585 1055 l 500 1055 l 500 1059 q 473 1135 500 1103 q 398 1167 446 1167 q 324 1135 351 1167 q 297 1059 297 1103 l 297 1055 l 212 1055 l 212 1061 q 235 1158 212 1116 q 299 1224 258 1200 q 398 1248 341 1248 "},"Ẻ":{"ha":767,"x_min":95,"x_max":701,"o":"m 95 0 l 95 979 l 701 979 l 701 869 l 217 869 l 217 555 l 676 555 l 676 446 l 217 446 l 217 110 l 701 110 l 701 0 l 95 0 m 347 1057 l 347 1059 q 393 1102 377 1082 q 410 1140 410 1122 q 387 1174 410 1162 q 330 1186 363 1186 q 305 1185 315 1186 q 288 1183 295 1184 l 288 1252 q 319 1260 300 1257 q 361 1263 338 1263 q 456 1235 415 1263 q 498 1160 498 1207 q 481 1105 498 1131 q 431 1057 465 1080 l 347 1057 "},"Ě":{"ha":767,"x_min":95,"x_max":701,"o":"m 95 0 l 95 979 l 701 979 l 701 869 l 217 869 l 217 555 l 676 555 l 676 446 l 217 446 l 217 110 l 701 110 l 701 0 l 95 0 m 596 1253 l 451 1057 l 345 1057 l 200 1253 l 300 1253 l 406 1105 l 391 1105 l 496 1253 l 596 1253 "},"Ē":{"ha":767,"x_min":95,"x_max":701,"o":"m 95 0 l 95 979 l 701 979 l 701 869 l 217 869 l 217 555 l 676 555 l 676 446 l 217 446 l 217 110 l 701 110 l 701 0 l 95 0 m 218 1114 l 218 1200 l 578 1200 l 578 1114 l 218 1114 "},"Ḕ":{"ha":767,"x_min":95,"x_max":701,"o":"m 95 0 l 95 979 l 701 979 l 701 869 l 217 869 l 217 555 l 676 555 l 676 446 l 217 446 l 217 110 l 701 110 l 701 0 l 95 0 "},"Ḗ":{"ha":767,"x_min":95,"x_max":701,"o":"m 95 0 l 95 979 l 701 979 l 701 869 l 217 869 l 217 555 l 676 555 l 676 446 l 217 446 l 217 110 l 701 110 l 701 0 l 95 0 "},"Ẽ":{"ha":767,"x_min":95,"x_max":701,"o":"m 95 0 l 95 979 l 701 979 l 701 869 l 217 869 l 217 555 l 676 555 l 676 446 l 217 446 l 217 110 l 701 110 l 701 0 l 95 0 m 490 1058 q 440 1068 463 1058 q 399 1093 417 1078 l 376 1112 q 346 1136 360 1126 q 318 1145 332 1145 q 291 1126 299 1145 q 283 1065 283 1106 l 283 1059 l 202 1059 l 202 1067 q 230 1192 202 1150 q 306 1234 257 1234 q 354 1224 333 1234 q 393 1199 376 1215 l 417 1179 q 448 1156 433 1166 q 477 1146 463 1146 q 505 1166 496 1146 q 513 1226 513 1185 l 513 1232 l 593 1232 l 593 1225 q 566 1100 593 1141 q 490 1058 538 1058 "},"Ḙ":{"ha":767,"x_min":95,"x_max":701,"o":"m 95 0 l 95 979 l 701 979 l 701 869 l 217 869 l 217 555 l 676 555 l 676 446 l 217 446 l 217 110 l 701 110 l 701 0 l 95 0 m 192 -286 l 345 -81 l 452 -81 l 604 -286 l 503 -286 l 391 -130 l 405 -130 l 294 -286 l 192 -286 "},"Ĕ":{"ha":767,"x_min":95,"x_max":701,"o":"m 95 0 l 95 979 l 701 979 l 701 869 l 217 869 l 217 555 l 676 555 l 676 446 l 217 446 l 217 110 l 701 110 l 701 0 l 95 0 m 399 1055 q 300 1079 342 1055 q 235 1145 258 1103 q 212 1242 212 1187 l 212 1248 l 297 1248 l 297 1244 q 324 1168 297 1201 q 399 1136 351 1136 q 473 1168 446 1136 q 500 1244 500 1201 l 500 1248 l 585 1248 l 585 1242 q 562 1145 585 1187 q 497 1079 539 1103 q 399 1055 456 1055 "},"Ḛ":{"ha":767,"x_min":95,"x_max":701,"o":"m 95 0 l 95 979 l 701 979 l 701 869 l 217 869 l 217 555 l 676 555 l 676 446 l 217 446 l 217 110 l 701 110 l 701 0 l 95 0 m 494 -286 q 442 -276 465 -286 q 399 -250 418 -266 l 375 -229 q 343 -204 358 -214 q 314 -193 329 -193 q 286 -214 295 -193 q 277 -278 277 -235 l 277 -285 l 195 -285 l 195 -277 q 223 -148 195 -191 q 302 -104 252 -104 q 353 -115 330 -104 q 394 -141 375 -125 l 418 -162 q 452 -187 436 -177 q 482 -197 467 -197 q 510 -177 502 -197 q 519 -113 519 -156 l 519 -106 l 602 -106 l 602 -114 q 573 -243 602 -200 q 494 -286 545 -286 "},"Ė":{"ha":767,"x_min":95,"x_max":701,"o":"m 95 0 l 95 979 l 701 979 l 701 869 l 217 869 l 217 555 l 676 555 l 676 446 l 217 446 l 217 110 l 701 110 l 701 0 l 95 0 m 397 1092 q 348 1113 369 1092 q 328 1162 328 1133 q 348 1212 328 1192 q 397 1232 369 1232 q 448 1212 427 1232 q 468 1162 468 1192 q 448 1113 468 1133 q 397 1092 427 1092 "},"Ȩ":{"ha":767,"x_min":95,"x_max":701,"o":"m 95 0 l 95 979 l 701 979 l 701 869 l 217 869 l 217 555 l 676 555 l 676 446 l 217 446 l 217 110 l 701 110 l 701 0 l 95 0 m 391 -309 q 332 -304 359 -309 q 290 -292 305 -299 l 290 -217 q 321 -225 301 -222 q 363 -229 341 -229 q 411 -220 391 -229 q 432 -188 432 -211 l 432 -186 q 411 -150 432 -161 q 352 -138 391 -138 l 321 -138 l 321 -78 l 382 14 l 456 14 l 456 0 l 414 -64 q 501 -97 467 -68 q 535 -184 535 -126 l 535 -185 q 515 -253 535 -225 q 461 -295 494 -280 q 391 -309 429 -309 "},"Ḝ":{"ha":767,"x_min":95,"x_max":701,"o":"m 95 0 l 95 979 l 701 979 l 701 869 l 217 869 l 217 555 l 676 555 l 676 446 l 217 446 l 217 110 l 701 110 l 701 0 l 95 0 m 391 -309 q 332 -304 359 -309 q 290 -292 305 -299 l 290 -217 q 321 -225 301 -222 q 363 -229 341 -229 q 411 -220 391 -229 q 432 -188 432 -211 l 432 -186 q 411 -150 432 -161 q 352 -138 391 -138 l 321 -138 l 321 -78 l 382 14 l 456 14 l 456 0 l 414 -64 q 501 -97 467 -68 q 535 -184 535 -126 l 535 -185 q 515 -253 535 -225 q 461 -295 494 -280 q 391 -309 429 -309 m 399 1055 q 300 1079 342 1055 q 235 1145 258 1103 q 212 1242 212 1187 l 212 1248 l 297 1248 l 297 1244 q 324 1168 297 1201 q 399 1136 351 1136 q 473 1168 446 1136 q 500 1244 500 1201 l 500 1248 l 585 1248 l 585 1242 q 562 1145 585 1187 q 497 1079 539 1103 q 399 1055 456 1055 "},"Ę":{"ha":767,"x_min":95,"x_max":709,"o":"m 95 0 l 95 979 l 701 979 l 701 869 l 217 869 l 217 555 l 676 555 l 676 446 l 217 446 l 217 110 l 701 110 l 701 0 l 95 0 m 643 -320 q 565 -304 601 -320 q 508 -257 530 -288 q 487 -178 487 -225 l 487 -177 q 518 -72 487 -123 q 601 14 549 -21 l 627 14 l 627 0 l 701 0 q 624 -74 652 -35 q 597 -159 597 -113 l 597 -161 q 617 -219 597 -200 q 667 -237 638 -237 q 690 -236 680 -237 q 709 -230 701 -234 l 709 -309 q 676 -317 696 -315 q 643 -320 656 -320 "},"Ǝ":{"ha":767,"x_min":66,"x_max":672,"o":"m 672 0 l 66 0 l 66 110 l 550 110 l 550 446 l 91 446 l 91 555 l 550 555 l 550 869 l 66 869 l 66 979 l 672 979 l 672 0 "},"F":{"ha":733,"x_min":95,"x_max":689,"o":"m 95 0 l 95 979 l 689 979 l 689 869 l 217 869 l 217 532 l 650 532 l 650 424 l 217 424 l 217 0 l 95 0 "},"Ḟ":{"ha":733,"x_min":95,"x_max":689,"o":"m 95 0 l 95 979 l 689 979 l 689 869 l 217 869 l 217 532 l 650 532 l 650 424 l 217 424 l 217 0 l 95 0 m 391 1092 q 342 1113 363 1092 q 321 1162 321 1133 q 342 1212 321 1192 q 391 1232 363 1232 q 441 1212 421 1232 q 462 1162 462 1192 q 441 1113 462 1133 q 391 1092 421 1092 "},"Ƒ":{"ha":733,"x_min":-52,"x_max":689,"o":"m 217 424 l 217 13 l 95 13 l 95 979 l 689 979 l 689 869 l 217 869 l 217 532 l 650 532 l 650 424 l 217 424 m 217 14 l 217 -39 q 168 -189 217 -140 q 20 -237 119 -237 q -20 -236 0 -237 q -52 -233 -39 -235 l -52 -137 q -27 -139 -41 -138 q 1 -140 -14 -140 q 72 -115 49 -140 q 95 -39 95 -90 l 95 14 l 217 14 "},"G":{"ha":981,"x_min":57,"x_max":920,"o":"m 505 -16 q 320 19 403 -16 q 179 122 237 55 q 89 283 120 189 q 57 494 57 378 l 57 495 q 112 760 57 648 q 268 933 168 872 q 505 995 369 995 q 700 955 618 995 q 836 847 783 916 q 911 692 888 779 l 914 680 l 786 680 l 783 687 q 679 831 749 780 q 505 882 608 882 q 332 836 405 882 q 221 703 260 789 q 182 495 182 616 l 182 494 q 204 329 182 402 q 269 203 227 255 q 371 124 311 151 q 505 96 431 96 q 658 131 592 96 q 761 229 724 166 q 798 373 798 291 l 798 391 l 522 391 l 522 498 l 920 498 l 920 405 q 892 228 920 306 q 810 95 864 150 q 680 12 757 41 q 505 -16 603 -16 "},"Ǵ":{"ha":981,"x_min":57,"x_max":920,"o":"m 505 -16 q 320 19 403 -16 q 179 122 237 55 q 89 283 120 189 q 57 494 57 378 l 57 495 q 112 760 57 648 q 268 933 168 872 q 505 995 369 995 q 700 955 618 995 q 836 847 783 916 q 911 692 888 779 l 914 680 l 786 680 l 783 687 q 679 831 749 780 q 505 882 608 882 q 332 836 405 882 q 221 703 260 789 q 182 495 182 616 l 182 494 q 204 329 182 402 q 269 203 227 255 q 371 124 311 151 q 505 96 431 96 q 658 131 592 96 q 761 229 724 166 q 798 373 798 291 l 798 391 l 522 391 l 522 498 l 920 498 l 920 405 q 892 228 920 306 q 810 95 864 150 q 680 12 757 41 q 505 -16 603 -16 m 539 1057 l 450 1057 l 560 1253 l 682 1253 l 539 1057 "},"Ǧ":{"ha":981,"x_min":57,"x_max":920,"o":"m 505 -16 q 320 19 403 -16 q 179 122 237 55 q 89 283 120 189 q 57 494 57 378 l 57 495 q 112 760 57 648 q 268 933 168 872 q 505 995 369 995 q 700 955 618 995 q 836 847 783 916 q 911 692 888 779 l 914 680 l 786 680 l 783 687 q 679 831 749 780 q 505 882 608 882 q 332 836 405 882 q 221 703 260 789 q 182 495 182 616 l 182 494 q 204 329 182 402 q 269 203 227 255 q 371 124 311 151 q 505 96 431 96 q 658 131 592 96 q 761 229 724 166 q 798 373 798 291 l 798 391 l 522 391 l 522 498 l 920 498 l 920 405 q 892 228 920 306 q 810 95 864 150 q 680 12 757 41 q 505 -16 603 -16 m 703 1253 l 558 1057 l 452 1057 l 307 1253 l 407 1253 l 513 1105 l 498 1105 l 604 1253 l 703 1253 "},"Ĝ":{"ha":981,"x_min":57,"x_max":920,"o":"m 505 -16 q 320 19 403 -16 q 179 122 237 55 q 89 283 120 189 q 57 494 57 378 l 57 495 q 112 760 57 648 q 268 933 168 872 q 505 995 369 995 q 700 955 618 995 q 836 847 783 916 q 911 692 888 779 l 914 680 l 786 680 l 783 687 q 679 831 749 780 q 505 882 608 882 q 332 836 405 882 q 221 703 260 789 q 182 495 182 616 l 182 494 q 204 329 182 402 q 269 203 227 255 q 371 124 311 151 q 505 96 431 96 q 658 131 592 96 q 761 229 724 166 q 798 373 798 291 l 798 391 l 522 391 l 522 498 l 920 498 l 920 405 q 892 228 920 306 q 810 95 864 150 q 680 12 757 41 q 505 -16 603 -16 m 307 1057 l 452 1253 l 558 1253 l 703 1057 l 604 1057 l 497 1205 l 513 1205 l 407 1057 l 307 1057 "},"Ğ":{"ha":981,"x_min":57,"x_max":920,"o":"m 505 -16 q 320 19 403 -16 q 179 122 237 55 q 89 283 120 189 q 57 494 57 378 l 57 495 q 112 760 57 648 q 268 933 168 872 q 505 995 369 995 q 700 955 618 995 q 836 847 783 916 q 911 692 888 779 l 914 680 l 786 680 l 783 687 q 679 831 749 780 q 505 882 608 882 q 332 836 405 882 q 221 703 260 789 q 182 495 182 616 l 182 494 q 204 329 182 402 q 269 203 227 255 q 371 124 311 151 q 505 96 431 96 q 658 131 592 96 q 761 229 724 166 q 798 373 798 291 l 798 391 l 522 391 l 522 498 l 920 498 l 920 405 q 892 228 920 306 q 810 95 864 150 q 680 12 757 41 q 505 -16 603 -16 m 506 1055 q 407 1079 449 1055 q 342 1145 365 1103 q 319 1242 319 1187 l 319 1248 l 404 1248 l 404 1244 q 431 1168 404 1201 q 506 1136 458 1136 q 580 1168 553 1136 q 607 1244 607 1201 l 607 1248 l 692 1248 l 692 1242 q 669 1145 692 1187 q 605 1079 646 1103 q 506 1055 563 1055 "},"Ḡ":{"ha":981,"x_min":57,"x_max":920,"o":"m 505 -16 q 320 19 403 -16 q 179 122 237 55 q 89 283 120 189 q 57 494 57 378 l 57 495 q 112 760 57 648 q 268 933 168 872 q 505 995 369 995 q 700 955 618 995 q 836 847 783 916 q 911 692 888 779 l 914 680 l 786 680 l 783 687 q 679 831 749 780 q 505 882 608 882 q 332 836 405 882 q 221 703 260 789 q 182 495 182 616 l 182 494 q 204 329 182 402 q 269 203 227 255 q 371 124 311 151 q 505 96 431 96 q 658 131 592 96 q 761 229 724 166 q 798 373 798 291 l 798 391 l 522 391 l 522 498 l 920 498 l 920 405 q 892 228 920 306 q 810 95 864 150 q 680 12 757 41 q 505 -16 603 -16 m 325 1114 l 325 1200 l 685 1200 l 685 1114 l 325 1114 "},"Ġ":{"ha":981,"x_min":57,"x_max":920,"o":"m 505 -16 q 320 19 403 -16 q 179 122 237 55 q 89 283 120 189 q 57 494 57 378 l 57 495 q 112 760 57 648 q 268 933 168 872 q 505 995 369 995 q 700 955 618 995 q 836 847 783 916 q 911 692 888 779 l 914 680 l 786 680 l 783 687 q 679 831 749 780 q 505 882 608 882 q 332 836 405 882 q 221 703 260 789 q 182 495 182 616 l 182 494 q 204 329 182 402 q 269 203 227 255 q 371 124 311 151 q 505 96 431 96 q 658 131 592 96 q 761 229 724 166 q 798 373 798 291 l 798 391 l 522 391 l 522 498 l 920 498 l 920 405 q 892 228 920 306 q 810 95 864 150 q 680 12 757 41 q 505 -16 603 -16 m 505 1092 q 455 1113 476 1092 q 435 1162 435 1133 q 455 1212 435 1192 q 505 1232 476 1232 q 555 1212 534 1232 q 575 1162 575 1192 q 555 1113 575 1133 q 505 1092 534 1092 "},"Ģ":{"ha":981,"x_min":57,"x_max":920,"o":"m 505 -16 q 320 19 403 -16 q 179 122 237 55 q 89 283 120 189 q 57 494 57 378 l 57 495 q 112 760 57 648 q 268 933 168 872 q 505 995 369 995 q 700 955 618 995 q 836 847 783 916 q 911 692 888 779 l 914 680 l 786 680 l 783 687 q 679 831 749 780 q 505 882 608 882 q 332 836 405 882 q 221 703 260 789 q 182 495 182 616 l 182 494 q 204 329 182 402 q 269 203 227 255 q 371 124 311 151 q 505 96 431 96 q 658 131 592 96 q 761 229 724 166 q 798 373 798 291 l 798 391 l 522 391 l 522 498 l 920 498 l 920 405 q 892 228 920 306 q 810 95 864 150 q 680 12 757 41 q 505 -16 603 -16 m 385 -309 l 446 -81 l 560 -81 l 461 -309 l 385 -309 "},"Ǥ":{"ha":1029,"x_min":57,"x_max":1030,"o":"m 505 -16 q 320 19 403 -16 q 179 122 237 55 q 89 283 120 189 q 57 494 57 378 l 57 495 q 112 760 57 648 q 268 933 168 872 q 505 995 369 995 q 700 955 618 995 q 836 847 783 916 q 911 692 888 779 l 914 680 l 786 680 l 783 687 q 679 831 749 780 q 505 882 608 882 q 332 836 405 882 q 221 703 260 789 q 182 495 182 616 l 182 494 q 204 329 182 402 q 269 203 227 255 q 371 124 311 151 q 505 96 431 96 q 658 131 592 96 q 761 229 724 166 q 798 373 798 291 l 798 391 l 522 391 l 522 498 l 920 498 l 920 405 q 892 228 920 306 q 810 95 864 150 q 680 12 757 41 q 505 -16 603 -16 m 598 220 l 598 322 l 1030 322 l 1030 220 l 598 220 "},"H":{"ha":971,"x_min":95,"x_max":876,"o":"m 95 0 l 95 979 l 217 979 l 217 555 l 754 555 l 754 979 l 876 979 l 876 0 l 754 0 l 754 446 l 217 446 l 217 0 l 95 0 "},"Ḧ":{"ha":971,"x_min":95,"x_max":876,"o":"m 95 0 l 95 979 l 217 979 l 217 555 l 754 555 l 754 979 l 876 979 l 876 0 l 754 0 l 754 446 l 217 446 l 217 0 l 95 0 m 364 1090 q 317 1109 336 1090 q 297 1157 297 1129 q 317 1204 297 1185 q 364 1224 336 1224 q 411 1204 392 1224 q 431 1157 431 1185 q 411 1109 431 1129 q 364 1090 392 1090 m 607 1090 q 560 1109 580 1090 q 541 1157 541 1129 q 560 1204 541 1185 q 607 1224 580 1224 q 655 1204 635 1224 q 674 1157 674 1185 q 655 1109 674 1129 q 607 1090 635 1090 "},"Ȟ":{"ha":971,"x_min":95,"x_max":876,"o":"m 95 0 l 95 979 l 217 979 l 217 555 l 754 555 l 754 979 l 876 979 l 876 0 l 754 0 l 754 446 l 217 446 l 217 0 l 95 0 m 684 1253 l 538 1057 l 433 1057 l 288 1253 l 387 1253 l 494 1105 l 478 1105 l 584 1253 l 684 1253 "},"Ĥ":{"ha":971,"x_min":95,"x_max":876,"o":"m 95 0 l 95 979 l 217 979 l 217 555 l 754 555 l 754 979 l 876 979 l 876 0 l 754 0 l 754 446 l 217 446 l 217 0 l 95 0 m 288 1057 l 433 1253 l 538 1253 l 684 1057 l 584 1057 l 477 1205 l 493 1205 l 387 1057 l 288 1057 "},"Ḥ":{"ha":971,"x_min":95,"x_max":876,"o":"m 95 0 l 95 979 l 217 979 l 217 555 l 754 555 l 754 979 l 876 979 l 876 0 l 754 0 l 754 446 l 217 446 l 217 0 l 95 0 m 486 -267 q 433 -245 455 -267 q 412 -193 412 -224 q 433 -141 412 -162 q 486 -119 455 -119 q 538 -141 517 -119 q 559 -193 559 -162 q 538 -245 559 -224 q 486 -267 517 -267 "},"Ḣ":{"ha":971,"x_min":95,"x_max":876,"o":"m 95 0 l 95 979 l 217 979 l 217 555 l 754 555 l 754 979 l 876 979 l 876 0 l 754 0 l 754 446 l 217 446 l 217 0 l 95 0 m 485 1092 q 436 1113 456 1092 q 415 1162 415 1133 q 436 1212 415 1192 q 485 1232 456 1232 q 535 1212 515 1232 q 555 1162 555 1192 q 535 1113 555 1133 q 485 1092 515 1092 "},"Ḫ":{"ha":971,"x_min":95,"x_max":876,"o":"m 95 0 l 95 979 l 217 979 l 217 555 l 754 555 l 754 979 l 876 979 l 876 0 l 754 0 l 754 446 l 217 446 l 217 0 l 95 0 m 486 -285 q 383 -259 427 -285 q 316 -189 340 -234 q 292 -87 292 -144 l 292 -80 l 379 -80 l 379 -83 q 407 -167 379 -131 q 486 -203 435 -203 q 564 -167 536 -203 q 592 -83 592 -131 l 592 -80 l 679 -80 l 679 -87 q 655 -189 679 -144 q 588 -259 631 -234 q 486 -285 545 -285 "},"Ḩ":{"ha":971,"x_min":50,"x_max":876,"o":"m 95 0 l 95 979 l 217 979 l 217 555 l 754 555 l 754 979 l 876 979 l 876 0 l 754 0 l 754 446 l 217 446 l 217 0 l 95 0 m 152 -309 q 93 -304 120 -309 q 50 -292 66 -299 l 50 -217 q 82 -225 62 -222 q 124 -229 102 -229 q 172 -220 151 -229 q 193 -188 193 -211 l 193 -186 q 172 -150 193 -161 q 113 -138 151 -138 l 81 -138 l 81 -78 l 142 14 l 217 14 l 217 0 l 174 -64 q 262 -97 228 -68 q 296 -184 296 -126 l 296 -185 q 275 -253 296 -225 q 222 -295 255 -280 q 152 -309 189 -309 "},"Ħ":{"ha":1034,"x_min":32,"x_max":1003,"o":"m 127 0 l 127 979 l 249 979 l 249 555 l 786 555 l 786 979 l 908 979 l 908 0 l 786 0 l 786 446 l 249 446 l 249 0 l 127 0 m 32 722 l 32 824 l 1003 824 l 1003 722 l 32 722 "},"I":{"ha":312,"x_min":95,"x_max":217,"o":"m 95 0 l 95 979 l 217 979 l 217 0 l 95 0 "},"İ":{"ha":312,"x_min":85,"x_max":226,"o":"m 95 0 l 95 979 l 217 979 l 217 0 l 95 0 m 155 1092 q 106 1113 127 1092 q 85 1162 85 1133 q 106 1212 85 1192 q 155 1232 127 1232 q 205 1212 185 1232 q 226 1162 226 1192 q 205 1113 226 1133 q 155 1092 185 1092 "},"Ì":{"ha":312,"x_min":-16,"x_max":217,"o":"m 95 0 l 95 979 l 217 979 l 217 0 l 95 0 m 126 1057 l -16 1253 l 105 1253 l 216 1057 l 126 1057 "},"Ȉ":{"ha":312,"x_min":-135,"x_max":320,"o":"m 95 0 l 95 979 l 217 979 l 217 0 l 95 0 m 21 1057 l -135 1253 l -14 1253 l 111 1057 l 21 1057 m 231 1057 l 88 1253 l 210 1253 l 320 1057 l 231 1057 "},"Í":{"ha":312,"x_min":95,"x_max":332,"o":"m 95 0 l 95 979 l 217 979 l 217 0 l 95 0 m 190 1057 l 100 1057 l 211 1253 l 332 1253 l 190 1057 "},"Î":{"ha":312,"x_min":-42,"x_max":354,"o":"m 95 0 l 95 979 l 217 979 l 217 0 l 95 0 m -42 1057 l 103 1253 l 209 1253 l 354 1057 l 254 1057 l 148 1205 l 163 1205 l 58 1057 l -42 1057 "},"Ǐ":{"ha":312,"x_min":-42,"x_max":354,"o":"m 95 0 l 95 979 l 217 979 l 217 0 l 95 0 m 354 1253 l 209 1057 l 103 1057 l -42 1253 l 58 1253 l 164 1105 l 149 1105 l 254 1253 l 354 1253 "},"Ï":{"ha":312,"x_min":-33,"x_max":345,"o":"m 95 0 l 95 979 l 217 979 l 217 0 l 95 0 m 35 1090 q -13 1109 7 1090 q -33 1157 -33 1129 q -13 1204 -33 1185 q 35 1224 7 1224 q 82 1204 62 1224 q 101 1157 101 1185 q 82 1109 101 1129 q 35 1090 62 1090 m 277 1090 q 231 1109 250 1090 q 211 1157 211 1129 q 231 1204 211 1185 q 277 1224 250 1224 q 325 1204 306 1224 q 345 1157 345 1185 q 325 1109 345 1129 q 277 1090 306 1090 "},"Ḯ":{"ha":312,"x_min":-20,"x_max":332,"o":"m 95 0 l 95 979 l 217 979 l 217 0 l 95 0 "},"Ĭ":{"ha":312,"x_min":-30,"x_max":342,"o":"m 95 0 l 95 979 l 217 979 l 217 0 l 95 0 m 157 1055 q 58 1079 100 1055 q -7 1145 16 1103 q -30 1242 -30 1187 l -30 1248 l 55 1248 l 55 1244 q 82 1168 55 1201 q 157 1136 109 1136 q 231 1168 204 1136 q 258 1244 258 1201 l 258 1248 l 342 1248 l 342 1242 q 320 1145 342 1187 q 255 1079 297 1103 q 157 1055 214 1055 "},"Ị":{"ha":312,"x_min":82,"x_max":230,"o":"m 95 0 l 95 979 l 217 979 l 217 0 l 95 0 m 156 -267 q 104 -245 125 -267 q 82 -193 82 -224 q 104 -141 82 -162 q 156 -119 125 -119 q 209 -141 187 -119 q 230 -193 230 -162 q 209 -245 230 -224 q 156 -267 187 -267 "},"Ȋ":{"ha":312,"x_min":-30,"x_max":342,"o":"m 95 0 l 95 979 l 217 979 l 217 0 l 95 0 m 156 1248 q 255 1224 214 1248 q 320 1158 297 1200 q 342 1061 342 1116 l 342 1055 l 258 1055 l 258 1059 q 231 1135 258 1103 q 156 1167 204 1167 q 82 1135 109 1167 q 55 1059 55 1103 l 55 1055 l -30 1055 l -30 1061 q -7 1158 -30 1116 q 57 1224 16 1200 q 156 1248 99 1248 "},"Ī":{"ha":312,"x_min":-24,"x_max":336,"o":"m 95 0 l 95 979 l 217 979 l 217 0 l 95 0 m -24 1114 l -24 1200 l 336 1200 l 336 1114 l -24 1114 "},"Ḭ":{"ha":312,"x_min":-47,"x_max":359,"o":"m 95 0 l 95 979 l 217 979 l 217 0 l 95 0 m 252 -286 q 200 -276 223 -286 q 157 -250 176 -266 l 133 -229 q 101 -204 116 -214 q 72 -193 87 -193 q 44 -214 53 -193 q 35 -278 35 -235 l 35 -285 l -47 -285 l -47 -277 q -19 -148 -47 -191 q 60 -104 9 -104 q 111 -115 88 -104 q 152 -141 133 -125 l 176 -162 q 210 -187 194 -177 q 240 -197 225 -197 q 268 -177 260 -197 q 277 -113 277 -156 l 277 -106 l 359 -106 l 359 -114 q 331 -243 359 -200 q 252 -286 302 -286 "},"Ỉ":{"ha":312,"x_min":46,"x_max":256,"o":"m 95 0 l 95 979 l 217 979 l 217 0 l 95 0 m 104 1057 l 104 1059 q 151 1102 135 1082 q 168 1140 168 1122 q 144 1174 168 1162 q 87 1186 121 1186 q 63 1185 73 1186 q 46 1183 53 1184 l 46 1252 q 77 1260 58 1257 q 119 1263 96 1263 q 214 1235 173 1263 q 256 1160 256 1207 q 239 1105 256 1131 q 189 1057 223 1080 l 104 1057 "},"Ĩ":{"ha":312,"x_min":-40,"x_max":351,"o":"m 95 0 l 95 979 l 217 979 l 217 0 l 95 0 m 248 1058 q 198 1068 220 1058 q 157 1093 175 1078 l 134 1112 q 104 1136 118 1126 q 76 1145 90 1145 q 49 1126 57 1145 q 41 1065 41 1106 l 41 1059 l -40 1059 l -40 1067 q -13 1192 -40 1150 q 64 1234 15 1234 q 112 1224 91 1234 q 151 1199 134 1215 l 175 1179 q 206 1156 191 1166 q 235 1146 221 1146 q 262 1166 254 1146 q 271 1226 271 1185 l 271 1232 l 351 1232 l 351 1225 q 324 1100 351 1141 q 248 1058 296 1058 "},"Į":{"ha":312,"x_min":3,"x_max":225,"o":"m 95 0 l 95 979 l 217 979 l 217 0 l 95 0 m 159 -320 q 81 -304 117 -320 q 24 -257 45 -288 q 3 -178 3 -225 l 3 -177 q 34 -72 3 -123 q 117 14 64 -21 l 142 14 l 142 0 l 217 0 q 140 -74 168 -35 q 113 -159 113 -113 l 113 -161 q 133 -219 113 -200 q 183 -237 154 -237 q 206 -236 195 -237 q 225 -230 216 -234 l 225 -309 q 192 -317 212 -315 q 159 -320 172 -320 "},"Ɨ":{"ha":407,"x_min":47,"x_max":359,"o":"m 142 0 l 142 979 l 264 979 l 264 0 l 142 0 m 47 437 l 47 539 l 359 539 l 359 437 l 47 437 "},"J":{"ha":688,"x_min":28,"x_max":593,"o":"m 304 -16 q 191 2 241 -16 q 107 54 142 20 q 53 132 73 87 q 29 229 33 176 l 28 239 l 151 239 l 151 232 q 173 164 155 195 q 223 115 191 134 q 304 96 256 96 q 428 143 385 96 q 471 280 471 191 l 471 979 l 593 979 l 593 279 q 558 120 593 186 q 460 19 524 54 q 304 -16 395 -16 "},"Ĵ":{"ha":688,"x_min":28,"x_max":730,"o":"m 304 -16 q 191 2 241 -16 q 107 54 142 20 q 53 132 73 87 q 29 229 33 176 l 28 239 l 151 239 l 151 232 q 173 164 155 195 q 223 115 191 134 q 304 96 256 96 q 428 143 385 96 q 471 280 471 191 l 471 979 l 593 979 l 593 279 q 558 120 593 186 q 460 19 524 54 q 304 -16 395 -16 m 334 1057 l 479 1253 l 585 1253 l 730 1057 l 630 1057 l 524 1205 l 539 1205 l 433 1057 l 334 1057 "},"Ĳ":{"ha":1000,"x_min":95,"x_max":905,"o":"m 95 0 l 95 979 l 217 979 l 217 0 l 95 0 m 616 -16 q 503 2 553 -16 q 419 54 454 20 q 365 132 385 87 q 341 229 345 176 l 340 239 l 463 239 l 463 232 q 485 164 467 195 q 535 115 503 134 q 616 96 568 96 q 740 143 697 96 q 783 280 783 191 l 783 979 l 905 979 l 905 279 q 870 120 905 186 q 772 19 836 54 q 616 -16 707 -16 "},"K":{"ha":834,"x_min":95,"x_max":825,"o":"m 207 331 l 207 498 l 221 498 l 636 979 l 789 979 l 400 537 l 394 537 l 207 331 m 95 0 l 95 979 l 217 979 l 217 0 l 95 0 m 669 0 l 315 467 l 401 553 l 825 0 l 669 0 "},"K":{"ha":834,"x_min":95,"x_max":825,"o":"m 207 331 l 394 537 l 400 537 l 789 979 l 636 979 l 221 498 l 207 498 l 207 331 m 95 0 l 217 0 l 217 979 l 95 979 l 95 0 m 669 0 l 825 0 l 401 553 l 315 467 l 669 0 "},"Ḱ":{"ha":834,"x_min":95,"x_max":825,"o":"m 207 331 l 207 498 l 221 498 l 636 979 l 789 979 l 400 537 l 394 537 l 207 331 m 95 0 l 95 979 l 217 979 l 217 0 l 95 0 m 669 0 l 315 467 l 401 553 l 825 0 l 669 0 m 452 1057 l 362 1057 l 473 1253 l 594 1253 l 452 1057 "},"Ǩ":{"ha":834,"x_min":95,"x_max":825,"o":"m 207 331 l 207 498 l 221 498 l 636 979 l 789 979 l 400 537 l 394 537 l 207 331 m 95 0 l 95 979 l 217 979 l 217 0 l 95 0 m 669 0 l 315 467 l 401 553 l 825 0 l 669 0 m 616 1253 l 471 1057 l 365 1057 l 220 1253 l 319 1253 l 426 1105 l 410 1105 l 516 1253 l 616 1253 "},"Ḳ":{"ha":834,"x_min":95,"x_max":825,"o":"m 207 331 l 207 498 l 221 498 l 636 979 l 789 979 l 400 537 l 394 537 l 207 331 m 95 0 l 95 979 l 217 979 l 217 0 l 95 0 m 669 0 l 315 467 l 401 553 l 825 0 l 669 0 m 418 -267 q 366 -245 387 -267 q 344 -193 344 -224 q 366 -141 344 -162 q 418 -119 387 -119 q 470 -141 449 -119 q 492 -193 492 -162 q 470 -245 492 -224 q 418 -267 449 -267 "},"Ḵ":{"ha":834,"x_min":95,"x_max":825,"o":"m 207 331 l 207 498 l 221 498 l 636 979 l 789 979 l 400 537 l 394 537 l 207 331 m 95 0 l 95 979 l 217 979 l 217 0 l 95 0 m 669 0 l 315 467 l 401 553 l 825 0 l 669 0 m 231 -228 l 231 -142 l 605 -142 l 605 -228 l 231 -228 "},"Ķ":{"ha":834,"x_min":95,"x_max":825,"o":"m 207 331 l 207 498 l 221 498 l 636 979 l 789 979 l 400 537 l 394 537 l 207 331 m 95 0 l 95 979 l 217 979 l 217 0 l 95 0 m 669 0 l 315 467 l 401 553 l 825 0 l 669 0 m 298 -309 l 359 -81 l 473 -81 l 374 -309 l 298 -309 "},"Ƙ":{"ha":854,"x_min":95,"x_max":846,"o":"m 207 331 l 207 498 l 221 498 l 597 912 q 648 957 623 939 q 699 982 672 974 q 756 991 726 991 q 797 988 775 991 q 836 976 818 985 l 836 866 q 801 876 818 873 q 768 878 784 878 q 720 869 741 878 q 677 836 700 859 l 400 537 l 394 537 l 207 331 m 95 0 l 95 979 l 217 979 l 217 0 l 95 0 m 690 0 l 316 467 l 401 553 l 846 0 l 690 0 "},"L":{"ha":728,"x_min":95,"x_max":689,"o":"m 95 0 l 95 979 l 217 979 l 217 110 l 689 110 l 689 0 l 95 0 "},"Ĺ":{"ha":728,"x_min":95,"x_max":689,"o":"m 95 0 l 95 979 l 217 979 l 217 110 l 689 110 l 689 0 l 95 0 m 190 1057 l 100 1057 l 211 1253 l 332 1253 l 190 1057 "},"Ḽ":{"ha":728,"x_min":95,"x_max":689,"o":"m 95 0 l 95 979 l 217 979 l 217 110 l 689 110 l 689 0 l 95 0 m 186 -286 l 338 -81 l 446 -81 l 598 -286 l 496 -286 l 385 -130 l 399 -130 l 288 -286 l 186 -286 "},"Ŀ":{"ha":728,"x_min":95,"x_max":689,"o":"m 95 0 l 95 979 l 217 979 l 217 110 l 689 110 l 689 0 l 95 0 m 597 501 l 597 500 q 587 461 597 479 q 560 433 577 444 q 521 423 543 423 l 519 423 q 481 433 498 423 q 453 461 463 444 q 443 500 443 479 l 443 501 q 453 540 443 523 q 481 568 463 557 q 519 578 498 578 l 521 578 q 560 568 543 578 q 587 540 577 557 q 597 501 597 523 "},"Ḷ":{"ha":728,"x_min":95,"x_max":689,"o":"m 95 0 l 95 979 l 217 979 l 217 110 l 689 110 l 689 0 l 95 0 m 392 -267 q 340 -245 361 -267 q 318 -193 318 -224 q 340 -141 318 -162 q 392 -119 361 -119 q 445 -141 423 -119 q 466 -193 466 -162 q 445 -245 466 -224 q 392 -267 423 -267 "},"Ḹ":{"ha":728,"x_min":-24,"x_max":689,"o":"m 95 0 l 95 979 l 217 979 l 217 110 l 689 110 l 689 0 l 95 0 m 392 -267 q 340 -245 361 -267 q 318 -193 318 -224 q 340 -141 318 -162 q 392 -119 361 -119 q 445 -141 423 -119 q 466 -193 466 -162 q 445 -245 466 -224 q 392 -267 423 -267 m -24 1114 l -24 1200 l 336 1200 l 336 1114 l -24 1114 "},"Ḻ":{"ha":728,"x_min":95,"x_max":689,"o":"m 95 0 l 95 979 l 217 979 l 217 110 l 689 110 l 689 0 l 95 0 m 205 -228 l 205 -142 l 579 -142 l 579 -228 l 205 -228 "},"Ļ":{"ha":728,"x_min":95,"x_max":689,"o":"m 95 0 l 95 979 l 217 979 l 217 110 l 689 110 l 689 0 l 95 0 m 272 -309 l 333 -81 l 447 -81 l 348 -309 l 272 -309 "},"Ľ":{"ha":728,"x_min":95,"x_max":689,"o":"m 395 705 l 445 979 l 557 979 l 469 705 l 395 705 m 95 0 l 95 979 l 217 979 l 217 110 l 689 110 l 689 0 l 95 0 "},"Ł":{"ha":743,"x_min":31,"x_max":704,"o":"m 110 0 l 110 979 l 232 979 l 232 110 l 704 110 l 704 0 l 110 0 m 507 581 l 31 343 l 31 452 l 507 690 l 507 581 "},"Ɫ":{"ha":844,"x_min":-1,"x_max":804,"o":"m 210 0 l 210 979 l 332 979 l 332 110 l 804 110 l 804 0 l 210 0 m 454 452 q 376 464 415 452 q 297 491 336 475 q 219 518 258 507 q 143 530 181 530 q 60 511 95 530 q -1 463 24 492 l -1 570 q 60 617 24 597 q 149 637 96 637 q 227 626 188 637 q 306 598 267 614 q 384 571 345 583 q 460 559 422 559 q 543 578 508 559 q 604 627 578 597 l 604 519 q 543 472 578 492 q 454 452 507 452 "},"M":{"ha":1154,"x_min":95,"x_max":1059,"o":"m 95 0 l 95 979 l 236 979 l 575 154 l 579 154 l 918 979 l 1059 979 l 1059 0 l 945 0 l 945 756 l 890 756 l 1022 951 l 629 0 l 526 0 l 132 951 l 264 756 l 209 756 l 209 0 l 95 0 "},"Ḿ":{"ha":1154,"x_min":95,"x_max":1059,"o":"m 95 0 l 95 979 l 236 979 l 575 154 l 579 154 l 918 979 l 1059 979 l 1059 0 l 945 0 l 945 756 l 890 756 l 1022 951 l 629 0 l 526 0 l 132 951 l 264 756 l 209 756 l 209 0 l 95 0 m 611 1057 l 522 1057 l 632 1253 l 753 1253 l 611 1057 "},"Ṁ":{"ha":1154,"x_min":95,"x_max":1059,"o":"m 95 0 l 95 979 l 236 979 l 575 154 l 579 154 l 918 979 l 1059 979 l 1059 0 l 945 0 l 945 756 l 890 756 l 1022 951 l 629 0 l 526 0 l 132 951 l 264 756 l 209 756 l 209 0 l 95 0 m 576 1092 q 527 1113 548 1092 q 507 1162 507 1133 q 527 1212 507 1192 q 576 1232 548 1232 q 627 1212 606 1232 q 647 1162 647 1192 q 627 1113 647 1133 q 576 1092 606 1092 "},"Ṃ":{"ha":1154,"x_min":95,"x_max":1059,"o":"m 95 0 l 95 979 l 236 979 l 575 154 l 579 154 l 918 979 l 1059 979 l 1059 0 l 945 0 l 945 756 l 890 756 l 1022 951 l 629 0 l 526 0 l 132 951 l 264 756 l 209 756 l 209 0 l 95 0 m 577 -267 q 525 -245 547 -267 q 503 -193 503 -224 q 525 -141 503 -162 q 577 -119 547 -119 q 630 -141 608 -119 q 651 -193 651 -162 q 630 -245 651 -224 q 577 -267 608 -267 "},"N":{"ha":971,"x_min":95,"x_max":876,"o":"m 95 0 l 95 979 l 214 979 l 856 57 l 701 206 l 755 206 l 755 979 l 876 979 l 876 0 l 758 0 l 115 922 l 270 772 l 216 772 l 216 0 l 95 0 "},"Ǹ":{"ha":971,"x_min":95,"x_max":876,"o":"m 95 0 l 95 979 l 214 979 l 856 57 l 701 206 l 755 206 l 755 979 l 876 979 l 876 0 l 758 0 l 115 922 l 270 772 l 216 772 l 216 0 l 95 0 m 456 1057 l 313 1253 l 435 1253 l 545 1057 l 456 1057 "},"Ń":{"ha":971,"x_min":95,"x_max":876,"o":"m 95 0 l 95 979 l 214 979 l 856 57 l 701 206 l 755 206 l 755 979 l 876 979 l 876 0 l 758 0 l 115 922 l 270 772 l 216 772 l 216 0 l 95 0 m 519 1057 l 430 1057 l 541 1253 l 662 1253 l 519 1057 "},"Ñ":{"ha":971,"x_min":95,"x_max":876,"o":"m 95 0 l 95 979 l 214 979 l 856 57 l 701 206 l 755 206 l 755 979 l 876 979 l 876 0 l 758 0 l 115 922 l 270 772 l 216 772 l 216 0 l 95 0 m 577 1058 q 527 1068 550 1058 q 487 1093 505 1078 l 463 1112 q 433 1136 448 1126 q 406 1145 419 1145 q 378 1126 387 1145 q 370 1065 370 1106 l 370 1059 l 290 1059 l 290 1067 q 317 1192 290 1150 q 393 1234 345 1234 q 442 1224 420 1234 q 481 1199 463 1215 l 505 1179 q 536 1156 521 1166 q 565 1146 551 1146 q 592 1166 584 1146 q 600 1226 600 1185 l 600 1232 l 681 1232 l 681 1225 q 653 1100 681 1141 q 577 1058 626 1058 "},"Ṇ":{"ha":971,"x_min":95,"x_max":876,"o":"m 95 0 l 95 979 l 214 979 l 856 57 l 701 206 l 755 206 l 755 979 l 876 979 l 876 0 l 758 0 l 115 922 l 270 772 l 216 772 l 216 0 l 95 0 m 486 -267 q 433 -245 455 -267 q 412 -193 412 -224 q 433 -141 412 -162 q 486 -119 455 -119 q 538 -141 517 -119 q 559 -193 559 -162 q 538 -245 559 -224 q 486 -267 517 -267 "},"Ṅ":{"ha":971,"x_min":95,"x_max":876,"o":"m 95 0 l 95 979 l 214 979 l 856 57 l 701 206 l 755 206 l 755 979 l 876 979 l 876 0 l 758 0 l 115 922 l 270 772 l 216 772 l 216 0 l 95 0 m 485 1092 q 436 1113 456 1092 q 415 1162 415 1133 q 436 1212 415 1192 q 485 1232 456 1232 q 535 1212 515 1232 q 555 1162 555 1192 q 535 1113 555 1133 q 485 1092 515 1092 "},"Ň":{"ha":971,"x_min":95,"x_max":876,"o":"m 95 0 l 95 979 l 214 979 l 856 57 l 701 206 l 755 206 l 755 979 l 876 979 l 876 0 l 758 0 l 115 922 l 270 772 l 216 772 l 216 0 l 95 0 m 684 1253 l 538 1057 l 433 1057 l 288 1253 l 387 1253 l 494 1105 l 478 1105 l 584 1253 l 684 1253 "},"Ṋ":{"ha":971,"x_min":95,"x_max":876,"o":"m 95 0 l 95 979 l 214 979 l 856 57 l 701 206 l 755 206 l 755 979 l 876 979 l 876 0 l 758 0 l 115 922 l 270 772 l 216 772 l 216 0 l 95 0 m 279 -286 l 432 -81 l 539 -81 l 692 -286 l 590 -286 l 478 -130 l 492 -130 l 381 -286 l 279 -286 "},"Ṉ":{"ha":971,"x_min":95,"x_max":876,"o":"m 95 0 l 95 979 l 214 979 l 856 57 l 701 206 l 755 206 l 755 979 l 876 979 l 876 0 l 758 0 l 115 922 l 270 772 l 216 772 l 216 0 l 95 0 m 298 -228 l 298 -142 l 673 -142 l 673 -228 l 298 -228 "},"Ņ":{"ha":971,"x_min":95,"x_max":876,"o":"m 95 0 l 95 979 l 214 979 l 856 57 l 701 206 l 755 206 l 755 979 l 876 979 l 876 0 l 758 0 l 115 922 l 270 772 l 216 772 l 216 0 l 95 0 m 366 -309 l 427 -81 l 541 -81 l 441 -309 l 366 -309 "},"Ŋ":{"ha":971,"x_min":95,"x_max":876,"o":"m 216 0 l 95 0 l 95 979 l 214 979 l 856 57 l 701 206 l 755 206 l 755 979 l 876 979 l 876 -39 q 827 -189 876 -140 q 679 -237 779 -237 q 640 -236 659 -237 q 607 -233 620 -235 l 607 -137 q 632 -139 618 -138 q 661 -140 646 -140 q 731 -115 708 -140 q 754 -39 754 -90 l 754 57 l 798 -56 l 115 922 l 270 772 l 216 772 l 216 0 "},"O":{"ha":1016,"x_min":57,"x_max":959,"o":"m 509 -16 q 268 45 370 -16 q 112 220 167 107 q 57 489 57 334 l 57 490 q 112 759 57 646 q 269 933 168 871 q 509 995 370 995 q 748 933 647 995 q 904 759 849 871 q 959 490 959 646 l 959 489 q 904 220 959 334 q 748 45 849 107 q 509 -16 648 -16 m 509 96 q 683 145 610 96 q 795 281 755 193 q 834 489 834 370 l 834 490 q 794 699 834 610 q 682 834 755 787 q 509 882 608 882 q 335 834 409 882 q 222 699 262 787 q 182 490 182 611 l 182 489 q 222 281 182 369 q 335 144 262 193 q 509 96 408 96 "},"Ö":{"ha":1016,"x_min":57,"x_max":959,"o":"m 509 -16 q 268 45 370 -16 q 112 220 167 107 q 57 489 57 334 l 57 490 q 112 759 57 646 q 269 933 168 871 q 509 995 370 995 q 748 933 647 995 q 904 759 849 871 q 959 490 959 646 l 959 489 q 904 220 959 334 q 748 45 849 107 q 509 -16 648 -16 m 509 96 q 683 145 610 96 q 795 281 755 193 q 834 489 834 370 l 834 490 q 794 699 834 610 q 682 834 755 787 q 509 882 608 882 q 335 834 409 882 q 222 699 262 787 q 182 490 182 611 l 182 489 q 222 281 182 369 q 335 144 262 193 q 509 96 408 96 m 387 1090 q 339 1109 359 1090 q 319 1157 319 1129 q 339 1204 319 1185 q 387 1224 359 1224 q 434 1204 414 1224 q 453 1157 453 1185 q 434 1109 453 1129 q 387 1090 414 1090 m 629 1090 q 583 1109 602 1090 q 563 1157 563 1129 q 583 1204 563 1185 q 629 1224 602 1224 q 677 1204 658 1224 q 696 1157 696 1185 q 677 1109 696 1129 q 629 1090 658 1090 "},"Õ":{"ha":1016,"x_min":57,"x_max":959,"o":"m 509 -16 q 268 45 370 -16 q 112 220 167 107 q 57 489 57 334 l 57 490 q 112 759 57 646 q 269 933 168 871 q 509 995 370 995 q 748 933 647 995 q 904 759 849 871 q 959 490 959 646 l 959 489 q 904 220 959 334 q 748 45 849 107 q 509 -16 648 -16 m 509 96 q 683 145 610 96 q 795 281 755 193 q 834 489 834 370 l 834 490 q 794 699 834 610 q 682 834 755 787 q 509 882 608 882 q 335 834 409 882 q 222 699 262 787 q 182 490 182 611 l 182 489 q 222 281 182 369 q 335 144 262 193 q 509 96 408 96 m 600 1058 q 550 1068 572 1058 q 509 1093 527 1078 l 486 1112 q 456 1136 470 1126 q 428 1145 441 1145 q 401 1126 409 1145 q 393 1065 393 1106 l 393 1059 l 312 1059 l 312 1067 q 339 1192 312 1150 q 416 1234 367 1234 q 464 1224 443 1234 q 503 1199 486 1215 l 527 1179 q 558 1156 543 1166 q 587 1146 573 1146 q 614 1166 606 1146 q 623 1226 623 1185 l 623 1232 l 703 1232 l 703 1225 q 676 1100 703 1141 q 600 1058 648 1058 "},"Ó":{"ha":1016,"x_min":57,"x_max":959,"o":"m 509 -16 q 268 45 370 -16 q 112 220 167 107 q 57 489 57 334 l 57 490 q 112 759 57 646 q 269 933 168 871 q 509 995 370 995 q 748 933 647 995 q 904 759 849 871 q 959 490 959 646 l 959 489 q 904 220 959 334 q 748 45 849 107 q 509 -16 648 -16 m 509 96 q 683 145 610 96 q 795 281 755 193 q 834 489 834 370 l 834 490 q 794 699 834 610 q 682 834 755 787 q 509 882 608 882 q 335 834 409 882 q 222 699 262 787 q 182 490 182 611 l 182 489 q 222 281 182 369 q 335 144 262 193 q 509 96 408 96 m 542 1057 l 452 1057 l 563 1253 l 684 1253 l 542 1057 "},"Ô":{"ha":1016,"x_min":57,"x_max":959,"o":"m 509 -16 q 268 45 370 -16 q 112 220 167 107 q 57 489 57 334 l 57 490 q 112 759 57 646 q 269 933 168 871 q 509 995 370 995 q 748 933 647 995 q 904 759 849 871 q 959 490 959 646 l 959 489 q 904 220 959 334 q 748 45 849 107 q 509 -16 648 -16 m 509 96 q 683 145 610 96 q 795 281 755 193 q 834 489 834 370 l 834 490 q 794 699 834 610 q 682 834 755 787 q 509 882 608 882 q 335 834 409 882 q 222 699 262 787 q 182 490 182 611 l 182 489 q 222 281 182 369 q 335 144 262 193 q 509 96 408 96 m 310 1057 l 455 1253 l 561 1253 l 706 1057 l 606 1057 l 500 1205 l 515 1205 l 410 1057 l 310 1057 "},"Ò":{"ha":1016,"x_min":57,"x_max":959,"o":"m 509 -16 q 268 45 370 -16 q 112 220 167 107 q 57 489 57 334 l 57 490 q 112 759 57 646 q 269 933 168 871 q 509 995 370 995 q 748 933 647 995 q 904 759 849 871 q 959 490 959 646 l 959 489 q 904 220 959 334 q 748 45 849 107 q 509 -16 648 -16 m 509 96 q 683 145 610 96 q 795 281 755 193 q 834 489 834 370 l 834 490 q 794 699 834 610 q 682 834 755 787 q 509 882 608 882 q 335 834 409 882 q 222 699 262 787 q 182 490 182 611 l 182 489 q 222 281 182 369 q 335 144 262 193 q 509 96 408 96 m 478 1057 l 336 1253 l 457 1253 l 568 1057 l 478 1057 "},"Ổ":{"ha":1016,"x_min":57,"x_max":959,"o":"m 509 -16 q 268 45 370 -16 q 112 220 167 107 q 57 489 57 334 l 57 490 q 112 759 57 646 q 269 933 168 871 q 509 995 370 995 q 748 933 647 995 q 904 759 849 871 q 959 490 959 646 l 959 489 q 904 220 959 334 q 748 45 849 107 q 509 -16 648 -16 m 509 96 q 683 145 610 96 q 795 281 755 193 q 834 489 834 370 l 834 490 q 794 699 834 610 q 682 834 755 787 q 509 882 608 882 q 335 834 409 882 q 222 699 262 787 q 182 490 182 611 l 182 489 q 222 281 182 369 q 335 144 262 193 q 509 96 408 96 "},"Ồ":{"ha":1016,"x_min":57,"x_max":959,"o":"m 509 -16 q 268 45 370 -16 q 112 220 167 107 q 57 489 57 334 l 57 490 q 112 759 57 646 q 269 933 168 871 q 509 995 370 995 q 748 933 647 995 q 904 759 849 871 q 959 490 959 646 l 959 489 q 904 220 959 334 q 748 45 849 107 q 509 -16 648 -16 m 509 96 q 683 145 610 96 q 795 281 755 193 q 834 489 834 370 l 834 490 q 794 699 834 610 q 682 834 755 787 q 509 882 608 882 q 335 834 409 882 q 222 699 262 787 q 182 490 182 611 l 182 489 q 222 281 182 369 q 335 144 262 193 q 509 96 408 96 "},"Ọ":{"ha":1016,"x_min":57,"x_max":959,"o":"m 509 -16 q 268 45 370 -16 q 112 220 167 107 q 57 489 57 334 l 57 490 q 112 759 57 646 q 269 933 168 871 q 509 995 370 995 q 748 933 647 995 q 904 759 849 871 q 959 490 959 646 l 959 489 q 904 220 959 334 q 748 45 849 107 q 509 -16 648 -16 m 509 96 q 683 145 610 96 q 795 281 755 193 q 834 489 834 370 l 834 490 q 794 699 834 610 q 682 834 755 787 q 509 882 608 882 q 335 834 409 882 q 222 699 262 787 q 182 490 182 611 l 182 489 q 222 281 182 369 q 335 144 262 193 q 509 96 408 96 m 508 -267 q 456 -245 477 -267 q 434 -193 434 -224 q 456 -141 434 -162 q 508 -119 477 -119 q 561 -141 539 -119 q 582 -193 582 -162 q 561 -245 582 -224 q 508 -267 539 -267 "},"Ȍ":{"ha":1016,"x_min":57,"x_max":959,"o":"m 509 -16 q 268 45 370 -16 q 112 220 167 107 q 57 489 57 334 l 57 490 q 112 759 57 646 q 269 933 168 871 q 509 995 370 995 q 748 933 647 995 q 904 759 849 871 q 959 490 959 646 l 959 489 q 904 220 959 334 q 748 45 849 107 q 509 -16 648 -16 m 509 96 q 683 145 610 96 q 795 281 755 193 q 834 489 834 370 l 834 490 q 794 699 834 610 q 682 834 755 787 q 509 882 608 882 q 335 834 409 882 q 222 699 262 787 q 182 490 182 611 l 182 489 q 222 281 182 369 q 335 144 262 193 q 509 96 408 96 m 373 1057 l 217 1253 l 338 1253 l 463 1057 l 373 1057 m 583 1057 l 440 1253 l 562 1253 l 672 1057 l 583 1057 "},"Ṍ":{"ha":1016,"x_min":57,"x_max":959,"o":"m 509 -16 q 268 45 370 -16 q 112 220 167 107 q 57 489 57 334 l 57 490 q 112 759 57 646 q 269 933 168 871 q 509 995 370 995 q 748 933 647 995 q 904 759 849 871 q 959 490 959 646 l 959 489 q 904 220 959 334 q 748 45 849 107 q 509 -16 648 -16 m 509 96 q 683 145 610 96 q 795 281 755 193 q 834 489 834 370 l 834 490 q 794 699 834 610 q 682 834 755 787 q 509 882 608 882 q 335 834 409 882 q 222 699 262 787 q 182 490 182 611 l 182 489 q 222 281 182 369 q 335 144 262 193 q 509 96 408 96 "},"Ṓ":{"ha":1016,"x_min":57,"x_max":959,"o":"m 509 -16 q 268 45 370 -16 q 112 220 167 107 q 57 489 57 334 l 57 490 q 112 759 57 646 q 269 933 168 871 q 509 995 370 995 q 748 933 647 995 q 904 759 849 871 q 959 490 959 646 l 959 489 q 904 220 959 334 q 748 45 849 107 q 509 -16 648 -16 m 509 96 q 683 145 610 96 q 795 281 755 193 q 834 489 834 370 l 834 490 q 794 699 834 610 q 682 834 755 787 q 509 882 608 882 q 335 834 409 882 q 222 699 262 787 q 182 490 182 611 l 182 489 q 222 281 182 369 q 335 144 262 193 q 509 96 408 96 "},"Ỗ":{"ha":1016,"x_min":57,"x_max":959,"o":"m 509 -16 q 268 45 370 -16 q 112 220 167 107 q 57 489 57 334 l 57 490 q 112 759 57 646 q 269 933 168 871 q 509 995 370 995 q 748 933 647 995 q 904 759 849 871 q 959 490 959 646 l 959 489 q 904 220 959 334 q 748 45 849 107 q 509 -16 648 -16 m 509 96 q 683 145 610 96 q 795 281 755 193 q 834 489 834 370 l 834 490 q 794 699 834 610 q 682 834 755 787 q 509 882 608 882 q 335 834 409 882 q 222 699 262 787 q 182 490 182 611 l 182 489 q 222 281 182 369 q 335 144 262 193 q 509 96 408 96 "},"Ȱ":{"ha":1016,"x_min":57,"x_max":959,"o":"m 509 -16 q 268 45 370 -16 q 112 220 167 107 q 57 489 57 334 l 57 490 q 112 759 57 646 q 269 933 168 871 q 509 995 370 995 q 748 933 647 995 q 904 759 849 871 q 959 490 959 646 l 959 489 q 904 220 959 334 q 748 45 849 107 q 509 -16 648 -16 m 509 96 q 683 145 610 96 q 795 281 755 193 q 834 489 834 370 l 834 490 q 794 699 834 610 q 682 834 755 787 q 509 882 608 882 q 335 834 409 882 q 222 699 262 787 q 182 490 182 611 l 182 489 q 222 281 182 369 q 335 144 262 193 q 509 96 408 96 "},"Ṑ":{"ha":1016,"x_min":57,"x_max":959,"o":"m 509 -16 q 268 45 370 -16 q 112 220 167 107 q 57 489 57 334 l 57 490 q 112 759 57 646 q 269 933 168 871 q 509 995 370 995 q 748 933 647 995 q 904 759 849 871 q 959 490 959 646 l 959 489 q 904 220 959 334 q 748 45 849 107 q 509 -16 648 -16 m 509 96 q 683 145 610 96 q 795 281 755 193 q 834 489 834 370 l 834 490 q 794 699 834 610 q 682 834 755 787 q 509 882 608 882 q 335 834 409 882 q 222 699 262 787 q 182 490 182 611 l 182 489 q 222 281 182 369 q 335 144 262 193 q 509 96 408 96 "},"Ǒ":{"ha":1016,"x_min":57,"x_max":959,"o":"m 509 -16 q 268 45 370 -16 q 112 220 167 107 q 57 489 57 334 l 57 490 q 112 759 57 646 q 269 933 168 871 q 509 995 370 995 q 748 933 647 995 q 904 759 849 871 q 959 490 959 646 l 959 489 q 904 220 959 334 q 748 45 849 107 q 509 -16 648 -16 m 509 96 q 683 145 610 96 q 795 281 755 193 q 834 489 834 370 l 834 490 q 794 699 834 610 q 682 834 755 787 q 509 882 608 882 q 335 834 409 882 q 222 699 262 787 q 182 490 182 611 l 182 489 q 222 281 182 369 q 335 144 262 193 q 509 96 408 96 m 706 1253 l 561 1057 l 455 1057 l 310 1253 l 410 1253 l 516 1105 l 500 1105 l 606 1253 l 706 1253 "},"Ő":{"ha":1016,"x_min":57,"x_max":959,"o":"m 509 -16 q 268 45 370 -16 q 112 220 167 107 q 57 489 57 334 l 57 490 q 112 759 57 646 q 269 933 168 871 q 509 995 370 995 q 748 933 647 995 q 904 759 849 871 q 959 490 959 646 l 959 489 q 904 220 959 334 q 748 45 849 107 q 509 -16 648 -16 m 509 96 q 683 145 610 96 q 795 281 755 193 q 834 489 834 370 l 834 490 q 794 699 834 610 q 682 834 755 787 q 509 882 608 882 q 335 834 409 882 q 222 699 262 787 q 182 490 182 611 l 182 489 q 222 281 182 369 q 335 144 262 193 q 509 96 408 96 m 436 1057 l 347 1057 l 444 1253 l 565 1253 l 436 1057 m 646 1057 l 556 1057 l 667 1253 l 788 1253 l 646 1057 "},"Ŏ":{"ha":1016,"x_min":57,"x_max":959,"o":"m 509 -16 q 268 45 370 -16 q 112 220 167 107 q 57 489 57 334 l 57 490 q 112 759 57 646 q 269 933 168 871 q 509 995 370 995 q 748 933 647 995 q 904 759 849 871 q 959 490 959 646 l 959 489 q 904 220 959 334 q 748 45 849 107 q 509 -16 648 -16 m 509 96 q 683 145 610 96 q 795 281 755 193 q 834 489 834 370 l 834 490 q 794 699 834 610 q 682 834 755 787 q 509 882 608 882 q 335 834 409 882 q 222 699 262 787 q 182 490 182 611 l 182 489 q 222 281 182 369 q 335 144 262 193 q 509 96 408 96 m 509 1055 q 410 1079 452 1055 q 345 1145 368 1103 q 322 1242 322 1187 l 322 1248 l 407 1248 l 407 1244 q 434 1168 407 1201 q 509 1136 461 1136 q 583 1168 556 1136 q 610 1244 610 1201 l 610 1248 l 694 1248 l 694 1242 q 672 1145 694 1187 q 607 1079 649 1103 q 509 1055 566 1055 "},"Ȏ":{"ha":1016,"x_min":57,"x_max":959,"o":"m 509 -16 q 268 45 370 -16 q 112 220 167 107 q 57 489 57 334 l 57 490 q 112 759 57 646 q 269 933 168 871 q 509 995 370 995 q 748 933 647 995 q 904 759 849 871 q 959 490 959 646 l 959 489 q 904 220 959 334 q 748 45 849 107 q 509 -16 648 -16 m 509 96 q 683 145 610 96 q 795 281 755 193 q 834 489 834 370 l 834 490 q 794 699 834 610 q 682 834 755 787 q 509 882 608 882 q 335 834 409 882 q 222 699 262 787 q 182 490 182 611 l 182 489 q 222 281 182 369 q 335 144 262 193 q 509 96 408 96 m 508 1248 q 607 1224 566 1248 q 672 1158 649 1200 q 694 1061 694 1116 l 694 1055 l 610 1055 l 610 1059 q 583 1135 610 1103 q 508 1167 556 1167 q 434 1135 460 1167 q 407 1059 407 1103 l 407 1055 l 322 1055 l 322 1061 q 345 1158 322 1116 q 409 1224 368 1200 q 508 1248 451 1248 "},"Ỏ":{"ha":1016,"x_min":57,"x_max":959,"o":"m 509 -16 q 268 45 370 -16 q 112 220 167 107 q 57 489 57 334 l 57 490 q 112 759 57 646 q 269 933 168 871 q 509 995 370 995 q 748 933 647 995 q 904 759 849 871 q 959 490 959 646 l 959 489 q 904 220 959 334 q 748 45 849 107 q 509 -16 648 -16 m 509 96 q 683 145 610 96 q 795 281 755 193 q 834 489 834 370 l 834 490 q 794 699 834 610 q 682 834 755 787 q 509 882 608 882 q 335 834 409 882 q 222 699 262 787 q 182 490 182 611 l 182 489 q 222 281 182 369 q 335 144 262 193 q 509 96 408 96 m 456 1057 l 456 1059 q 503 1102 487 1082 q 519 1140 519 1122 q 496 1174 519 1162 q 439 1186 473 1186 q 415 1185 425 1186 q 398 1183 405 1184 l 398 1252 q 429 1260 410 1257 q 471 1263 448 1263 q 566 1235 525 1263 q 608 1160 608 1207 q 591 1105 608 1131 q 541 1057 575 1080 l 456 1057 "},"Ȫ":{"ha":1016,"x_min":57,"x_max":959,"o":"m 509 -16 q 268 45 370 -16 q 112 220 167 107 q 57 489 57 334 l 57 490 q 112 759 57 646 q 269 933 168 871 q 509 995 370 995 q 748 933 647 995 q 904 759 849 871 q 959 490 959 646 l 959 489 q 904 220 959 334 q 748 45 849 107 q 509 -16 648 -16 m 509 96 q 683 145 610 96 q 795 281 755 193 q 834 489 834 370 l 834 490 q 794 699 834 610 q 682 834 755 787 q 509 882 608 882 q 335 834 409 882 q 222 699 262 787 q 182 490 182 611 l 182 489 q 222 281 182 369 q 335 144 262 193 q 509 96 408 96 "},"Ȭ":{"ha":1016,"x_min":57,"x_max":959,"o":"m 509 -16 q 268 45 370 -16 q 112 220 167 107 q 57 489 57 334 l 57 490 q 112 759 57 646 q 269 933 168 871 q 509 995 370 995 q 748 933 647 995 q 904 759 849 871 q 959 490 959 646 l 959 489 q 904 220 959 334 q 748 45 849 107 q 509 -16 648 -16 m 509 96 q 683 145 610 96 q 795 281 755 193 q 834 489 834 370 l 834 490 q 794 699 834 610 q 682 834 755 787 q 509 882 608 882 q 335 834 409 882 q 222 699 262 787 q 182 490 182 611 l 182 489 q 222 281 182 369 q 335 144 262 193 q 509 96 408 96 "},"Ȯ":{"ha":1016,"x_min":57,"x_max":959,"o":"m 509 -16 q 268 45 370 -16 q 112 220 167 107 q 57 489 57 334 l 57 490 q 112 759 57 646 q 269 933 168 871 q 509 995 370 995 q 748 933 647 995 q 904 759 849 871 q 959 490 959 646 l 959 489 q 904 220 959 334 q 748 45 849 107 q 509 -16 648 -16 m 509 96 q 683 145 610 96 q 795 281 755 193 q 834 489 834 370 l 834 490 q 794 699 834 610 q 682 834 755 787 q 509 882 608 882 q 335 834 409 882 q 222 699 262 787 q 182 490 182 611 l 182 489 q 222 281 182 369 q 335 144 262 193 q 509 96 408 96 m 507 1092 q 458 1113 479 1092 q 437 1162 437 1133 q 458 1212 437 1192 q 507 1232 479 1232 q 557 1212 537 1232 q 578 1162 578 1192 q 557 1113 578 1133 q 507 1092 537 1092 "},"Ộ":{"ha":1016,"x_min":57,"x_max":959,"o":"m 509 -16 q 268 45 370 -16 q 112 220 167 107 q 57 489 57 334 l 57 490 q 112 759 57 646 q 269 933 168 871 q 509 995 370 995 q 748 933 647 995 q 904 759 849 871 q 959 490 959 646 l 959 489 q 904 220 959 334 q 748 45 849 107 q 509 -16 648 -16 m 509 96 q 683 145 610 96 q 795 281 755 193 q 834 489 834 370 l 834 490 q 794 699 834 610 q 682 834 755 787 q 509 882 608 882 q 335 834 409 882 q 222 699 262 787 q 182 490 182 611 l 182 489 q 222 281 182 369 q 335 144 262 193 q 509 96 408 96 m 310 1057 l 455 1253 l 561 1253 l 706 1057 l 606 1057 l 500 1205 l 515 1205 l 410 1057 l 310 1057 m 508 -267 q 456 -245 477 -267 q 434 -193 434 -224 q 456 -141 434 -162 q 508 -119 477 -119 q 561 -141 539 -119 q 582 -193 582 -162 q 561 -245 582 -224 q 508 -267 539 -267 "},"Ố":{"ha":1016,"x_min":57,"x_max":959,"o":"m 509 -16 q 268 45 370 -16 q 112 220 167 107 q 57 489 57 334 l 57 490 q 112 759 57 646 q 269 933 168 871 q 509 995 370 995 q 748 933 647 995 q 904 759 849 871 q 959 490 959 646 l 959 489 q 904 220 959 334 q 748 45 849 107 q 509 -16 648 -16 m 509 96 q 683 145 610 96 q 795 281 755 193 q 834 489 834 370 l 834 490 q 794 699 834 610 q 682 834 755 787 q 509 882 608 882 q 335 834 409 882 q 222 699 262 787 q 182 490 182 611 l 182 489 q 222 281 182 369 q 335 144 262 193 q 509 96 408 96 "},"Ṏ":{"ha":1016,"x_min":57,"x_max":959,"o":"m 509 -16 q 268 45 370 -16 q 112 220 167 107 q 57 489 57 334 l 57 490 q 112 759 57 646 q 269 933 168 871 q 509 995 370 995 q 748 933 647 995 q 904 759 849 871 q 959 490 959 646 l 959 489 q 904 220 959 334 q 748 45 849 107 q 509 -16 648 -16 m 509 96 q 683 145 610 96 q 795 281 755 193 q 834 489 834 370 l 834 490 q 794 699 834 610 q 682 834 755 787 q 509 882 608 882 q 335 834 409 882 q 222 699 262 787 q 182 490 182 611 l 182 489 q 222 281 182 369 q 335 144 262 193 q 509 96 408 96 "},"Ō":{"ha":1016,"x_min":57,"x_max":959,"o":"m 509 -16 q 268 45 370 -16 q 112 220 167 107 q 57 489 57 334 l 57 490 q 112 759 57 646 q 269 933 168 871 q 509 995 370 995 q 748 933 647 995 q 904 759 849 871 q 959 490 959 646 l 959 489 q 904 220 959 334 q 748 45 849 107 q 509 -16 648 -16 m 509 96 q 683 145 610 96 q 795 281 755 193 q 834 489 834 370 l 834 490 q 794 699 834 610 q 682 834 755 787 q 509 882 608 882 q 335 834 409 882 q 222 699 262 787 q 182 490 182 611 l 182 489 q 222 281 182 369 q 335 144 262 193 q 509 96 408 96 m 328 1114 l 328 1200 l 688 1200 l 688 1114 l 328 1114 "},"Ǫ":{"ha":1016,"x_min":57,"x_max":959,"o":"m 509 -16 q 268 45 370 -16 q 112 220 167 107 q 57 489 57 334 l 57 490 q 112 759 57 646 q 269 933 168 871 q 509 995 370 995 q 748 933 647 995 q 904 759 849 871 q 959 490 959 646 l 959 489 q 904 220 959 334 q 748 45 849 107 q 509 -16 648 -16 m 509 96 q 683 145 610 96 q 795 281 755 193 q 834 489 834 370 l 834 490 q 794 699 834 610 q 682 834 755 787 q 509 882 608 882 q 335 834 409 882 q 222 699 262 787 q 182 490 182 611 l 182 489 q 222 281 182 369 q 335 144 262 193 q 509 96 408 96 m 564 -320 q 487 -304 522 -320 q 430 -257 451 -288 q 408 -178 408 -225 l 408 -177 q 439 -72 408 -123 q 522 14 470 -21 l 548 14 l 548 14 l 623 14 q 545 -62 572 -22 q 518 -151 518 -103 l 518 -153 q 539 -217 518 -196 q 589 -237 559 -237 q 611 -236 601 -237 q 631 -230 622 -234 l 631 -309 q 598 -317 618 -315 q 564 -320 578 -320 "},"Ǭ":{"ha":1016,"x_min":57,"x_max":959,"o":"m 509 -16 q 268 45 370 -16 q 112 220 167 107 q 57 489 57 334 l 57 490 q 112 759 57 646 q 269 933 168 871 q 509 995 370 995 q 748 933 647 995 q 904 759 849 871 q 959 490 959 646 l 959 489 q 904 220 959 334 q 748 45 849 107 q 509 -16 648 -16 m 509 96 q 683 145 610 96 q 795 281 755 193 q 834 489 834 370 l 834 490 q 794 699 834 610 q 682 834 755 787 q 509 882 608 882 q 335 834 409 882 q 222 699 262 787 q 182 490 182 611 l 182 489 q 222 281 182 369 q 335 144 262 193 q 509 96 408 96 m 564 -320 q 487 -304 522 -320 q 430 -257 451 -288 q 408 -178 408 -225 l 408 -177 q 439 -72 408 -123 q 522 14 470 -21 l 548 14 l 548 14 l 623 14 q 545 -62 572 -22 q 518 -151 518 -103 l 518 -153 q 539 -217 518 -196 q 589 -237 559 -237 q 611 -236 601 -237 q 631 -230 622 -234 l 631 -309 q 598 -317 618 -315 q 564 -320 578 -320 m 328 1114 l 328 1200 l 688 1200 l 688 1114 l 328 1114 "},"Ơ":{"ha":1016,"x_min":57,"x_max":959,"o":"m 509 -16 q 268 45 370 -16 q 112 220 167 107 q 57 489 57 334 l 57 490 q 112 759 57 646 q 269 933 168 871 q 509 995 370 995 q 748 933 647 995 q 904 759 849 871 q 959 490 959 646 l 959 489 q 904 220 959 334 q 748 45 849 107 q 509 -16 648 -16 m 509 96 q 683 145 610 96 q 795 281 755 193 q 834 489 834 370 l 834 490 q 794 699 834 610 q 682 834 755 787 q 509 882 608 882 q 335 834 409 882 q 222 699 262 787 q 182 490 182 611 l 182 489 q 222 281 182 369 q 335 144 262 193 q 509 96 408 96 m 576 935 l 508 930 l 508 995 q 644 1007 590 997 q 730 1037 699 1017 q 777 1090 762 1057 q 793 1171 791 1123 l 898 1171 q 881 1068 896 1111 q 831 997 866 1025 q 733 954 795 969 q 576 935 671 939 "},"Ợ":{"ha":1016,"x_min":57,"x_max":959,"o":"m 509 -16 q 268 45 370 -16 q 112 220 167 107 q 57 489 57 334 l 57 490 q 112 759 57 646 q 269 933 168 871 q 509 995 370 995 q 748 933 647 995 q 904 759 849 871 q 959 490 959 646 l 959 489 q 904 220 959 334 q 748 45 849 107 q 509 -16 648 -16 m 509 96 q 683 145 610 96 q 795 281 755 193 q 834 489 834 370 l 834 490 q 794 699 834 610 q 682 834 755 787 q 509 882 608 882 q 335 834 409 882 q 222 699 262 787 q 182 490 182 611 l 182 489 q 222 281 182 369 q 335 144 262 193 q 509 96 408 96 m 576 935 l 508 930 l 508 995 q 644 1007 590 997 q 730 1037 699 1017 q 777 1090 762 1057 q 793 1171 791 1123 l 898 1171 q 881 1068 896 1111 q 831 997 866 1025 q 733 954 795 969 q 576 935 671 939 m 508 -267 q 456 -245 477 -267 q 434 -193 434 -224 q 456 -141 434 -162 q 508 -119 477 -119 q 561 -141 539 -119 q 582 -193 582 -162 q 561 -245 582 -224 q 508 -267 539 -267 "},"Ở":{"ha":1016,"x_min":57,"x_max":959,"o":"m 509 -16 q 268 45 370 -16 q 112 220 167 107 q 57 489 57 334 l 57 490 q 112 759 57 646 q 269 933 168 871 q 509 995 370 995 q 748 933 647 995 q 904 759 849 871 q 959 490 959 646 l 959 489 q 904 220 959 334 q 748 45 849 107 q 509 -16 648 -16 m 509 96 q 683 145 610 96 q 795 281 755 193 q 834 489 834 370 l 834 490 q 794 699 834 610 q 682 834 755 787 q 509 882 608 882 q 335 834 409 882 q 222 699 262 787 q 182 490 182 611 l 182 489 q 222 281 182 369 q 335 144 262 193 q 509 96 408 96 m 576 935 l 508 930 l 508 995 q 644 1007 590 997 q 730 1037 699 1017 q 777 1090 762 1057 q 793 1171 791 1123 l 898 1171 q 881 1068 896 1111 q 831 997 866 1025 q 733 954 795 969 q 576 935 671 939 m 422 1057 l 422 1059 q 469 1102 453 1082 q 486 1140 486 1122 q 463 1174 486 1162 q 406 1186 439 1186 q 381 1185 391 1186 q 364 1183 371 1184 l 364 1252 q 395 1260 376 1257 q 437 1263 414 1263 q 532 1235 491 1263 q 574 1160 574 1207 q 557 1105 574 1131 q 507 1057 541 1080 l 422 1057 "},"Ỡ":{"ha":1016,"x_min":57,"x_max":959,"o":"m 509 -16 q 268 45 370 -16 q 112 220 167 107 q 57 489 57 334 l 57 490 q 112 759 57 646 q 269 933 168 871 q 509 995 370 995 q 748 933 647 995 q 904 759 849 871 q 959 490 959 646 l 959 489 q 904 220 959 334 q 748 45 849 107 q 509 -16 648 -16 m 509 96 q 683 145 610 96 q 795 281 755 193 q 834 489 834 370 l 834 490 q 794 699 834 610 q 682 834 755 787 q 509 882 608 882 q 335 834 409 882 q 222 699 262 787 q 182 490 182 611 l 182 489 q 222 281 182 369 q 335 144 262 193 q 509 96 408 96 m 580 935 l 508 933 l 508 995 q 665 1004 602 995 q 764 1034 727 1013 q 819 1088 802 1055 q 838 1171 836 1122 l 943 1171 q 924 1066 941 1109 q 867 994 907 1022 q 758 951 828 965 q 580 935 688 937 m 557 1058 q 512 1068 532 1058 q 476 1093 492 1078 l 454 1112 q 428 1136 440 1126 q 402 1145 415 1145 q 378 1126 385 1145 q 370 1065 370 1106 l 370 1059 l 296 1059 l 296 1067 q 321 1192 296 1150 q 391 1234 347 1234 q 434 1224 415 1234 q 470 1199 454 1215 l 492 1179 q 520 1156 507 1166 q 546 1146 533 1146 q 570 1166 563 1146 q 578 1226 578 1185 l 578 1232 l 652 1232 l 652 1225 q 627 1100 652 1141 q 557 1058 602 1058 "},"Ờ":{"ha":1016,"x_min":57,"x_max":959,"o":"m 509 -16 q 268 45 370 -16 q 112 220 167 107 q 57 489 57 334 l 57 490 q 112 759 57 646 q 269 933 168 871 q 509 995 370 995 q 748 933 647 995 q 904 759 849 871 q 959 490 959 646 l 959 489 q 904 220 959 334 q 748 45 849 107 q 509 -16 648 -16 m 509 96 q 683 145 610 96 q 795 281 755 193 q 834 489 834 370 l 834 490 q 794 699 834 610 q 682 834 755 787 q 509 882 608 882 q 335 834 409 882 q 222 699 262 787 q 182 490 182 611 l 182 489 q 222 281 182 369 q 335 144 262 193 q 509 96 408 96 m 576 935 l 508 930 l 508 995 q 644 1007 590 997 q 730 1037 699 1017 q 777 1090 762 1057 q 793 1171 791 1123 l 898 1171 q 881 1068 896 1111 q 831 997 866 1025 q 733 954 795 969 q 576 935 671 939 m 478 1057 l 336 1253 l 457 1253 l 568 1057 l 478 1057 "},"Ớ":{"ha":1016,"x_min":57,"x_max":959,"o":"m 509 -16 q 268 45 370 -16 q 112 220 167 107 q 57 489 57 334 l 57 490 q 112 759 57 646 q 269 933 168 871 q 509 995 370 995 q 748 933 647 995 q 904 759 849 871 q 959 490 959 646 l 959 489 q 904 220 959 334 q 748 45 849 107 q 509 -16 648 -16 m 509 96 q 683 145 610 96 q 795 281 755 193 q 834 489 834 370 l 834 490 q 794 699 834 610 q 682 834 755 787 q 509 882 608 882 q 335 834 409 882 q 222 699 262 787 q 182 490 182 611 l 182 489 q 222 281 182 369 q 335 144 262 193 q 509 96 408 96 m 576 935 l 508 930 l 508 995 q 644 1007 590 997 q 730 1037 699 1017 q 777 1090 762 1057 q 793 1171 791 1123 l 898 1171 q 881 1068 896 1111 q 831 997 866 1025 q 733 954 795 969 q 576 935 671 939 m 508 1057 l 418 1057 l 529 1253 l 650 1253 l 508 1057 "},"Ø":{"ha":1013,"x_min":53,"x_max":959,"o":"m 507 -16 q 268 45 368 -16 q 112 220 167 107 q 57 489 57 334 l 57 490 q 112 759 57 646 q 268 933 167 871 q 507 995 369 995 q 745 933 644 995 q 900 759 846 871 q 955 490 955 646 l 955 489 q 900 220 955 334 q 745 45 846 107 q 507 -16 645 -16 m 507 94 q 683 143 609 94 q 798 280 758 192 q 838 489 838 369 l 838 490 q 797 700 838 611 q 683 836 757 788 q 507 884 608 884 q 330 836 405 884 q 215 700 256 788 q 174 490 174 612 l 174 489 q 215 279 174 368 q 330 142 256 191 q 507 94 405 94 m 888 1013 l 959 954 l 123 -35 l 53 25 l 888 1013 "},"Ǿ":{"ha":1013,"x_min":53,"x_max":959,"o":"m 507 -16 q 268 45 368 -16 q 112 220 167 107 q 57 489 57 334 l 57 490 q 112 759 57 646 q 268 933 167 871 q 507 995 369 995 q 745 933 644 995 q 900 759 846 871 q 955 490 955 646 l 955 489 q 900 220 955 334 q 745 45 846 107 q 507 -16 645 -16 m 507 94 q 683 143 609 94 q 798 280 758 192 q 838 489 838 369 l 838 490 q 797 700 838 611 q 683 836 757 788 q 507 884 608 884 q 330 836 405 884 q 215 700 256 788 q 174 490 174 612 l 174 489 q 215 279 174 368 q 330 142 256 191 q 507 94 405 94 m 888 1013 l 959 954 l 123 -35 l 53 25 l 888 1013 m 540 1057 l 450 1057 l 561 1253 l 682 1253 l 540 1057 "},"Ɵ":{"ha":1016,"x_min":57,"x_max":959,"o":"m 509 -16 q 268 45 370 -16 q 112 220 167 107 q 57 489 57 334 l 57 490 q 112 759 57 646 q 269 933 168 871 q 509 995 370 995 q 748 933 647 995 q 904 759 849 871 q 959 490 959 646 l 959 489 q 904 220 959 334 q 748 45 849 107 q 509 -16 648 -16 m 509 96 q 683 145 610 96 q 795 281 755 193 q 834 489 834 370 l 834 490 q 794 699 834 610 q 682 834 755 787 q 509 882 608 882 q 335 834 409 882 q 222 699 262 787 q 182 490 182 611 l 182 489 q 222 281 182 369 q 335 144 262 193 q 509 96 408 96 m 118 448 l 118 550 l 898 550 l 898 448 l 118 448 "},"P":{"ha":802,"x_min":95,"x_max":758,"o":"m 156 349 l 156 458 l 412 458 q 575 512 517 458 q 633 663 633 567 l 633 665 q 575 816 633 762 q 412 870 517 870 l 156 870 l 156 979 l 444 979 q 606 939 536 979 q 717 829 677 900 q 758 666 758 759 l 758 665 q 717 500 758 572 q 606 389 677 429 q 444 349 536 349 l 156 349 m 95 0 l 95 979 l 217 979 l 217 0 l 95 0 "},"Ṗ":{"ha":802,"x_min":95,"x_max":758,"o":"m 156 349 l 156 458 l 412 458 q 575 512 517 458 q 633 663 633 567 l 633 665 q 575 816 633 762 q 412 870 517 870 l 156 870 l 156 979 l 444 979 q 606 939 536 979 q 717 829 677 900 q 758 666 758 759 l 758 665 q 717 500 758 572 q 606 389 677 429 q 444 349 536 349 l 156 349 m 95 0 l 95 979 l 217 979 l 217 0 l 95 0 m 342 1092 q 293 1113 313 1092 q 272 1162 272 1133 q 293 1212 272 1192 q 342 1232 313 1232 q 392 1212 372 1232 q 412 1162 412 1192 q 392 1113 412 1133 q 342 1092 372 1092 "},"Ṕ":{"ha":802,"x_min":95,"x_max":758,"o":"m 156 349 l 156 458 l 412 458 q 575 512 517 458 q 633 663 633 567 l 633 665 q 575 816 633 762 q 412 870 517 870 l 156 870 l 156 979 l 444 979 q 606 939 536 979 q 717 829 677 900 q 758 666 758 759 l 758 665 q 717 500 758 572 q 606 389 677 429 q 444 349 536 349 l 156 349 m 95 0 l 95 979 l 217 979 l 217 0 l 95 0 m 376 1057 l 287 1057 l 397 1253 l 519 1253 l 376 1057 "},"Q":{"ha":1016,"x_min":57,"x_max":959,"o":"m 509 -16 q 268 45 370 -16 q 112 220 167 107 q 57 489 57 334 l 57 490 q 112 759 57 646 q 269 933 168 871 q 509 995 370 995 q 748 933 647 995 q 904 759 849 871 q 959 490 959 646 l 959 489 q 904 220 959 334 q 748 45 849 107 q 509 -16 648 -16 m 509 96 q 682 145 610 96 q 794 281 755 193 q 833 489 833 370 l 833 490 q 794 699 833 610 q 681 834 754 787 q 509 882 608 882 q 336 834 409 882 q 222 699 262 787 q 182 490 182 611 l 182 489 q 222 281 182 369 q 335 144 262 193 q 509 96 408 96 m 774 -111 l 490 280 l 627 280 l 911 -111 l 774 -111 "},"R":{"ha":832,"x_min":95,"x_max":804,"o":"m 95 0 l 95 979 l 462 979 q 626 942 556 979 q 735 841 696 906 q 774 687 774 775 l 774 686 q 721 510 774 584 q 577 406 669 435 l 804 0 l 661 0 l 451 387 q 447 387 449 387 q 444 387 446 387 l 217 387 l 217 0 l 95 0 m 217 495 l 451 495 q 596 544 545 495 q 648 683 648 593 l 648 684 q 594 821 648 772 q 446 870 540 870 l 217 870 l 217 495 "},"Ř":{"ha":832,"x_min":95,"x_max":804,"o":"m 95 0 l 95 979 l 462 979 q 626 942 556 979 q 735 841 696 906 q 774 687 774 775 l 774 686 q 721 510 774 584 q 577 406 669 435 l 804 0 l 661 0 l 451 387 q 447 387 449 387 q 444 387 446 387 l 217 387 l 217 0 l 95 0 m 217 495 l 451 495 q 596 544 545 495 q 648 683 648 593 l 648 684 q 594 821 648 772 q 446 870 540 870 l 217 870 l 217 495 m 604 1253 l 458 1057 l 353 1057 l 208 1253 l 307 1253 l 414 1105 l 398 1105 l 504 1253 l 604 1253 "},"Ṟ":{"ha":832,"x_min":95,"x_max":804,"o":"m 95 0 l 95 979 l 462 979 q 626 942 556 979 q 735 841 696 906 q 774 687 774 775 l 774 686 q 721 510 774 584 q 577 406 669 435 l 804 0 l 661 0 l 451 387 q 447 387 449 387 q 444 387 446 387 l 217 387 l 217 0 l 95 0 m 217 495 l 451 495 q 596 544 545 495 q 648 683 648 593 l 648 684 q 594 821 648 772 q 446 870 540 870 l 217 870 l 217 495 m 237 -228 l 237 -142 l 612 -142 l 612 -228 l 237 -228 "},"Ṝ":{"ha":832,"x_min":95,"x_max":804,"o":"m 95 0 l 95 979 l 462 979 q 626 942 556 979 q 735 841 696 906 q 774 687 774 775 l 774 686 q 721 510 774 584 q 577 406 669 435 l 804 0 l 661 0 l 451 387 q 447 387 449 387 q 444 387 446 387 l 217 387 l 217 0 l 95 0 m 217 495 l 451 495 q 596 544 545 495 q 648 683 648 593 l 648 684 q 594 821 648 772 q 446 870 540 870 l 217 870 l 217 495 m 425 -267 q 372 -245 394 -267 q 351 -193 351 -224 q 372 -141 351 -162 q 425 -119 394 -119 q 477 -141 456 -119 q 498 -193 498 -162 q 477 -245 498 -224 q 425 -267 456 -267 m 225 1114 l 225 1200 l 585 1200 l 585 1114 l 225 1114 "},"Ȑ":{"ha":832,"x_min":95,"x_max":804,"o":"m 95 0 l 95 979 l 462 979 q 626 942 556 979 q 735 841 696 906 q 774 687 774 775 l 774 686 q 721 510 774 584 q 577 406 669 435 l 804 0 l 661 0 l 451 387 q 447 387 449 387 q 444 387 446 387 l 217 387 l 217 0 l 95 0 m 217 495 l 451 495 q 596 544 545 495 q 648 683 648 593 l 648 684 q 594 821 648 772 q 446 870 540 870 l 217 870 l 217 495 m 271 1057 l 115 1253 l 236 1253 l 360 1057 l 271 1057 m 480 1057 l 338 1253 l 459 1253 l 570 1057 l 480 1057 "},"Ȓ":{"ha":832,"x_min":95,"x_max":804,"o":"m 95 0 l 95 979 l 462 979 q 626 942 556 979 q 735 841 696 906 q 774 687 774 775 l 774 686 q 721 510 774 584 q 577 406 669 435 l 804 0 l 661 0 l 451 387 q 447 387 449 387 q 444 387 446 387 l 217 387 l 217 0 l 95 0 m 217 495 l 451 495 q 596 544 545 495 q 648 683 648 593 l 648 684 q 594 821 648 772 q 446 870 540 870 l 217 870 l 217 495 m 406 1248 q 505 1224 463 1248 q 569 1158 547 1200 q 592 1061 592 1116 l 592 1055 l 507 1055 l 507 1059 q 480 1135 507 1103 q 406 1167 454 1167 q 331 1135 358 1167 q 304 1059 304 1103 l 304 1055 l 220 1055 l 220 1061 q 242 1158 220 1116 q 307 1224 265 1200 q 406 1248 349 1248 "},"Ŕ":{"ha":832,"x_min":95,"x_max":804,"o":"m 95 0 l 95 979 l 462 979 q 626 942 556 979 q 735 841 696 906 q 774 687 774 775 l 774 686 q 721 510 774 584 q 577 406 669 435 l 804 0 l 661 0 l 451 387 q 447 387 449 387 q 444 387 446 387 l 217 387 l 217 0 l 95 0 m 217 495 l 451 495 q 596 544 545 495 q 648 683 648 593 l 648 684 q 594 821 648 772 q 446 870 540 870 l 217 870 l 217 495 m 439 1057 l 350 1057 l 460 1253 l 582 1253 l 439 1057 "},"Ṛ":{"ha":832,"x_min":95,"x_max":804,"o":"m 95 0 l 95 979 l 462 979 q 626 942 556 979 q 735 841 696 906 q 774 687 774 775 l 774 686 q 721 510 774 584 q 577 406 669 435 l 804 0 l 661 0 l 451 387 q 447 387 449 387 q 444 387 446 387 l 217 387 l 217 0 l 95 0 m 217 495 l 451 495 q 596 544 545 495 q 648 683 648 593 l 648 684 q 594 821 648 772 q 446 870 540 870 l 217 870 l 217 495 m 425 -267 q 372 -245 394 -267 q 351 -193 351 -224 q 372 -141 351 -162 q 425 -119 394 -119 q 477 -141 456 -119 q 498 -193 498 -162 q 477 -245 498 -224 q 425 -267 456 -267 "},"Ṙ":{"ha":832,"x_min":95,"x_max":804,"o":"m 95 0 l 95 979 l 462 979 q 626 942 556 979 q 735 841 696 906 q 774 687 774 775 l 774 686 q 721 510 774 584 q 577 406 669 435 l 804 0 l 661 0 l 451 387 q 447 387 449 387 q 444 387 446 387 l 217 387 l 217 0 l 95 0 m 217 495 l 451 495 q 596 544 545 495 q 648 683 648 593 l 648 684 q 594 821 648 772 q 446 870 540 870 l 217 870 l 217 495 m 405 1092 q 356 1113 376 1092 q 335 1162 335 1133 q 356 1212 335 1192 q 405 1232 376 1232 q 455 1212 435 1232 q 475 1162 475 1192 q 455 1113 475 1133 q 405 1092 435 1092 "},"Ŗ":{"ha":832,"x_min":95,"x_max":804,"o":"m 95 0 l 95 979 l 462 979 q 626 942 556 979 q 735 841 696 906 q 774 687 774 775 l 774 686 q 721 510 774 584 q 577 406 669 435 l 804 0 l 661 0 l 451 387 q 447 387 449 387 q 444 387 446 387 l 217 387 l 217 0 l 95 0 m 217 495 l 451 495 q 596 544 545 495 q 648 683 648 593 l 648 684 q 594 821 648 772 q 446 870 540 870 l 217 870 l 217 495 m 304 -309 l 366 -81 l 479 -81 l 380 -309 l 304 -309 "},"S":{"ha":824,"x_min":47,"x_max":777,"o":"m 415 -16 q 229 17 309 -16 q 101 111 149 50 q 48 255 54 172 l 47 264 l 170 264 l 171 255 q 211 171 178 206 q 297 116 243 135 q 422 96 351 96 q 544 116 492 96 q 624 174 595 136 q 652 261 652 211 l 652 262 q 607 365 652 326 q 461 426 562 404 l 353 450 q 195 507 257 471 q 102 596 133 543 q 72 721 72 650 l 72 722 q 117 864 73 802 q 238 960 161 925 q 416 995 316 995 q 587 961 512 995 q 708 865 663 926 q 758 724 753 804 l 759 714 l 637 714 l 635 724 q 599 809 628 774 q 523 863 570 844 q 413 882 475 882 q 299 863 348 882 q 223 808 250 843 q 197 725 197 772 l 197 724 q 217 654 197 684 q 278 602 237 623 q 383 566 319 581 l 492 543 q 655 485 592 521 q 747 396 718 449 q 777 268 777 342 l 777 267 q 733 117 777 180 q 608 18 689 53 q 415 -16 527 -16 "},"Š":{"ha":824,"x_min":47,"x_max":777,"o":"m 415 -16 q 229 17 309 -16 q 101 111 149 50 q 48 255 54 172 l 47 264 l 170 264 l 171 255 q 211 171 178 206 q 297 116 243 135 q 422 96 351 96 q 544 116 492 96 q 624 174 595 136 q 652 261 652 211 l 652 262 q 607 365 652 326 q 461 426 562 404 l 353 450 q 195 507 257 471 q 102 596 133 543 q 72 721 72 650 l 72 722 q 117 864 73 802 q 238 960 161 925 q 416 995 316 995 q 587 961 512 995 q 708 865 663 926 q 758 724 753 804 l 759 714 l 637 714 l 635 724 q 599 809 628 774 q 523 863 570 844 q 413 882 475 882 q 299 863 348 882 q 223 808 250 843 q 197 725 197 772 l 197 724 q 217 654 197 684 q 278 602 237 623 q 383 566 319 581 l 492 543 q 655 485 592 521 q 747 396 718 449 q 777 268 777 342 l 777 267 q 733 117 777 180 q 608 18 689 53 q 415 -16 527 -16 m 616 1253 l 471 1057 l 365 1057 l 220 1253 l 319 1253 l 426 1105 l 410 1105 l 516 1253 l 616 1253 "},"Ş":{"ha":824,"x_min":47,"x_max":777,"o":"m 415 -16 q 229 17 309 -16 q 101 111 149 50 q 48 255 54 172 l 47 264 l 170 264 l 171 255 q 211 171 178 206 q 297 116 243 135 q 422 96 351 96 q 544 116 492 96 q 624 174 595 136 q 652 261 652 211 l 652 262 q 607 365 652 326 q 461 426 562 404 l 353 450 q 195 507 257 471 q 102 596 133 543 q 72 721 72 650 l 72 722 q 117 864 73 802 q 238 960 161 925 q 416 995 316 995 q 587 961 512 995 q 708 865 663 926 q 758 724 753 804 l 759 714 l 637 714 l 635 724 q 599 809 628 774 q 523 863 570 844 q 413 882 475 882 q 299 863 348 882 q 223 808 250 843 q 197 725 197 772 l 197 724 q 217 654 197 684 q 278 602 237 623 q 383 566 319 581 l 492 543 q 655 485 592 521 q 747 396 718 449 q 777 268 777 342 l 777 267 q 733 117 777 180 q 608 18 689 53 q 415 -16 527 -16 m 411 -309 q 352 -304 379 -309 q 309 -292 325 -299 l 309 -217 q 341 -225 321 -222 q 383 -229 361 -229 q 431 -220 410 -229 q 452 -188 452 -211 l 452 -186 q 431 -150 452 -161 q 372 -138 410 -138 l 340 -138 l 340 -78 l 401 14 l 476 14 l 476 0 l 433 -64 q 521 -97 487 -68 q 555 -184 555 -126 l 555 -185 q 534 -253 555 -225 q 481 -295 514 -280 q 411 -309 448 -309 "},"Ṡ":{"ha":824,"x_min":47,"x_max":777,"o":"m 415 -16 q 229 17 309 -16 q 101 111 149 50 q 48 255 54 172 l 47 264 l 170 264 l 171 255 q 211 171 178 206 q 297 116 243 135 q 422 96 351 96 q 544 116 492 96 q 624 174 595 136 q 652 261 652 211 l 652 262 q 607 365 652 326 q 461 426 562 404 l 353 450 q 195 507 257 471 q 102 596 133 543 q 72 721 72 650 l 72 722 q 117 864 73 802 q 238 960 161 925 q 416 995 316 995 q 587 961 512 995 q 708 865 663 926 q 758 724 753 804 l 759 714 l 637 714 l 635 724 q 599 809 628 774 q 523 863 570 844 q 413 882 475 882 q 299 863 348 882 q 223 808 250 843 q 197 725 197 772 l 197 724 q 217 654 197 684 q 278 602 237 623 q 383 566 319 581 l 492 543 q 655 485 592 521 q 747 396 718 449 q 777 268 777 342 l 777 267 q 733 117 777 180 q 608 18 689 53 q 415 -16 527 -16 m 417 1092 q 368 1113 389 1092 q 347 1162 347 1133 q 368 1212 347 1192 q 417 1232 389 1232 q 467 1212 447 1232 q 488 1162 488 1192 q 467 1113 488 1133 q 417 1092 447 1092 "},"Ṣ":{"ha":824,"x_min":47,"x_max":777,"o":"m 415 -16 q 229 17 309 -16 q 101 111 149 50 q 48 255 54 172 l 47 264 l 170 264 l 171 255 q 211 171 178 206 q 297 116 243 135 q 422 96 351 96 q 544 116 492 96 q 624 174 595 136 q 652 261 652 211 l 652 262 q 607 365 652 326 q 461 426 562 404 l 353 450 q 195 507 257 471 q 102 596 133 543 q 72 721 72 650 l 72 722 q 117 864 73 802 q 238 960 161 925 q 416 995 316 995 q 587 961 512 995 q 708 865 663 926 q 758 724 753 804 l 759 714 l 637 714 l 635 724 q 599 809 628 774 q 523 863 570 844 q 413 882 475 882 q 299 863 348 882 q 223 808 250 843 q 197 725 197 772 l 197 724 q 217 654 197 684 q 278 602 237 623 q 383 566 319 581 l 492 543 q 655 485 592 521 q 747 396 718 449 q 777 268 777 342 l 777 267 q 733 117 777 180 q 608 18 689 53 q 415 -16 527 -16 m 418 -267 q 366 -245 387 -267 q 344 -193 344 -224 q 366 -141 344 -162 q 418 -119 387 -119 q 470 -141 449 -119 q 492 -193 492 -162 q 470 -245 492 -224 q 418 -267 449 -267 "},"Ș":{"ha":824,"x_min":47,"x_max":777,"o":"m 415 -16 q 229 17 309 -16 q 101 111 149 50 q 48 255 54 172 l 47 264 l 170 264 l 171 255 q 211 171 178 206 q 297 116 243 135 q 422 96 351 96 q 544 116 492 96 q 624 174 595 136 q 652 261 652 211 l 652 262 q 607 365 652 326 q 461 426 562 404 l 353 450 q 195 507 257 471 q 102 596 133 543 q 72 721 72 650 l 72 722 q 117 864 73 802 q 238 960 161 925 q 416 995 316 995 q 587 961 512 995 q 708 865 663 926 q 758 724 753 804 l 759 714 l 637 714 l 635 724 q 599 809 628 774 q 523 863 570 844 q 413 882 475 882 q 299 863 348 882 q 223 808 250 843 q 197 725 197 772 l 197 724 q 217 654 197 684 q 278 602 237 623 q 383 566 319 581 l 492 543 q 655 485 592 521 q 747 396 718 449 q 777 268 777 342 l 777 267 q 733 117 777 180 q 608 18 689 53 q 415 -16 527 -16 m 298 -309 l 359 -81 l 473 -81 l 374 -309 l 298 -309 "},"Ṩ":{"ha":824,"x_min":47,"x_max":777,"o":"m 415 -16 q 229 17 309 -16 q 101 111 149 50 q 48 255 54 172 l 47 264 l 170 264 l 171 255 q 211 171 178 206 q 297 116 243 135 q 422 96 351 96 q 544 116 492 96 q 624 174 595 136 q 652 261 652 211 l 652 262 q 607 365 652 326 q 461 426 562 404 l 353 450 q 195 507 257 471 q 102 596 133 543 q 72 721 72 650 l 72 722 q 117 864 73 802 q 238 960 161 925 q 416 995 316 995 q 587 961 512 995 q 708 865 663 926 q 758 724 753 804 l 759 714 l 637 714 l 635 724 q 599 809 628 774 q 523 863 570 844 q 413 882 475 882 q 299 863 348 882 q 223 808 250 843 q 197 725 197 772 l 197 724 q 217 654 197 684 q 278 602 237 623 q 383 566 319 581 l 492 543 q 655 485 592 521 q 747 396 718 449 q 777 268 777 342 l 777 267 q 733 117 777 180 q 608 18 689 53 q 415 -16 527 -16 m 418 -267 q 366 -245 387 -267 q 344 -193 344 -224 q 366 -141 344 -162 q 418 -119 387 -119 q 470 -141 449 -119 q 492 -193 492 -162 q 470 -245 492 -224 q 418 -267 449 -267 m 417 1092 q 368 1113 389 1092 q 347 1162 347 1133 q 368 1212 347 1192 q 417 1232 389 1232 q 467 1212 447 1232 q 488 1162 488 1192 q 467 1113 488 1133 q 417 1092 447 1092 "},"Ṧ":{"ha":824,"x_min":47,"x_max":777,"o":"m 415 -16 q 229 17 309 -16 q 101 111 149 50 q 48 255 54 172 l 47 264 l 170 264 l 171 255 q 211 171 178 206 q 297 116 243 135 q 422 96 351 96 q 544 116 492 96 q 624 174 595 136 q 652 261 652 211 l 652 262 q 607 365 652 326 q 461 426 562 404 l 353 450 q 195 507 257 471 q 102 596 133 543 q 72 721 72 650 l 72 722 q 117 864 73 802 q 238 960 161 925 q 416 995 316 995 q 587 961 512 995 q 708 865 663 926 q 758 724 753 804 l 759 714 l 637 714 l 635 724 q 599 809 628 774 q 523 863 570 844 q 413 882 475 882 q 299 863 348 882 q 223 808 250 843 q 197 725 197 772 l 197 724 q 217 654 197 684 q 278 602 237 623 q 383 566 319 581 l 492 543 q 655 485 592 521 q 747 396 718 449 q 777 268 777 342 l 777 267 q 733 117 777 180 q 608 18 689 53 q 415 -16 527 -16 "},"Ŝ":{"ha":824,"x_min":47,"x_max":777,"o":"m 415 -16 q 229 17 309 -16 q 101 111 149 50 q 48 255 54 172 l 47 264 l 170 264 l 171 255 q 211 171 178 206 q 297 116 243 135 q 422 96 351 96 q 544 116 492 96 q 624 174 595 136 q 652 261 652 211 l 652 262 q 607 365 652 326 q 461 426 562 404 l 353 450 q 195 507 257 471 q 102 596 133 543 q 72 721 72 650 l 72 722 q 117 864 73 802 q 238 960 161 925 q 416 995 316 995 q 587 961 512 995 q 708 865 663 926 q 758 724 753 804 l 759 714 l 637 714 l 635 724 q 599 809 628 774 q 523 863 570 844 q 413 882 475 882 q 299 863 348 882 q 223 808 250 843 q 197 725 197 772 l 197 724 q 217 654 197 684 q 278 602 237 623 q 383 566 319 581 l 492 543 q 655 485 592 521 q 747 396 718 449 q 777 268 777 342 l 777 267 q 733 117 777 180 q 608 18 689 53 q 415 -16 527 -16 m 220 1057 l 365 1253 l 471 1253 l 616 1057 l 516 1057 l 410 1205 l 425 1205 l 319 1057 l 220 1057 "},"Ṥ":{"ha":824,"x_min":47,"x_max":777,"o":"m 415 -16 q 229 17 309 -16 q 101 111 149 50 q 48 255 54 172 l 47 264 l 170 264 l 171 255 q 211 171 178 206 q 297 116 243 135 q 422 96 351 96 q 544 116 492 96 q 624 174 595 136 q 652 261 652 211 l 652 262 q 607 365 652 326 q 461 426 562 404 l 353 450 q 195 507 257 471 q 102 596 133 543 q 72 721 72 650 l 72 722 q 117 864 73 802 q 238 960 161 925 q 416 995 316 995 q 587 961 512 995 q 708 865 663 926 q 758 724 753 804 l 759 714 l 637 714 l 635 724 q 599 809 628 774 q 523 863 570 844 q 413 882 475 882 q 299 863 348 882 q 223 808 250 843 q 197 725 197 772 l 197 724 q 217 654 197 684 q 278 602 237 623 q 383 566 319 581 l 492 543 q 655 485 592 521 q 747 396 718 449 q 777 268 777 342 l 777 267 q 733 117 777 180 q 608 18 689 53 q 415 -16 527 -16 "},"Ś":{"ha":824,"x_min":47,"x_max":777,"o":"m 415 -16 q 229 17 309 -16 q 101 111 149 50 q 48 255 54 172 l 47 264 l 170 264 l 171 255 q 211 171 178 206 q 297 116 243 135 q 422 96 351 96 q 544 116 492 96 q 624 174 595 136 q 652 261 652 211 l 652 262 q 607 365 652 326 q 461 426 562 404 l 353 450 q 195 507 257 471 q 102 596 133 543 q 72 721 72 650 l 72 722 q 117 864 73 802 q 238 960 161 925 q 416 995 316 995 q 587 961 512 995 q 708 865 663 926 q 758 724 753 804 l 759 714 l 637 714 l 635 724 q 599 809 628 774 q 523 863 570 844 q 413 882 475 882 q 299 863 348 882 q 223 808 250 843 q 197 725 197 772 l 197 724 q 217 654 197 684 q 278 602 237 623 q 383 566 319 581 l 492 543 q 655 485 592 521 q 747 396 718 449 q 777 268 777 342 l 777 267 q 733 117 777 180 q 608 18 689 53 q 415 -16 527 -16 m 452 1057 l 362 1057 l 473 1253 l 594 1253 l 452 1057 "},"ẞ":{"ha":961,"x_min":96,"x_max":914,"o":"m 614 -16 q 502 -5 559 -16 q 393 28 446 7 l 393 150 q 503 110 450 123 q 610 96 555 96 q 741 142 692 96 q 789 264 789 187 l 789 265 q 765 352 789 315 q 691 413 741 389 q 564 452 641 438 l 481 467 l 481 564 l 749 861 l 797 793 q 641 860 715 838 q 491 882 566 882 q 342 852 404 882 q 250 764 281 822 q 218 621 218 705 l 218 0 l 96 0 l 96 633 q 143 828 96 747 q 280 952 191 909 q 494 995 370 995 q 608 984 548 995 q 730 951 667 972 q 854 899 792 930 l 854 808 l 563 489 l 556 558 l 630 543 q 790 486 728 522 q 884 395 853 449 q 914 267 914 341 l 914 266 q 878 116 914 179 q 774 18 841 52 q 614 -16 707 -16 "},"T":{"ha":807,"x_min":34,"x_max":773,"o":"m 342 0 l 342 869 l 34 869 l 34 979 l 773 979 l 773 869 l 465 869 l 465 0 l 342 0 "},"Ṱ":{"ha":807,"x_min":34,"x_max":773,"o":"m 342 0 l 342 869 l 34 869 l 34 979 l 773 979 l 773 869 l 465 869 l 465 0 l 342 0 m 197 -286 l 350 -81 l 457 -81 l 610 -286 l 508 -286 l 396 -130 l 410 -130 l 299 -286 l 197 -286 "},"Ṭ":{"ha":807,"x_min":34,"x_max":773,"o":"m 342 0 l 342 869 l 34 869 l 34 979 l 773 979 l 773 869 l 465 869 l 465 0 l 342 0 m 404 -267 q 351 -245 373 -267 q 330 -193 330 -224 q 351 -141 330 -162 q 404 -119 373 -119 q 456 -141 435 -119 q 477 -193 477 -162 q 456 -245 477 -224 q 404 -267 435 -267 "},"Ț":{"ha":807,"x_min":34,"x_max":773,"o":"m 342 0 l 342 869 l 34 869 l 34 979 l 773 979 l 773 869 l 465 869 l 465 0 l 342 0 m 283 -309 l 345 -81 l 458 -81 l 359 -309 l 283 -309 "},"Ṫ":{"ha":807,"x_min":34,"x_max":773,"o":"m 342 0 l 342 869 l 34 869 l 34 979 l 773 979 l 773 869 l 465 869 l 465 0 l 342 0 m 403 1092 q 354 1113 374 1092 q 333 1162 333 1133 q 354 1212 333 1192 q 403 1232 374 1232 q 453 1212 433 1232 q 473 1162 473 1192 q 453 1113 473 1133 q 403 1092 433 1092 "},"Ţ":{"ha":807,"x_min":34,"x_max":773,"o":"m 342 0 l 342 869 l 34 869 l 34 979 l 773 979 l 773 869 l 465 869 l 465 0 l 342 0 m 399 -309 q 340 -304 368 -309 q 298 -292 313 -299 l 298 -217 q 329 -225 309 -222 q 372 -229 349 -229 q 419 -220 399 -229 q 440 -188 440 -211 l 440 -186 q 419 -150 440 -161 q 360 -138 399 -138 l 329 -138 l 329 -78 l 390 14 l 465 14 l 465 0 l 422 -64 q 509 -97 475 -68 q 543 -184 543 -126 l 543 -185 q 523 -253 543 -225 q 470 -295 503 -280 q 399 -309 437 -309 "},"Ṯ":{"ha":807,"x_min":34,"x_max":773,"o":"m 342 0 l 342 869 l 34 869 l 34 979 l 773 979 l 773 869 l 465 869 l 465 0 l 342 0 m 216 -228 l 216 -142 l 591 -142 l 591 -228 l 216 -228 "},"Ť":{"ha":807,"x_min":34,"x_max":773,"o":"m 342 0 l 342 869 l 34 869 l 34 979 l 773 979 l 773 869 l 465 869 l 465 0 l 342 0 m 602 1253 l 456 1057 l 351 1057 l 205 1253 l 305 1253 l 412 1105 l 396 1105 l 502 1253 l 602 1253 "},"Ŧ":{"ha":807,"x_min":34,"x_max":773,"o":"m 342 0 l 342 869 l 34 869 l 34 979 l 773 979 l 773 869 l 465 869 l 465 0 l 342 0 m 126 437 l 126 539 l 681 539 l 681 437 l 126 437 "},"U":{"ha":967,"x_min":95,"x_max":872,"o":"m 484 -16 q 276 29 363 -16 q 142 156 189 75 q 95 343 95 237 l 95 979 l 217 979 l 217 351 q 249 219 217 276 q 340 129 280 161 q 484 96 399 96 q 628 129 569 96 q 719 219 688 161 q 750 351 750 276 l 750 979 l 872 979 l 872 343 q 826 156 872 237 q 692 29 779 75 q 484 -16 606 -16 "},"Ù":{"ha":967,"x_min":95,"x_max":872,"o":"m 484 -16 q 276 29 363 -16 q 142 156 189 75 q 95 343 95 237 l 95 979 l 217 979 l 217 351 q 249 219 217 276 q 340 129 280 161 q 484 96 399 96 q 628 129 569 96 q 719 219 688 161 q 750 351 750 276 l 750 979 l 872 979 l 872 343 q 826 156 872 237 q 692 29 779 75 q 484 -16 606 -16 m 454 1057 l 311 1253 l 433 1253 l 543 1057 l 454 1057 "},"Ȕ":{"ha":967,"x_min":95,"x_max":872,"o":"m 484 -16 q 276 29 363 -16 q 142 156 189 75 q 95 343 95 237 l 95 979 l 217 979 l 217 351 q 249 219 217 276 q 340 129 280 161 q 484 96 399 96 q 628 129 569 96 q 719 219 688 161 q 750 351 750 276 l 750 979 l 872 979 l 872 343 q 826 156 872 237 q 692 29 779 75 q 484 -16 606 -16 m 349 1057 l 193 1253 l 314 1253 l 438 1057 l 349 1057 m 558 1057 l 416 1253 l 537 1253 l 648 1057 l 558 1057 "},"Ú":{"ha":967,"x_min":95,"x_max":872,"o":"m 484 -16 q 276 29 363 -16 q 142 156 189 75 q 95 343 95 237 l 95 979 l 217 979 l 217 351 q 249 219 217 276 q 340 129 280 161 q 484 96 399 96 q 628 129 569 96 q 719 219 688 161 q 750 351 750 276 l 750 979 l 872 979 l 872 343 q 826 156 872 237 q 692 29 779 75 q 484 -16 606 -16 m 517 1057 l 428 1057 l 538 1253 l 660 1253 l 517 1057 "},"Ű":{"ha":967,"x_min":95,"x_max":872,"o":"m 484 -16 q 276 29 363 -16 q 142 156 189 75 q 95 343 95 237 l 95 979 l 217 979 l 217 351 q 249 219 217 276 q 340 129 280 161 q 484 96 399 96 q 628 129 569 96 q 719 219 688 161 q 750 351 750 276 l 750 979 l 872 979 l 872 343 q 826 156 872 237 q 692 29 779 75 q 484 -16 606 -16 m 412 1057 l 322 1057 l 419 1253 l 541 1253 l 412 1057 m 621 1057 l 532 1057 l 642 1253 l 764 1253 l 621 1057 "},"Û":{"ha":967,"x_min":95,"x_max":872,"o":"m 484 -16 q 276 29 363 -16 q 142 156 189 75 q 95 343 95 237 l 95 979 l 217 979 l 217 351 q 249 219 217 276 q 340 129 280 161 q 484 96 399 96 q 628 129 569 96 q 719 219 688 161 q 750 351 750 276 l 750 979 l 872 979 l 872 343 q 826 156 872 237 q 692 29 779 75 q 484 -16 606 -16 m 286 1057 l 431 1253 l 536 1253 l 682 1057 l 582 1057 l 475 1205 l 491 1205 l 385 1057 l 286 1057 "},"Ǔ":{"ha":967,"x_min":95,"x_max":872,"o":"m 484 -16 q 276 29 363 -16 q 142 156 189 75 q 95 343 95 237 l 95 979 l 217 979 l 217 351 q 249 219 217 276 q 340 129 280 161 q 484 96 399 96 q 628 129 569 96 q 719 219 688 161 q 750 351 750 276 l 750 979 l 872 979 l 872 343 q 826 156 872 237 q 692 29 779 75 q 484 -16 606 -16 m 682 1253 l 536 1057 l 431 1057 l 286 1253 l 385 1253 l 492 1105 l 476 1105 l 582 1253 l 682 1253 "},"Ṷ":{"ha":967,"x_min":95,"x_max":872,"o":"m 484 -16 q 276 29 363 -16 q 142 156 189 75 q 95 343 95 237 l 95 979 l 217 979 l 217 351 q 249 219 217 276 q 340 129 280 161 q 484 96 399 96 q 628 129 569 96 q 719 219 688 161 q 750 351 750 276 l 750 979 l 872 979 l 872 343 q 826 156 872 237 q 692 29 779 75 q 484 -16 606 -16 m 277 -286 l 430 -81 l 537 -81 l 690 -286 l 588 -286 l 476 -130 l 490 -130 l 379 -286 l 277 -286 "},"Ü":{"ha":967,"x_min":95,"x_max":872,"o":"m 484 -16 q 276 29 363 -16 q 142 156 189 75 q 95 343 95 237 l 95 979 l 217 979 l 217 351 q 249 219 217 276 q 340 129 280 161 q 484 96 399 96 q 628 129 569 96 q 719 219 688 161 q 750 351 750 276 l 750 979 l 872 979 l 872 343 q 826 156 872 237 q 692 29 779 75 q 484 -16 606 -16 m 362 1090 q 315 1109 334 1090 q 295 1157 295 1129 q 315 1204 295 1185 q 362 1224 334 1224 q 409 1204 390 1224 q 429 1157 429 1185 q 409 1109 429 1129 q 362 1090 390 1090 m 605 1090 q 558 1109 578 1090 q 538 1157 538 1129 q 558 1204 538 1185 q 605 1224 578 1224 q 653 1204 633 1224 q 672 1157 672 1185 q 653 1109 672 1129 q 605 1090 633 1090 "},"Ǜ":{"ha":967,"x_min":95,"x_max":872,"o":"m 484 -16 q 276 29 363 -16 q 142 156 189 75 q 95 343 95 237 l 95 979 l 217 979 l 217 351 q 249 219 217 276 q 340 129 280 161 q 484 96 399 96 q 628 129 569 96 q 719 219 688 161 q 750 351 750 276 l 750 979 l 872 979 l 872 343 q 826 156 872 237 q 692 29 779 75 q 484 -16 606 -16 "},"Ǘ":{"ha":967,"x_min":95,"x_max":872,"o":"m 484 -16 q 276 29 363 -16 q 142 156 189 75 q 95 343 95 237 l 95 979 l 217 979 l 217 351 q 249 219 217 276 q 340 129 280 161 q 484 96 399 96 q 628 129 569 96 q 719 219 688 161 q 750 351 750 276 l 750 979 l 872 979 l 872 343 q 826 156 872 237 q 692 29 779 75 q 484 -16 606 -16 "},"Ǖ":{"ha":967,"x_min":95,"x_max":872,"o":"m 484 -16 q 276 29 363 -16 q 142 156 189 75 q 95 343 95 237 l 95 979 l 217 979 l 217 351 q 249 219 217 276 q 340 129 280 161 q 484 96 399 96 q 628 129 569 96 q 719 219 688 161 q 750 351 750 276 l 750 979 l 872 979 l 872 343 q 826 156 872 237 q 692 29 779 75 q 484 -16 606 -16 "},"Ǚ":{"ha":967,"x_min":95,"x_max":872,"o":"m 484 -16 q 276 29 363 -16 q 142 156 189 75 q 95 343 95 237 l 95 979 l 217 979 l 217 351 q 249 219 217 276 q 340 129 280 161 q 484 96 399 96 q 628 129 569 96 q 719 219 688 161 q 750 351 750 276 l 750 979 l 872 979 l 872 343 q 826 156 872 237 q 692 29 779 75 q 484 -16 606 -16 "},"Ṳ":{"ha":967,"x_min":95,"x_max":872,"o":"m 484 -16 q 276 29 363 -16 q 142 156 189 75 q 95 343 95 237 l 95 979 l 217 979 l 217 351 q 249 219 217 276 q 340 129 280 161 q 484 96 399 96 q 628 129 569 96 q 719 219 688 161 q 750 351 750 276 l 750 979 l 872 979 l 872 343 q 826 156 872 237 q 692 29 779 75 q 484 -16 606 -16 m 361 -95 q 409 -115 389 -95 q 429 -163 429 -135 q 409 -212 429 -192 q 361 -231 389 -231 q 313 -212 332 -231 q 293 -163 293 -192 q 313 -115 293 -135 q 361 -95 332 -95 m 606 -95 q 654 -115 634 -95 q 674 -163 674 -135 q 654 -212 674 -192 q 606 -231 634 -231 q 557 -212 577 -231 q 538 -163 538 -192 q 557 -115 538 -135 q 606 -95 577 -95 "},"Ṵ":{"ha":967,"x_min":95,"x_max":872,"o":"m 484 -16 q 276 29 363 -16 q 142 156 189 75 q 95 343 95 237 l 95 979 l 217 979 l 217 351 q 249 219 217 276 q 340 129 280 161 q 484 96 399 96 q 628 129 569 96 q 719 219 688 161 q 750 351 750 276 l 750 979 l 872 979 l 872 343 q 826 156 872 237 q 692 29 779 75 q 484 -16 606 -16 m 580 -286 q 527 -276 551 -286 q 485 -250 504 -266 l 460 -229 q 429 -204 444 -214 q 399 -193 414 -193 q 372 -214 380 -193 q 363 -278 363 -235 l 363 -285 l 280 -285 l 280 -277 q 309 -148 280 -191 q 387 -104 337 -104 q 438 -115 416 -104 q 479 -141 460 -125 l 504 -162 q 537 -187 522 -177 q 568 -197 553 -197 q 596 -177 587 -197 q 604 -113 604 -156 l 604 -106 l 687 -106 l 687 -114 q 659 -243 687 -200 q 580 -286 630 -286 "},"Ủ":{"ha":967,"x_min":95,"x_max":872,"o":"m 484 -16 q 276 29 363 -16 q 142 156 189 75 q 95 343 95 237 l 95 979 l 217 979 l 217 351 q 249 219 217 276 q 340 129 280 161 q 484 96 399 96 q 628 129 569 96 q 719 219 688 161 q 750 351 750 276 l 750 979 l 872 979 l 872 343 q 826 156 872 237 q 692 29 779 75 q 484 -16 606 -16 m 432 1057 l 432 1059 q 479 1102 463 1082 q 495 1140 495 1122 q 472 1174 495 1162 q 415 1186 449 1186 q 390 1185 400 1186 q 374 1183 380 1184 l 374 1252 q 405 1260 385 1257 q 447 1263 424 1263 q 542 1235 500 1263 q 583 1160 583 1207 q 567 1105 583 1131 q 516 1057 551 1080 l 432 1057 "},"Ŭ":{"ha":967,"x_min":95,"x_max":872,"o":"m 484 -16 q 276 29 363 -16 q 142 156 189 75 q 95 343 95 237 l 95 979 l 217 979 l 217 351 q 249 219 217 276 q 340 129 280 161 q 484 96 399 96 q 628 129 569 96 q 719 219 688 161 q 750 351 750 276 l 750 979 l 872 979 l 872 343 q 826 156 872 237 q 692 29 779 75 q 484 -16 606 -16 m 484 1055 q 385 1079 427 1055 q 320 1145 343 1103 q 298 1242 298 1187 l 298 1248 l 382 1248 l 382 1244 q 410 1168 382 1201 q 484 1136 437 1136 q 558 1168 532 1136 q 585 1244 585 1201 l 585 1248 l 670 1248 l 670 1242 q 647 1145 670 1187 q 583 1079 625 1103 q 484 1055 541 1055 "},"Ȗ":{"ha":967,"x_min":95,"x_max":872,"o":"m 484 -16 q 276 29 363 -16 q 142 156 189 75 q 95 343 95 237 l 95 979 l 217 979 l 217 351 q 249 219 217 276 q 340 129 280 161 q 484 96 399 96 q 628 129 569 96 q 719 219 688 161 q 750 351 750 276 l 750 979 l 872 979 l 872 343 q 826 156 872 237 q 692 29 779 75 q 484 -16 606 -16 m 484 1248 q 583 1224 541 1248 q 647 1158 625 1200 q 670 1061 670 1116 l 670 1055 l 585 1055 l 585 1059 q 558 1135 585 1103 q 484 1167 532 1167 q 409 1135 436 1167 q 382 1059 382 1103 l 382 1055 l 298 1055 l 298 1061 q 320 1158 298 1116 q 385 1224 343 1200 q 484 1248 427 1248 "},"Ṹ":{"ha":967,"x_min":95,"x_max":872,"o":"m 484 -16 q 276 29 363 -16 q 142 156 189 75 q 95 343 95 237 l 95 979 l 217 979 l 217 351 q 249 219 217 276 q 340 129 280 161 q 484 96 399 96 q 628 129 569 96 q 719 219 688 161 q 750 351 750 276 l 750 979 l 872 979 l 872 343 q 826 156 872 237 q 692 29 779 75 q 484 -16 606 -16 "},"Ụ":{"ha":967,"x_min":95,"x_max":872,"o":"m 484 -16 q 276 29 363 -16 q 142 156 189 75 q 95 343 95 237 l 95 979 l 217 979 l 217 351 q 249 219 217 276 q 340 129 280 161 q 484 96 399 96 q 628 129 569 96 q 719 219 688 161 q 750 351 750 276 l 750 979 l 872 979 l 872 343 q 826 156 872 237 q 692 29 779 75 q 484 -16 606 -16 m 484 -267 q 431 -245 453 -267 q 410 -193 410 -224 q 431 -141 410 -162 q 484 -119 453 -119 q 536 -141 515 -119 q 557 -193 557 -162 q 536 -245 557 -224 q 484 -267 515 -267 "},"Ũ":{"ha":967,"x_min":95,"x_max":872,"o":"m 484 -16 q 276 29 363 -16 q 142 156 189 75 q 95 343 95 237 l 95 979 l 217 979 l 217 351 q 249 219 217 276 q 340 129 280 161 q 484 96 399 96 q 628 129 569 96 q 719 219 688 161 q 750 351 750 276 l 750 979 l 872 979 l 872 343 q 826 156 872 237 q 692 29 779 75 q 484 -16 606 -16 m 575 1058 q 525 1068 548 1058 q 485 1093 503 1078 l 461 1112 q 431 1136 446 1126 q 404 1145 417 1145 q 376 1126 385 1145 q 368 1065 368 1106 l 368 1059 l 288 1059 l 288 1067 q 315 1192 288 1150 q 391 1234 342 1234 q 440 1224 418 1234 q 479 1199 461 1215 l 503 1179 q 534 1156 519 1166 q 563 1146 549 1146 q 590 1166 582 1146 q 598 1226 598 1185 l 598 1232 l 679 1232 l 679 1225 q 651 1100 679 1141 q 575 1058 624 1058 "},"Ū":{"ha":967,"x_min":95,"x_max":872,"o":"m 484 -16 q 276 29 363 -16 q 142 156 189 75 q 95 343 95 237 l 95 979 l 217 979 l 217 351 q 249 219 217 276 q 340 129 280 161 q 484 96 399 96 q 628 129 569 96 q 719 219 688 161 q 750 351 750 276 l 750 979 l 872 979 l 872 343 q 826 156 872 237 q 692 29 779 75 q 484 -16 606 -16 m 303 1114 l 303 1200 l 663 1200 l 663 1114 l 303 1114 "},"Ṻ":{"ha":967,"x_min":95,"x_max":872,"o":"m 484 -16 q 276 29 363 -16 q 142 156 189 75 q 95 343 95 237 l 95 979 l 217 979 l 217 351 q 249 219 217 276 q 340 129 280 161 q 484 96 399 96 q 628 129 569 96 q 719 219 688 161 q 750 351 750 276 l 750 979 l 872 979 l 872 343 q 826 156 872 237 q 692 29 779 75 q 484 -16 606 -16 "},"Ů":{"ha":967,"x_min":95,"x_max":872,"o":"m 484 -16 q 276 29 363 -16 q 142 156 189 75 q 95 343 95 237 l 95 979 l 217 979 l 217 351 q 249 219 217 276 q 340 129 280 161 q 484 96 399 96 q 628 129 569 96 q 719 219 688 161 q 750 351 750 276 l 750 979 l 872 979 l 872 343 q 826 156 872 237 q 692 29 779 75 q 484 -16 606 -16 m 486 1034 q 398 1069 435 1034 q 362 1155 362 1105 l 362 1156 q 379 1217 362 1190 q 424 1260 395 1244 q 486 1276 452 1276 q 548 1260 520 1276 q 593 1217 576 1244 q 610 1156 610 1190 l 610 1155 q 573 1069 610 1105 q 486 1034 537 1034 m 486 1100 q 525 1116 509 1100 q 541 1155 541 1132 l 541 1156 q 525 1195 541 1179 q 486 1211 509 1211 q 447 1195 463 1211 q 431 1156 431 1179 l 431 1155 q 447 1116 431 1132 q 486 1100 463 1100 "},"Ų":{"ha":967,"x_min":95,"x_max":872,"o":"m 484 -16 q 276 29 363 -16 q 142 156 189 75 q 95 343 95 237 l 95 979 l 217 979 l 217 351 q 249 219 217 276 q 340 129 280 161 q 484 96 399 96 q 628 129 569 96 q 719 219 688 161 q 750 351 750 276 l 750 979 l 872 979 l 872 343 q 826 156 872 237 q 692 29 779 75 q 484 -16 606 -16 m 538 -320 q 460 -304 496 -320 q 403 -257 425 -288 q 382 -178 382 -225 l 382 -177 q 413 -72 382 -123 q 496 14 444 -21 l 522 14 l 522 14 l 596 14 q 519 -62 546 -22 q 492 -151 492 -103 l 492 -153 q 512 -217 492 -196 q 562 -237 533 -237 q 585 -236 574 -237 q 604 -230 595 -234 l 604 -309 q 571 -317 591 -315 q 538 -320 551 -320 "},"Ư":{"ha":967,"x_min":95,"x_max":1006,"o":"m 484 -16 q 276 29 363 -16 q 142 156 189 75 q 95 343 95 237 l 95 979 l 217 979 l 217 351 q 249 219 217 276 q 340 129 280 161 q 484 96 399 96 q 628 129 569 96 q 719 219 688 161 q 750 351 750 276 l 750 979 l 872 979 l 872 343 q 826 156 872 237 q 692 29 779 75 q 484 -16 606 -16 m 902 1171 l 1006 1171 q 998 1066 1006 1109 q 966 994 989 1023 q 905 947 944 966 q 806 917 866 929 l 750 905 l 750 979 q 828 999 798 986 q 874 1033 858 1011 q 896 1088 890 1054 q 902 1171 902 1122 "},"Ừ":{"ha":967,"x_min":95,"x_max":1006,"o":"m 484 -16 q 276 29 363 -16 q 142 156 189 75 q 95 343 95 237 l 95 979 l 217 979 l 217 351 q 249 219 217 276 q 340 129 280 161 q 484 96 399 96 q 628 129 569 96 q 719 219 688 161 q 750 351 750 276 l 750 979 l 872 979 l 872 343 q 826 156 872 237 q 692 29 779 75 q 484 -16 606 -16 m 902 1171 l 1006 1171 q 998 1066 1006 1109 q 966 994 989 1023 q 905 947 944 966 q 806 917 866 929 l 750 905 l 750 979 q 828 999 798 986 q 874 1033 858 1011 q 896 1088 890 1054 q 902 1171 902 1122 m 454 1057 l 311 1253 l 433 1253 l 543 1057 l 454 1057 "},"Ứ":{"ha":967,"x_min":95,"x_max":1006,"o":"m 484 -16 q 276 29 363 -16 q 142 156 189 75 q 95 343 95 237 l 95 979 l 217 979 l 217 351 q 249 219 217 276 q 340 129 280 161 q 484 96 399 96 q 628 129 569 96 q 719 219 688 161 q 750 351 750 276 l 750 979 l 872 979 l 872 343 q 826 156 872 237 q 692 29 779 75 q 484 -16 606 -16 m 902 1171 l 1006 1171 q 998 1066 1006 1109 q 966 994 989 1023 q 905 947 944 966 q 806 917 866 929 l 750 905 l 750 979 q 828 999 798 986 q 874 1033 858 1011 q 896 1088 890 1054 q 902 1171 902 1122 m 517 1057 l 428 1057 l 538 1253 l 660 1253 l 517 1057 "},"Ự":{"ha":967,"x_min":95,"x_max":1006,"o":"m 484 -16 q 276 29 363 -16 q 142 156 189 75 q 95 343 95 237 l 95 979 l 217 979 l 217 351 q 249 219 217 276 q 340 129 280 161 q 484 96 399 96 q 628 129 569 96 q 719 219 688 161 q 750 351 750 276 l 750 979 l 872 979 l 872 343 q 826 156 872 237 q 692 29 779 75 q 484 -16 606 -16 m 902 1171 l 1006 1171 q 998 1066 1006 1109 q 966 994 989 1023 q 905 947 944 966 q 806 917 866 929 l 750 905 l 750 979 q 828 999 798 986 q 874 1033 858 1011 q 896 1088 890 1054 q 902 1171 902 1122 m 484 -267 q 431 -245 453 -267 q 410 -193 410 -224 q 431 -141 410 -162 q 484 -119 453 -119 q 536 -141 515 -119 q 557 -193 557 -162 q 536 -245 557 -224 q 484 -267 515 -267 "},"Ử":{"ha":967,"x_min":95,"x_max":1006,"o":"m 484 -16 q 276 29 363 -16 q 142 156 189 75 q 95 343 95 237 l 95 979 l 217 979 l 217 351 q 249 219 217 276 q 340 129 280 161 q 484 96 399 96 q 628 129 569 96 q 719 219 688 161 q 750 351 750 276 l 750 979 l 872 979 l 872 343 q 826 156 872 237 q 692 29 779 75 q 484 -16 606 -16 m 902 1171 l 1006 1171 q 998 1066 1006 1109 q 966 994 989 1023 q 905 947 944 966 q 806 917 866 929 l 750 905 l 750 979 q 828 999 798 986 q 874 1033 858 1011 q 896 1088 890 1054 q 902 1171 902 1122 m 432 1057 l 432 1059 q 479 1102 463 1082 q 495 1140 495 1122 q 472 1174 495 1162 q 415 1186 449 1186 q 390 1185 400 1186 q 374 1183 380 1184 l 374 1252 q 405 1260 385 1257 q 447 1263 424 1263 q 542 1235 500 1263 q 583 1160 583 1207 q 567 1105 583 1131 q 516 1057 551 1080 l 432 1057 "},"Ữ":{"ha":967,"x_min":95,"x_max":1006,"o":"m 484 -16 q 276 29 363 -16 q 142 156 189 75 q 95 343 95 237 l 95 979 l 217 979 l 217 351 q 249 219 217 276 q 340 129 280 161 q 484 96 399 96 q 628 129 569 96 q 719 219 688 161 q 750 351 750 276 l 750 979 l 872 979 l 872 343 q 826 156 872 237 q 692 29 779 75 q 484 -16 606 -16 m 902 1171 l 1006 1171 q 998 1066 1006 1109 q 966 994 989 1023 q 905 947 944 966 q 806 917 866 929 l 750 905 l 750 979 q 828 999 798 986 q 874 1033 858 1011 q 896 1088 890 1054 q 902 1171 902 1122 m 580 1058 q 534 1068 555 1058 q 498 1093 514 1078 l 477 1112 q 450 1136 463 1126 q 425 1145 437 1145 q 400 1126 408 1145 q 393 1065 393 1106 l 393 1059 l 318 1059 l 318 1067 q 343 1192 318 1150 q 413 1234 369 1234 q 457 1224 437 1234 q 492 1199 476 1215 l 514 1179 q 542 1156 529 1166 q 568 1146 555 1146 q 593 1166 585 1146 q 600 1226 600 1185 l 600 1232 l 675 1232 l 675 1225 q 650 1100 675 1141 q 580 1058 625 1058 "},"V":{"ha":876,"x_min":17,"x_max":859,"o":"m 378 0 l 17 979 l 145 979 l 437 146 l 439 146 l 731 979 l 859 979 l 498 0 l 378 0 "},"Ṽ":{"ha":876,"x_min":17,"x_max":859,"o":"m 378 0 l 17 979 l 145 979 l 437 146 l 439 146 l 731 979 l 859 979 l 498 0 l 378 0 m 530 1058 q 480 1068 503 1058 q 439 1093 457 1078 l 416 1112 q 386 1136 400 1126 q 358 1145 372 1145 q 331 1126 339 1145 q 323 1065 323 1106 l 323 1059 l 242 1059 l 242 1067 q 270 1192 242 1150 q 346 1234 297 1234 q 394 1224 373 1234 q 433 1199 416 1215 l 457 1179 q 488 1156 473 1166 q 517 1146 503 1146 q 545 1166 536 1146 q 553 1226 553 1185 l 553 1232 l 633 1232 l 633 1225 q 606 1100 633 1141 q 530 1058 578 1058 "},"Ṿ":{"ha":876,"x_min":17,"x_max":859,"o":"m 378 0 l 17 979 l 145 979 l 437 146 l 439 146 l 731 979 l 859 979 l 498 0 l 378 0 m 438 -267 q 386 -245 408 -267 q 364 -193 364 -224 q 386 -141 364 -162 q 438 -119 408 -119 q 491 -141 469 -119 q 512 -193 512 -162 q 491 -245 512 -224 q 438 -267 469 -267 "},"W":{"ha":1283,"x_min":31,"x_max":1253,"o":"m 297 0 l 31 979 l 158 979 l 355 175 l 358 175 l 580 979 l 703 979 l 925 175 l 928 175 l 1125 979 l 1253 979 l 986 0 l 871 0 l 643 784 l 640 784 l 412 0 l 297 0 "},"Ẁ":{"ha":1283,"x_min":31,"x_max":1253,"o":"m 297 0 l 31 979 l 158 979 l 355 175 l 358 175 l 580 979 l 703 979 l 925 175 l 928 175 l 1125 979 l 1253 979 l 986 0 l 871 0 l 643 784 l 640 784 l 412 0 l 297 0 m 612 1057 l 469 1253 l 591 1253 l 701 1057 l 612 1057 "},"Ẃ":{"ha":1283,"x_min":31,"x_max":1253,"o":"m 297 0 l 31 979 l 158 979 l 355 175 l 358 175 l 580 979 l 703 979 l 925 175 l 928 175 l 1125 979 l 1253 979 l 986 0 l 871 0 l 643 784 l 640 784 l 412 0 l 297 0 m 675 1057 l 586 1057 l 696 1253 l 818 1253 l 675 1057 "},"Ẇ":{"ha":1283,"x_min":31,"x_max":1253,"o":"m 297 0 l 31 979 l 158 979 l 355 175 l 358 175 l 580 979 l 703 979 l 925 175 l 928 175 l 1125 979 l 1253 979 l 986 0 l 871 0 l 643 784 l 640 784 l 412 0 l 297 0 m 641 1092 q 592 1113 612 1092 q 571 1162 571 1133 q 592 1212 571 1192 q 641 1232 612 1232 q 691 1212 671 1232 q 711 1162 711 1192 q 691 1113 711 1133 q 641 1092 671 1092 "},"Ẉ":{"ha":1283,"x_min":31,"x_max":1253,"o":"m 297 0 l 31 979 l 158 979 l 355 175 l 358 175 l 580 979 l 703 979 l 925 175 l 928 175 l 1125 979 l 1253 979 l 986 0 l 871 0 l 643 784 l 640 784 l 412 0 l 297 0 m 642 -267 q 589 -245 611 -267 q 568 -193 568 -224 q 589 -141 568 -162 q 642 -119 611 -119 q 694 -141 673 -119 q 715 -193 715 -162 q 694 -245 715 -224 q 642 -267 673 -267 "},"Ẅ":{"ha":1283,"x_min":31,"x_max":1253,"o":"m 297 0 l 31 979 l 158 979 l 355 175 l 358 175 l 580 979 l 703 979 l 925 175 l 928 175 l 1125 979 l 1253 979 l 986 0 l 871 0 l 643 784 l 640 784 l 412 0 l 297 0 m 520 1090 q 473 1109 492 1090 q 453 1157 453 1129 q 473 1204 453 1185 q 520 1224 492 1224 q 567 1204 548 1224 q 587 1157 587 1185 q 567 1109 587 1129 q 520 1090 548 1090 m 763 1090 q 716 1109 736 1090 q 696 1157 696 1129 q 716 1204 696 1185 q 763 1224 736 1224 q 811 1204 791 1224 q 830 1157 830 1185 q 811 1109 830 1129 q 763 1090 791 1090 "},"Ŵ":{"ha":1283,"x_min":31,"x_max":1253,"o":"m 297 0 l 31 979 l 158 979 l 355 175 l 358 175 l 580 979 l 703 979 l 925 175 l 928 175 l 1125 979 l 1253 979 l 986 0 l 871 0 l 643 784 l 640 784 l 412 0 l 297 0 m 444 1057 l 589 1253 l 694 1253 l 840 1057 l 740 1057 l 633 1205 l 649 1205 l 543 1057 l 444 1057 "},"X":{"ha":882,"x_min":31,"x_max":851,"o":"m 31 0 l 393 534 l 364 440 l 364 494 l 35 979 l 182 979 l 444 585 l 499 585 l 418 541 l 712 979 l 851 979 l 513 488 l 513 434 l 484 528 l 844 0 l 697 0 l 437 391 l 381 391 l 462 433 l 169 0 l 31 0 "},"Ẋ":{"ha":882,"x_min":31,"x_max":851,"o":"m 31 0 l 393 534 l 364 440 l 364 494 l 35 979 l 182 979 l 444 585 l 499 585 l 418 541 l 712 979 l 851 979 l 513 488 l 513 434 l 484 528 l 844 0 l 697 0 l 437 391 l 381 391 l 462 433 l 169 0 l 31 0 m 446 1092 q 396 1113 417 1092 q 376 1162 376 1133 q 396 1212 376 1192 q 446 1232 417 1232 q 496 1212 475 1232 q 516 1162 516 1192 q 496 1113 516 1133 q 446 1092 475 1092 "},"Ẍ":{"ha":882,"x_min":31,"x_max":851,"o":"m 31 0 l 393 534 l 364 440 l 364 494 l 35 979 l 182 979 l 444 585 l 499 585 l 418 541 l 712 979 l 851 979 l 513 488 l 513 434 l 484 528 l 844 0 l 697 0 l 437 391 l 381 391 l 462 433 l 169 0 l 31 0 m 325 1090 q 277 1109 297 1090 q 258 1157 258 1129 q 277 1204 258 1185 q 325 1224 297 1224 q 372 1204 353 1224 q 391 1157 391 1185 q 372 1109 391 1129 q 325 1090 353 1090 m 568 1090 q 521 1109 541 1090 q 501 1157 501 1129 q 521 1204 501 1185 q 568 1224 541 1224 q 615 1204 596 1224 q 635 1157 635 1185 q 615 1109 635 1129 q 568 1090 596 1090 "},"Y":{"ha":850,"x_min":17,"x_max":833,"o":"m 364 0 l 364 421 l 17 979 l 156 979 l 423 539 l 427 539 l 694 979 l 833 979 l 486 421 l 486 0 l 364 0 "},"Ỳ":{"ha":850,"x_min":17,"x_max":833,"o":"m 364 0 l 364 421 l 17 979 l 156 979 l 423 539 l 427 539 l 694 979 l 833 979 l 486 421 l 486 0 l 364 0 m 395 1057 l 253 1253 l 374 1253 l 485 1057 l 395 1057 "},"Ý":{"ha":850,"x_min":17,"x_max":833,"o":"m 364 0 l 364 421 l 17 979 l 156 979 l 423 539 l 427 539 l 694 979 l 833 979 l 486 421 l 486 0 l 364 0 m 459 1057 l 370 1057 l 480 1253 l 602 1253 l 459 1057 "},"Ẏ":{"ha":850,"x_min":17,"x_max":833,"o":"m 364 0 l 364 421 l 17 979 l 156 979 l 423 539 l 427 539 l 694 979 l 833 979 l 486 421 l 486 0 l 364 0 m 425 1092 q 375 1113 396 1092 q 355 1162 355 1133 q 375 1212 355 1192 q 425 1232 396 1232 q 475 1212 454 1232 q 495 1162 495 1192 q 475 1113 495 1133 q 425 1092 454 1092 "},"Ỵ":{"ha":850,"x_min":17,"x_max":833,"o":"m 364 0 l 364 421 l 17 979 l 156 979 l 423 539 l 427 539 l 694 979 l 833 979 l 486 421 l 486 0 l 364 0 m 425 -267 q 373 -245 395 -267 q 351 -193 351 -224 q 373 -141 351 -162 q 425 -119 395 -119 q 478 -141 456 -119 q 499 -193 499 -162 q 478 -245 499 -224 q 425 -267 456 -267 "},"Ÿ":{"ha":850,"x_min":17,"x_max":833,"o":"m 364 0 l 364 421 l 17 979 l 156 979 l 423 539 l 427 539 l 694 979 l 833 979 l 486 421 l 486 0 l 364 0 m 304 1090 q 256 1109 276 1090 q 237 1157 237 1129 q 256 1204 237 1185 q 304 1224 276 1224 q 351 1204 332 1224 q 370 1157 370 1185 q 351 1109 370 1129 q 304 1090 332 1090 m 547 1090 q 500 1109 519 1090 q 480 1157 480 1129 q 500 1204 480 1185 q 547 1224 519 1224 q 594 1204 575 1224 q 614 1157 614 1185 q 594 1109 614 1129 q 547 1090 575 1090 "},"Ỹ":{"ha":850,"x_min":17,"x_max":833,"o":"m 364 0 l 364 421 l 17 979 l 156 979 l 423 539 l 427 539 l 694 979 l 833 979 l 486 421 l 486 0 l 364 0 m 517 1058 q 467 1068 490 1058 q 427 1093 444 1078 l 403 1112 q 373 1136 387 1126 q 345 1145 359 1145 q 318 1126 326 1145 q 310 1065 310 1106 l 310 1059 l 229 1059 l 229 1067 q 257 1192 229 1150 q 333 1234 284 1234 q 381 1224 360 1234 q 420 1199 403 1215 l 444 1179 q 475 1156 460 1166 q 505 1146 490 1146 q 532 1166 524 1146 q 540 1226 540 1185 l 540 1232 l 621 1232 l 621 1225 q 593 1100 621 1141 q 517 1058 566 1058 "},"Ŷ":{"ha":850,"x_min":17,"x_max":833,"o":"m 364 0 l 364 421 l 17 979 l 156 979 l 423 539 l 427 539 l 694 979 l 833 979 l 486 421 l 486 0 l 364 0 m 227 1057 l 372 1253 l 478 1253 l 623 1057 l 524 1057 l 417 1205 l 433 1205 l 327 1057 l 227 1057 "},"Ȳ":{"ha":850,"x_min":17,"x_max":833,"o":"m 364 0 l 364 421 l 17 979 l 156 979 l 423 539 l 427 539 l 694 979 l 833 979 l 486 421 l 486 0 l 364 0 m 245 1114 l 245 1200 l 605 1200 l 605 1114 l 245 1114 "},"Ỷ":{"ha":850,"x_min":17,"x_max":833,"o":"m 364 0 l 364 421 l 17 979 l 156 979 l 423 539 l 427 539 l 694 979 l 833 979 l 486 421 l 486 0 l 364 0 m 374 1057 l 374 1059 q 420 1102 404 1082 q 437 1140 437 1122 q 414 1174 437 1162 q 357 1186 391 1186 q 332 1185 342 1186 q 315 1183 322 1184 l 315 1252 q 346 1260 327 1257 q 389 1263 366 1263 q 484 1235 442 1263 q 525 1160 525 1207 q 509 1105 525 1131 q 458 1057 492 1080 l 374 1057 "},"⅄":{"ha":850,"x_min":17,"x_max":833,"o":"m 486 979 l 486 557 l 833 0 l 694 0 l 427 439 l 423 439 l 156 0 l 17 0 l 364 557 l 364 979 l 486 979 "},"Z":{"ha":857,"x_min":66,"x_max":790,"o":"m 66 0 l 66 87 l 626 866 l 626 869 l 85 869 l 85 979 l 779 979 l 779 892 l 222 113 l 222 110 l 790 110 l 790 0 l 66 0 "},"Ź":{"ha":857,"x_min":66,"x_max":790,"o":"m 66 0 l 66 87 l 626 866 l 626 869 l 85 869 l 85 979 l 779 979 l 779 892 l 222 113 l 222 110 l 790 110 l 790 0 l 66 0 m 463 1057 l 373 1057 l 484 1253 l 605 1253 l 463 1057 "},"Ž":{"ha":857,"x_min":66,"x_max":790,"o":"m 66 0 l 66 87 l 626 866 l 626 869 l 85 869 l 85 979 l 779 979 l 779 892 l 222 113 l 222 110 l 790 110 l 790 0 l 66 0 m 627 1253 l 481 1057 l 376 1057 l 231 1253 l 330 1253 l 437 1105 l 421 1105 l 527 1253 l 627 1253 "},"Ẑ":{"ha":857,"x_min":66,"x_max":790,"o":"m 66 0 l 66 87 l 626 866 l 626 869 l 85 869 l 85 979 l 779 979 l 779 892 l 222 113 l 222 110 l 790 110 l 790 0 l 66 0 m 231 1057 l 376 1253 l 481 1253 l 627 1057 l 527 1057 l 420 1205 l 436 1205 l 330 1057 l 231 1057 "},"Ẕ":{"ha":857,"x_min":66,"x_max":790,"o":"m 66 0 l 66 87 l 626 866 l 626 869 l 85 869 l 85 979 l 779 979 l 779 892 l 222 113 l 222 110 l 790 110 l 790 0 l 66 0 m 241 -228 l 241 -142 l 616 -142 l 616 -228 l 241 -228 "},"Ẓ":{"ha":857,"x_min":66,"x_max":790,"o":"m 66 0 l 66 87 l 626 866 l 626 869 l 85 869 l 85 979 l 779 979 l 779 892 l 222 113 l 222 110 l 790 110 l 790 0 l 66 0 m 429 -267 q 376 -245 398 -267 q 355 -193 355 -224 q 376 -141 355 -162 q 429 -119 398 -119 q 481 -141 460 -119 q 503 -193 503 -162 q 481 -245 503 -224 q 429 -267 460 -267 "},"Ż":{"ha":857,"x_min":66,"x_max":790,"o":"m 66 0 l 66 87 l 626 866 l 626 869 l 85 869 l 85 979 l 779 979 l 779 892 l 222 113 l 222 110 l 790 110 l 790 0 l 66 0 m 428 1092 q 379 1113 399 1092 q 358 1162 358 1133 q 379 1212 358 1192 q 428 1232 399 1232 q 478 1212 458 1232 q 498 1162 498 1192 q 478 1113 498 1133 q 428 1092 458 1092 "},"Æ":{"ha":1311,"x_min":3,"x_max":1245,"o":"m 3 0 l 488 979 l 716 979 l 716 876 l 563 876 l 129 0 l 3 0 m 216 311 l 265 415 l 716 415 l 716 311 l 216 311 m 652 0 l 652 979 l 1245 979 l 1245 869 l 774 869 l 774 548 l 1220 548 l 1220 439 l 774 439 l 774 110 l 1245 110 l 1245 0 l 652 0 "},"Ǣ":{"ha":1311,"x_min":3,"x_max":1245,"o":"m 3 0 l 488 979 l 716 979 l 716 876 l 563 876 l 129 0 l 3 0 m 216 311 l 265 415 l 716 415 l 716 311 l 216 311 m 652 0 l 652 979 l 1245 979 l 1245 869 l 774 869 l 774 548 l 1220 548 l 1220 439 l 774 439 l 774 110 l 1245 110 l 1245 0 l 652 0 m 677 1114 l 677 1200 l 1037 1200 l 1037 1114 l 677 1114 "},"Ǽ":{"ha":1311,"x_min":3,"x_max":1245,"o":"m 3 0 l 488 979 l 716 979 l 716 876 l 563 876 l 129 0 l 3 0 m 216 311 l 265 415 l 716 415 l 716 311 l 216 311 m 652 0 l 652 979 l 1245 979 l 1245 869 l 774 869 l 774 548 l 1220 548 l 1220 439 l 774 439 l 774 110 l 1245 110 l 1245 0 l 652 0 m 891 1057 l 802 1057 l 912 1253 l 1034 1253 l 891 1057 "},"Œ":{"ha":1503,"x_min":57,"x_max":1437,"o":"m 513 -16 q 271 45 373 -16 q 113 220 168 107 q 57 488 57 333 l 57 490 q 113 758 57 645 q 271 933 168 871 q 513 995 373 995 q 648 975 586 995 q 761 918 711 956 q 844 827 810 881 l 844 827 l 844 979 l 1437 979 l 1437 869 l 966 869 l 966 555 l 1411 555 l 1411 446 l 966 446 l 966 110 l 1437 110 l 1437 0 l 844 0 l 844 155 l 844 155 q 760 62 810 100 q 647 4 710 24 q 513 -16 585 -16 m 513 96 q 688 144 614 96 q 802 280 762 193 q 842 488 842 368 l 842 490 q 802 698 842 610 q 688 834 762 786 q 513 882 614 882 q 337 834 412 882 q 222 699 262 787 q 182 490 182 610 l 182 488 q 222 280 182 368 q 337 144 262 193 q 513 96 412 96 "},"Þ":{"ha":836,"x_min":109,"x_max":770,"o":"m 179 234 l 179 342 l 449 342 q 589 386 534 342 q 645 516 645 429 l 645 517 q 589 647 645 604 q 449 690 534 690 l 179 690 l 179 798 l 484 798 q 624 765 558 798 q 729 670 689 732 q 770 517 770 607 l 770 516 q 729 364 770 427 q 623 267 688 300 q 482 234 557 234 l 179 234 m 109 0 l 109 979 l 231 979 l 231 0 l 109 0 "},"Ɣ":{"ha":749,"x_min":17,"x_max":732,"o":"m 375 -16 q 286 4 324 -16 q 225 56 247 23 q 204 132 204 90 l 204 133 q 219 219 204 178 q 259 305 234 260 l 345 457 l 345 351 l 17 979 l 146 979 l 398 464 l 351 464 l 604 979 l 732 979 l 405 351 l 405 457 l 490 305 q 530 219 515 260 q 545 133 545 178 l 545 132 q 524 56 545 90 q 464 4 503 23 q 375 -16 426 -16 m 374 77 q 420 94 401 77 q 439 142 439 111 l 439 143 q 428 195 439 165 q 385 281 416 224 l 353 341 l 396 341 l 364 281 q 321 195 333 224 q 310 143 310 165 l 310 142 q 329 94 310 111 q 374 77 347 77 "},"Ǳ":{"ha":1799,"x_min":95,"x_max":1733,"o":"m 95 0 l 95 979 l 424 979 q 672 921 569 979 q 830 754 775 863 q 886 491 886 645 l 886 490 q 831 226 886 336 q 673 58 776 116 q 424 0 570 0 l 95 0 m 217 110 l 416 110 q 604 154 527 110 q 721 282 681 198 q 761 488 761 367 l 761 490 q 721 696 761 612 q 604 825 681 781 q 416 869 527 869 l 217 869 l 217 110 m 1009 0 l 1009 87 l 1569 866 l 1569 869 l 1028 869 l 1028 979 l 1721 979 l 1721 892 l 1164 113 l 1164 110 l 1733 110 l 1733 0 l 1009 0 "},"Ǆ":{"ha":1799,"x_min":95,"x_max":1733,"o":"m 95 0 l 95 979 l 424 979 q 672 921 569 979 q 830 754 775 863 q 886 491 886 645 l 886 490 q 831 226 886 336 q 673 58 776 116 q 424 0 570 0 l 95 0 m 217 110 l 416 110 q 604 154 527 110 q 721 282 681 198 q 761 488 761 367 l 761 490 q 721 696 761 612 q 604 825 681 781 q 416 869 527 869 l 217 869 l 217 110 m 1009 0 l 1009 87 l 1569 866 l 1569 869 l 1028 869 l 1028 979 l 1721 979 l 1721 892 l 1164 113 l 1164 110 l 1733 110 l 1733 0 l 1009 0 m 1569 1253 l 1424 1057 l 1318 1057 l 1173 1253 l 1273 1253 l 1379 1105 l 1364 1105 l 1470 1253 l 1569 1253 "},"Ǉ":{"ha":1416,"x_min":95,"x_max":1321,"o":"m 95 0 l 95 979 l 217 979 l 217 110 l 689 110 l 689 0 l 95 0 m 1033 -16 q 920 2 969 -16 q 836 54 870 20 q 781 132 801 87 q 758 229 762 176 l 757 239 l 879 239 l 880 232 q 901 164 884 195 q 951 115 919 134 q 1032 96 984 96 q 1156 143 1114 96 q 1199 280 1199 191 l 1199 979 l 1321 979 l 1321 279 q 1287 120 1321 186 q 1188 19 1253 54 q 1033 -16 1124 -16 "},"Ǌ":{"ha":1659,"x_min":95,"x_max":1564,"o":"m 95 0 l 95 979 l 214 979 l 856 57 l 701 206 l 755 206 l 755 979 l 876 979 l 876 0 l 758 0 l 115 922 l 270 772 l 216 772 l 216 0 l 95 0 m 1276 -16 q 1162 2 1212 -16 q 1078 54 1113 20 q 1024 132 1044 87 q 1000 229 1004 176 l 1000 239 l 1122 239 l 1122 232 q 1144 164 1126 195 q 1194 115 1162 134 q 1275 96 1227 96 q 1399 143 1356 96 q 1442 280 1442 191 l 1442 979 l 1564 979 l 1564 279 q 1530 120 1564 186 q 1431 19 1495 54 q 1276 -16 1367 -16 "},"Α":{"ha":882,"x_min":17,"x_max":865,"o":"m 17 0 l 381 979 l 471 979 l 471 832 l 440 832 l 145 0 l 17 0 m 184 280 l 224 384 l 659 384 l 699 280 l 184 280 m 737 0 l 443 832 l 443 979 l 502 979 l 865 0 l 737 0 "},"Β":{"ha":840,"x_min":95,"x_max":796,"o":"m 156 0 l 156 108 l 446 108 q 613 152 556 108 q 671 279 671 195 l 671 281 q 644 376 671 338 q 565 433 618 414 q 435 452 513 452 l 156 452 l 156 557 l 400 557 q 566 599 509 557 q 623 720 623 641 l 623 722 q 575 832 623 794 q 438 871 527 871 l 156 871 l 156 979 l 466 979 q 613 948 550 979 q 711 863 676 918 q 747 734 747 808 l 747 733 q 724 636 747 682 q 661 558 701 590 q 570 519 621 527 l 570 517 q 691 476 640 509 q 769 392 742 444 q 796 276 796 341 l 796 275 q 756 127 796 189 q 643 33 717 66 q 465 0 569 0 l 156 0 m 95 0 l 95 979 l 217 979 l 217 0 l 95 0 "},"Γ":{"ha":720,"x_min":95,"x_max":675,"o":"m 217 0 l 95 0 l 95 979 l 675 979 l 675 869 l 217 869 l 217 0 "},"Δ":{"ha":880,"x_min":37,"x_max":843,"o":"m 37 0 l 37 86 l 380 979 l 500 979 l 843 86 l 843 0 l 37 0 m 174 110 l 707 110 l 707 115 l 442 837 l 438 837 l 174 115 l 174 110 "},"∆":{"ha":880,"x_min":37,"x_max":843,"o":"m 37 0 l 843 0 l 843 86 l 500 979 l 380 979 l 37 86 l 37 0 m 174 110 l 174 115 l 438 837 l 442 837 l 707 115 l 707 110 l 174 110 "},"Ε":{"ha":767,"x_min":95,"x_max":701,"o":"m 95 0 l 95 979 l 701 979 l 701 869 l 217 869 l 217 555 l 676 555 l 676 446 l 217 446 l 217 110 l 701 110 l 701 0 l 95 0 "},"Ζ":{"ha":857,"x_min":66,"x_max":790,"o":"m 66 0 l 66 87 l 626 866 l 626 869 l 85 869 l 85 979 l 779 979 l 779 892 l 222 113 l 222 110 l 790 110 l 790 0 l 66 0 "},"Η":{"ha":971,"x_min":95,"x_max":876,"o":"m 95 0 l 95 979 l 217 979 l 217 555 l 754 555 l 754 979 l 876 979 l 876 0 l 754 0 l 754 446 l 217 446 l 217 0 l 95 0 "},"Θ":{"ha":1025,"x_min":57,"x_max":968,"o":"m 513 -16 q 271 45 373 -16 q 113 220 168 107 q 57 489 57 334 l 57 490 q 113 759 57 646 q 271 933 168 871 q 513 995 374 995 q 755 933 653 995 q 912 759 857 871 q 968 490 968 646 l 968 489 q 912 220 968 334 q 755 45 857 107 q 513 -16 654 -16 m 513 96 q 692 145 617 96 q 808 281 768 193 q 848 489 848 370 l 848 490 q 807 699 848 610 q 691 834 766 787 q 513 882 616 882 q 335 834 410 882 q 218 699 259 787 q 177 490 177 611 l 177 489 q 218 281 177 369 q 335 144 259 193 q 513 96 410 96 m 317 437 l 317 543 l 707 543 l 707 437 l 317 437 "},"Ι":{"ha":312,"x_min":95,"x_max":217,"o":"m 95 0 l 95 979 l 217 979 l 217 0 l 95 0 "},"Κ":{"ha":834,"x_min":95,"x_max":825,"o":"m 207 331 l 207 498 l 221 498 l 636 979 l 789 979 l 400 537 l 394 537 l 207 331 m 95 0 l 95 979 l 217 979 l 217 0 l 95 0 m 669 0 l 315 467 l 401 553 l 825 0 l 669 0 "},"Λ":{"ha":849,"x_min":17,"x_max":832,"o":"m 17 0 l 364 979 l 485 979 l 832 0 l 704 0 l 427 823 l 422 823 l 145 0 l 17 0 "},"Μ":{"ha":1154,"x_min":95,"x_max":1059,"o":"m 95 0 l 95 979 l 236 979 l 575 154 l 579 154 l 918 979 l 1059 979 l 1059 0 l 945 0 l 945 756 l 890 756 l 1022 951 l 629 0 l 526 0 l 132 951 l 264 756 l 209 756 l 209 0 l 95 0 "},"Ν":{"ha":971,"x_min":95,"x_max":876,"o":"m 95 0 l 95 979 l 214 979 l 856 57 l 701 206 l 755 206 l 755 979 l 876 979 l 876 0 l 758 0 l 115 922 l 270 772 l 216 772 l 216 0 l 95 0 "},"Ξ":{"ha":850,"x_min":66,"x_max":784,"o":"m 66 869 l 66 979 l 784 979 l 784 869 l 66 869 m 66 0 l 66 110 l 784 110 l 784 0 l 66 0 m 125 446 l 125 555 l 725 555 l 725 446 l 125 446 "},"Ο":{"ha":1016,"x_min":57,"x_max":959,"o":"m 509 -16 q 268 45 370 -16 q 112 220 167 107 q 57 489 57 334 l 57 490 q 112 759 57 646 q 269 933 168 871 q 509 995 370 995 q 748 933 647 995 q 904 759 849 871 q 959 490 959 646 l 959 489 q 904 220 959 334 q 748 45 849 107 q 509 -16 648 -16 m 509 96 q 683 145 610 96 q 795 281 755 193 q 834 489 834 370 l 834 490 q 794 699 834 610 q 682 834 755 787 q 509 882 608 882 q 335 834 409 882 q 222 699 262 787 q 182 490 182 611 l 182 489 q 222 281 182 369 q 335 144 262 193 q 509 96 408 96 "},"Π":{"ha":958,"x_min":95,"x_max":863,"o":"m 863 0 l 741 0 l 741 869 l 217 869 l 217 0 l 95 0 l 95 979 l 863 979 l 863 0 "},"Ρ":{"ha":802,"x_min":95,"x_max":758,"o":"m 156 349 l 156 458 l 412 458 q 575 512 517 458 q 633 663 633 567 l 633 665 q 575 816 633 762 q 412 870 517 870 l 156 870 l 156 979 l 444 979 q 606 939 536 979 q 717 829 677 900 q 758 666 758 759 l 758 665 q 717 500 758 572 q 606 389 677 429 q 444 349 536 349 l 156 349 m 95 0 l 95 979 l 217 979 l 217 0 l 95 0 "},"Ʃ":{"ha":836,"x_min":66,"x_max":770,"o":"m 66 0 l 66 87 l 351 492 l 78 882 l 78 979 l 751 979 l 751 869 l 229 869 l 229 864 l 481 503 l 481 498 l 214 115 l 214 110 l 770 110 l 770 0 l 66 0 "},"Σ":{"ha":836,"x_min":66,"x_max":770,"o":"m 66 0 l 770 0 l 770 110 l 214 110 l 214 115 l 481 498 l 481 503 l 229 864 l 229 869 l 751 869 l 751 979 l 78 979 l 78 882 l 351 492 l 66 87 l 66 0 "},"Τ":{"ha":807,"x_min":34,"x_max":773,"o":"m 342 0 l 342 869 l 34 869 l 34 979 l 773 979 l 773 869 l 465 869 l 465 0 l 342 0 "},"Υ":{"ha":850,"x_min":17,"x_max":833,"o":"m 364 0 l 364 421 l 17 979 l 156 979 l 423 539 l 427 539 l 694 979 l 833 979 l 486 421 l 486 0 l 364 0 "},"Φ":{"ha":1104,"x_min":50,"x_max":1054,"o":"m 491 -39 l 491 58 q 257 118 356 64 q 104 267 158 173 q 50 486 50 361 l 50 487 q 104 707 50 612 q 257 856 158 801 q 491 916 356 910 l 491 1015 l 613 1015 l 613 916 q 847 856 748 910 q 1000 707 946 801 q 1054 487 1054 612 l 1054 486 q 1000 267 1054 361 q 847 118 946 173 q 613 58 748 64 l 613 -39 l 491 -39 m 491 167 l 491 807 q 322 764 393 804 q 213 654 251 724 q 175 487 175 583 l 175 486 q 213 320 175 391 q 322 210 251 250 q 491 167 393 171 m 613 167 q 783 210 712 171 q 891 320 853 250 q 929 486 929 391 l 929 487 q 891 654 929 583 q 783 764 853 724 q 613 807 712 804 l 613 167 "},"Χ":{"ha":882,"x_min":31,"x_max":851,"o":"m 31 0 l 393 534 l 364 440 l 364 494 l 35 979 l 182 979 l 444 585 l 499 585 l 418 541 l 712 979 l 851 979 l 513 488 l 513 434 l 484 528 l 844 0 l 697 0 l 437 391 l 381 391 l 462 433 l 169 0 l 31 0 "},"Ψ":{"ha":1070,"x_min":81,"x_max":989,"o":"m 474 0 l 474 230 q 268 278 356 231 q 131 410 180 325 q 81 609 81 496 l 81 979 l 203 979 l 203 613 q 235 469 203 528 q 327 377 267 409 q 474 342 387 345 l 474 979 l 596 979 l 596 342 q 743 377 683 345 q 835 469 804 409 q 867 613 867 528 l 867 979 l 989 979 l 989 609 q 940 410 989 496 q 802 277 890 325 q 596 230 714 230 l 596 0 l 474 0 "},"Ω":{"ha":1036,"x_min":71,"x_max":966,"o":"m 71 0 l 71 110 l 281 110 l 281 115 q 168 226 215 161 q 95 371 120 291 q 71 540 71 450 l 71 541 q 127 778 71 675 q 284 937 183 880 q 518 995 385 995 q 752 937 652 995 q 909 778 853 880 q 966 541 966 675 l 966 540 q 941 371 966 450 q 869 226 916 291 q 755 115 822 161 l 755 110 l 966 110 l 966 0 l 609 0 l 609 131 q 740 244 688 184 q 816 378 791 305 q 841 537 841 450 l 841 538 q 802 721 841 644 q 691 840 763 798 q 518 882 618 882 q 346 840 418 882 q 234 721 273 798 q 195 538 195 644 l 195 537 q 220 378 195 450 q 297 244 245 305 q 427 131 349 184 l 427 0 l 71 0 "},"Ω":{"ha":1036,"x_min":71,"x_max":966,"o":"m 71 0 l 427 0 l 427 131 q 297 244 349 184 q 220 378 245 305 q 195 537 195 450 l 195 538 q 234 721 195 644 q 346 840 273 798 q 518 882 418 882 q 691 840 618 882 q 802 721 763 798 q 841 538 841 644 l 841 537 q 816 378 841 450 q 740 244 791 305 q 609 131 688 184 l 609 0 l 966 0 l 966 110 l 755 110 l 755 115 q 869 226 822 161 q 941 371 916 291 q 966 540 966 450 l 966 541 q 909 778 966 675 q 752 937 853 880 q 518 995 652 995 q 284 937 385 995 q 127 778 183 880 q 71 541 71 675 l 71 540 q 95 371 71 450 q 168 226 120 291 q 281 115 215 161 l 281 110 l 71 110 l 71 0 "},"Ά":{"ha":882,"x_min":17,"x_max":865,"o":"m 186 775 l 95 775 l 157 979 l 277 979 l 186 775 m 17 0 l 381 979 l 471 979 l 471 832 l 440 832 l 145 0 l 17 0 m 184 280 l 224 384 l 659 384 l 699 280 l 184 280 m 737 0 l 443 832 l 443 979 l 502 979 l 865 0 l 737 0 "},"Έ":{"ha":953,"x_min":17,"x_max":887,"o":"m 109 775 l 17 775 l 79 979 l 199 979 l 109 775 m 281 0 l 281 979 l 887 979 l 887 869 l 403 869 l 403 555 l 862 555 l 862 446 l 403 446 l 403 110 l 887 110 l 887 0 l 281 0 "},"Ή":{"ha":1157,"x_min":17,"x_max":1062,"o":"m 109 775 l 17 775 l 79 979 l 199 979 l 109 775 m 281 0 l 281 979 l 403 979 l 403 555 l 940 555 l 940 979 l 1062 979 l 1062 0 l 940 0 l 940 446 l 403 446 l 403 0 l 281 0 "},"Ί":{"ha":498,"x_min":17,"x_max":403,"o":"m 109 775 l 17 775 l 79 979 l 199 979 l 109 775 m 281 0 l 281 979 l 403 979 l 403 0 l 281 0 "},"Ϊ":{"ha":312,"x_min":-33,"x_max":345,"o":"m 95 0 l 95 979 l 217 979 l 217 0 l 95 0 m 35 1090 q -13 1109 7 1090 q -33 1157 -33 1129 q -13 1204 -33 1185 q 35 1224 7 1224 q 82 1204 62 1224 q 101 1157 101 1185 q 82 1109 101 1129 q 35 1090 62 1090 m 277 1090 q 231 1109 250 1090 q 211 1157 211 1129 q 231 1204 211 1185 q 277 1224 250 1224 q 325 1204 306 1224 q 345 1157 345 1185 q 325 1109 345 1129 q 277 1090 306 1090 "},"Ό":{"ha":1108,"x_min":17,"x_max":1051,"o":"m 109 775 l 17 775 l 79 979 l 199 979 l 109 775 m 601 -16 q 360 45 462 -16 q 204 220 259 107 q 149 489 149 334 l 149 490 q 204 759 149 646 q 361 933 260 871 q 601 995 463 995 q 840 933 739 995 q 996 759 941 871 q 1051 490 1051 646 l 1051 489 q 996 220 1051 334 q 841 45 941 107 q 601 -16 740 -16 m 601 96 q 775 145 702 96 q 887 281 848 193 q 926 489 926 370 l 926 490 q 887 699 926 610 q 774 834 847 787 q 601 882 701 882 q 428 834 501 882 q 314 699 354 787 q 274 490 274 611 l 274 489 q 314 281 274 369 q 427 144 354 193 q 601 96 500 96 "},"Ύ":{"ha":1072,"x_min":17,"x_max":1055,"o":"m 109 775 l 17 775 l 79 979 l 199 979 l 109 775 m 585 0 l 585 421 l 238 979 l 377 979 l 644 539 l 648 539 l 916 979 l 1055 979 l 707 421 l 707 0 l 585 0 "},"Ϋ":{"ha":850,"x_min":17,"x_max":833,"o":"m 364 0 l 364 421 l 17 979 l 156 979 l 423 539 l 427 539 l 694 979 l 833 979 l 486 421 l 486 0 l 364 0 m 304 1090 q 256 1109 276 1090 q 237 1157 237 1129 q 256 1204 237 1185 q 304 1224 276 1224 q 351 1204 332 1224 q 370 1157 370 1185 q 351 1109 370 1129 q 304 1090 332 1090 m 547 1090 q 500 1109 519 1090 q 480 1157 480 1129 q 500 1204 480 1185 q 547 1224 519 1224 q 594 1204 575 1224 q 614 1157 614 1185 q 594 1109 614 1129 q 547 1090 575 1090 "},"Ώ":{"ha":1113,"x_min":17,"x_max":1042,"o":"m 109 775 l 17 775 l 79 979 l 199 979 l 109 775 m 147 0 l 147 110 l 358 110 l 358 115 q 244 226 292 161 q 172 371 197 291 q 147 540 147 450 l 147 541 q 203 778 147 675 q 360 937 260 880 q 595 995 461 995 q 829 937 728 995 q 986 778 930 880 q 1042 541 1042 675 l 1042 540 q 1018 371 1042 450 q 946 226 993 291 q 831 115 899 161 l 831 110 l 1042 110 l 1042 0 l 686 0 l 686 131 q 816 244 765 184 q 892 378 867 305 q 918 537 918 450 l 918 538 q 879 721 918 644 q 767 840 840 798 q 595 882 695 882 q 422 840 495 882 q 311 721 350 798 q 272 538 272 644 l 272 537 q 297 378 272 450 q 374 244 322 305 q 504 131 425 184 l 504 0 l 147 0 "},"Ϝ":{"ha":726,"x_min":102,"x_max":682,"o":"m 224 0 l 102 0 l 102 979 l 682 979 l 682 869 l 224 869 l 224 0 m 102 433 l 102 543 l 682 543 l 682 433 l 102 433 "},"∇":{"ha":880,"x_min":37,"x_max":843,"o":"m 843 979 l 843 892 l 500 0 l 380 0 l 37 892 l 37 979 l 843 979 m 707 869 l 174 869 l 174 864 l 438 142 l 442 142 l 707 864 l 707 869 "},"А":{"ha":896,"x_min":24,"x_max":872,"o":"m 24 0 l 388 979 l 478 979 l 478 832 l 447 832 l 152 0 l 24 0 m 191 280 l 231 384 l 665 384 l 706 280 l 191 280 m 744 0 l 450 832 l 450 979 l 509 979 l 872 0 l 744 0 "},"Ӑ":{"ha":896,"x_min":24,"x_max":872,"o":"m 24 0 l 388 979 l 478 979 l 478 832 l 447 832 l 152 0 l 24 0 m 191 280 l 231 384 l 665 384 l 706 280 l 191 280 m 744 0 l 450 832 l 450 979 l 509 979 l 872 0 l 744 0 m 451 1056 q 344 1080 389 1056 q 275 1146 299 1105 q 252 1240 252 1188 l 252 1243 l 347 1243 l 347 1240 q 374 1165 347 1197 q 452 1134 400 1134 q 529 1165 502 1134 q 556 1240 556 1197 l 556 1243 l 652 1243 l 652 1240 q 628 1146 652 1188 q 559 1080 604 1105 q 451 1056 514 1056 "},"Ӓ":{"ha":896,"x_min":24,"x_max":872,"o":"m 24 0 l 388 979 l 478 979 l 478 832 l 447 832 l 152 0 l 24 0 m 191 280 l 231 384 l 665 384 l 706 280 l 191 280 m 744 0 l 450 832 l 450 979 l 509 979 l 872 0 l 744 0 m 327 1090 q 279 1109 299 1090 q 260 1157 260 1129 q 279 1204 260 1185 q 327 1224 299 1224 q 374 1204 355 1224 q 393 1157 393 1185 q 374 1109 393 1129 q 327 1090 355 1090 m 570 1090 q 523 1109 543 1090 q 503 1157 503 1129 q 523 1204 503 1185 q 570 1224 543 1224 q 617 1204 598 1224 q 637 1157 637 1185 q 617 1109 637 1129 q 570 1090 598 1090 "},"Б":{"ha":852,"x_min":102,"x_max":771,"o":"m 102 0 l 102 979 l 673 979 l 673 869 l 224 869 l 224 589 l 456 589 q 620 551 549 589 q 731 447 690 513 q 771 294 771 381 l 771 293 q 731 141 771 207 q 621 37 691 75 q 458 0 550 0 l 102 0 m 224 110 l 426 110 q 589 157 531 110 q 646 293 646 205 l 646 294 q 589 431 646 383 q 426 479 531 479 l 224 479 l 224 110 "},"В":{"ha":853,"x_min":102,"x_max":803,"o":"m 163 0 l 163 108 l 453 108 q 620 152 563 108 q 677 279 677 195 l 677 281 q 651 376 677 338 q 572 433 625 414 q 441 452 519 452 l 163 452 l 163 557 l 407 557 q 573 599 515 557 q 630 720 630 641 l 630 722 q 582 832 630 794 q 445 871 534 871 l 163 871 l 163 979 l 473 979 q 620 948 557 979 q 718 863 683 918 q 753 734 753 808 l 753 733 q 730 636 753 682 q 667 558 707 590 q 576 519 627 527 l 576 517 q 698 476 647 509 q 776 392 749 444 q 803 276 803 341 l 803 275 q 763 127 803 189 q 650 33 724 66 q 471 0 576 0 l 163 0 m 102 0 l 102 979 l 224 979 l 224 0 l 102 0 "},"Г":{"ha":726,"x_min":102,"x_max":682,"o":"m 224 0 l 102 0 l 102 979 l 682 979 l 682 869 l 224 869 l 224 0 "},"Ѓ":{"ha":726,"x_min":102,"x_max":682,"o":"m 224 0 l 102 0 l 102 979 l 682 979 l 682 869 l 224 869 l 224 0 m 417 1057 l 328 1057 l 438 1253 l 559 1253 l 417 1057 "},"Ґ":{"ha":726,"x_min":102,"x_max":682,"o":"m 224 0 l 102 0 l 102 979 l 682 979 l 682 869 l 224 869 l 224 0 m 570 1172 l 682 1172 l 682 869 l 438 869 l 438 979 l 570 979 l 570 1172 "},"Ӷ":{"ha":726,"x_min":102,"x_max":682,"o":"m 233 -193 l 233 0 l 102 0 l 102 110 l 346 110 l 346 -193 l 233 -193 m 224 0 l 102 0 l 102 979 l 682 979 l 682 869 l 224 869 l 224 0 "},"Ғ":{"ha":760,"x_min":34,"x_max":716,"o":"m 258 0 l 136 0 l 136 979 l 716 979 l 716 869 l 258 869 l 258 0 m 34 437 l 34 539 l 461 539 l 461 437 l 34 437 "},"Ӻ":{"ha":760,"x_min":-12,"x_max":716,"o":"m 258 0 l 136 0 l 136 979 l 716 979 l 716 869 l 258 869 l 258 0 m 34 437 l 34 539 l 461 539 l 461 437 l 34 437 m 257 14 l 257 -39 q 208 -189 257 -140 q 60 -237 159 -237 q 20 -236 40 -237 q -12 -233 1 -235 l -12 -137 q 13 -139 -1 -138 q 41 -140 26 -140 q 112 -115 89 -140 q 135 -39 135 -90 l 135 14 l 257 14 "},"Д":{"ha":1004,"x_min":20,"x_max":963,"o":"m 134 -193 l 20 -193 l 20 110 l 93 110 q 151 164 129 129 q 183 249 172 199 q 198 363 195 299 l 235 979 l 841 979 l 841 110 l 963 110 l 963 -193 l 850 -193 l 850 0 l 134 0 l 134 -193 m 313 360 q 302 260 309 304 q 282 180 296 215 q 244 115 269 144 l 244 110 l 719 110 l 719 869 l 345 869 l 313 360 "},"Е":{"ha":781,"x_min":102,"x_max":708,"o":"m 102 0 l 102 979 l 708 979 l 708 869 l 224 869 l 224 555 l 683 555 l 683 446 l 224 446 l 224 110 l 708 110 l 708 0 l 102 0 "},"Ё":{"ha":781,"x_min":102,"x_max":708,"o":"m 102 0 l 102 979 l 708 979 l 708 869 l 224 869 l 224 555 l 683 555 l 683 446 l 224 446 l 224 110 l 708 110 l 708 0 l 102 0 m 283 1090 q 236 1109 256 1090 q 216 1157 216 1129 q 236 1204 216 1185 q 283 1224 256 1224 q 331 1204 311 1224 q 350 1157 350 1185 q 331 1109 350 1129 q 283 1090 311 1090 m 526 1090 q 479 1109 499 1090 q 460 1157 460 1129 q 479 1204 460 1185 q 526 1224 499 1224 q 574 1204 555 1224 q 593 1157 593 1185 q 574 1109 593 1129 q 526 1090 555 1090 "},"Ӗ":{"ha":781,"x_min":102,"x_max":708,"o":"m 102 0 l 102 979 l 708 979 l 708 869 l 224 869 l 224 555 l 683 555 l 683 446 l 224 446 l 224 110 l 708 110 l 708 0 l 102 0 m 408 1056 q 300 1080 345 1056 q 232 1146 256 1105 q 208 1240 208 1188 l 208 1243 l 304 1243 l 304 1240 q 330 1165 304 1197 q 408 1134 357 1134 q 486 1165 458 1134 q 513 1240 513 1197 l 513 1243 l 608 1243 l 608 1240 q 584 1146 608 1188 q 515 1080 560 1105 q 408 1056 471 1056 "},"Ѐ":{"ha":781,"x_min":102,"x_max":708,"o":"m 102 0 l 102 979 l 708 979 l 708 869 l 224 869 l 224 555 l 683 555 l 683 446 l 224 446 l 224 110 l 708 110 l 708 0 l 102 0 m 375 1057 l 233 1253 l 354 1253 l 465 1057 l 375 1057 "},"Ж":{"ha":1322,"x_min":14,"x_max":1309,"o":"m 722 549 l 756 549 l 1114 979 l 1265 979 l 847 501 l 847 520 l 1309 0 l 1145 0 l 756 451 l 722 451 l 722 0 l 600 0 l 600 451 l 566 451 l 178 0 l 14 0 l 475 520 l 475 501 l 58 979 l 209 979 l 566 549 l 600 549 l 600 979 l 722 979 l 722 549 "},"Ӂ":{"ha":1322,"x_min":14,"x_max":1309,"o":"m 722 549 l 756 549 l 1114 979 l 1265 979 l 847 501 l 847 520 l 1309 0 l 1145 0 l 756 451 l 722 451 l 722 0 l 600 0 l 600 451 l 566 451 l 178 0 l 14 0 l 475 520 l 475 501 l 58 979 l 209 979 l 566 549 l 600 549 l 600 979 l 722 979 l 722 549 m 665 1056 q 557 1080 602 1056 q 489 1146 513 1105 q 465 1240 465 1188 l 465 1243 l 561 1243 l 561 1240 q 587 1165 561 1197 q 665 1134 614 1134 q 743 1165 715 1134 q 770 1240 770 1197 l 770 1243 l 865 1243 l 865 1240 q 841 1146 865 1188 q 772 1080 817 1105 q 665 1056 728 1056 "},"Ӝ":{"ha":1322,"x_min":14,"x_max":1309,"o":"m 722 549 l 756 549 l 1114 979 l 1265 979 l 847 501 l 847 520 l 1309 0 l 1145 0 l 756 451 l 722 451 l 722 0 l 600 0 l 600 451 l 566 451 l 178 0 l 14 0 l 475 520 l 475 501 l 58 979 l 209 979 l 566 549 l 600 549 l 600 979 l 722 979 l 722 549 m 541 1090 q 493 1109 513 1090 q 473 1157 473 1129 q 493 1204 473 1185 q 541 1224 513 1224 q 588 1204 568 1224 q 607 1157 607 1185 q 588 1109 607 1129 q 541 1090 568 1090 m 783 1090 q 736 1109 756 1090 q 717 1157 717 1129 q 736 1204 717 1185 q 783 1224 756 1224 q 831 1204 812 1224 q 850 1157 850 1185 q 831 1109 850 1129 q 783 1090 812 1090 "},"Җ":{"ha":1385,"x_min":14,"x_max":1345,"o":"m 722 549 l 756 549 l 1114 979 l 1265 979 l 847 501 l 847 520 l 1309 0 l 1145 0 l 756 451 l 722 451 l 722 0 l 600 0 l 600 451 l 566 451 l 178 0 l 14 0 l 475 520 l 475 501 l 58 979 l 209 979 l 566 549 l 600 549 l 600 979 l 722 979 l 722 549 m 1232 -193 l 1232 0 l 1152 0 l 1152 110 l 1345 110 l 1345 -193 l 1232 -193 "},"З":{"ha":812,"x_min":51,"x_max":762,"o":"m 265 445 l 265 555 l 401 555 q 552 604 495 555 q 608 728 608 652 l 608 730 q 585 811 608 777 q 517 864 562 846 q 410 882 473 882 q 304 865 349 882 q 232 815 259 848 q 199 738 205 783 l 198 728 l 77 728 l 78 737 q 127 876 84 818 q 243 964 170 933 q 415 995 317 995 q 581 962 509 995 q 693 872 652 930 q 733 741 733 815 l 733 739 q 683 595 733 658 q 553 513 633 532 l 553 507 q 706 429 650 494 q 762 264 762 363 l 762 263 q 716 121 762 184 q 591 21 670 58 q 413 -16 513 -16 q 229 17 308 -16 q 103 109 149 50 q 52 246 58 168 l 51 255 l 172 255 l 172 250 q 209 166 178 201 q 291 114 239 132 q 412 96 342 96 q 531 117 480 96 q 609 177 581 138 q 637 267 637 215 l 637 268 q 576 398 637 351 q 407 445 516 445 l 265 445 "},"Ӟ":{"ha":812,"x_min":51,"x_max":762,"o":"m 265 445 l 265 555 l 401 555 q 552 604 495 555 q 608 728 608 652 l 608 730 q 585 811 608 777 q 517 864 562 846 q 410 882 473 882 q 304 865 349 882 q 232 815 259 848 q 199 738 205 783 l 198 728 l 77 728 l 78 737 q 127 876 84 818 q 243 964 170 933 q 415 995 317 995 q 581 962 509 995 q 693 872 652 930 q 733 741 733 815 l 733 739 q 683 595 733 658 q 553 513 633 532 l 553 507 q 706 429 650 494 q 762 264 762 363 l 762 263 q 716 121 762 184 q 591 21 670 58 q 413 -16 513 -16 q 229 17 308 -16 q 103 109 149 50 q 52 246 58 168 l 51 255 l 172 255 l 172 250 q 209 166 178 201 q 291 114 239 132 q 412 96 342 96 q 531 117 480 96 q 609 177 581 138 q 637 267 637 215 l 637 268 q 576 398 637 351 q 407 445 516 445 l 265 445 m 290 1090 q 242 1109 262 1090 q 222 1157 222 1129 q 242 1204 222 1185 q 290 1224 262 1224 q 337 1204 317 1224 q 356 1157 356 1185 q 337 1109 356 1129 q 290 1090 317 1090 m 532 1090 q 486 1109 505 1090 q 466 1157 466 1129 q 486 1204 466 1185 q 532 1224 505 1224 q 580 1204 561 1224 q 600 1157 600 1185 q 580 1109 600 1129 q 532 1090 561 1090 "},"Ҙ":{"ha":812,"x_min":51,"x_max":762,"o":"m 467 17 l 467 -194 l 351 -194 l 351 17 l 467 17 m 265 445 l 265 555 l 401 555 q 552 604 495 555 q 608 728 608 652 l 608 730 q 585 811 608 777 q 517 864 562 846 q 410 882 473 882 q 304 865 349 882 q 232 815 259 848 q 199 738 205 783 l 198 728 l 77 728 l 78 737 q 127 876 84 818 q 243 964 170 933 q 415 995 317 995 q 581 962 509 995 q 693 872 652 930 q 733 741 733 815 l 733 739 q 683 595 733 658 q 553 513 633 532 l 553 507 q 706 429 650 494 q 762 264 762 363 l 762 263 q 716 121 762 184 q 591 21 670 58 q 413 -16 513 -16 q 229 17 308 -16 q 103 109 149 50 q 52 246 58 168 l 51 255 l 172 255 l 172 250 q 209 166 178 201 q 291 114 239 132 q 412 96 342 96 q 531 117 480 96 q 609 177 581 138 q 637 267 637 215 l 637 268 q 576 398 637 351 q 407 445 516 445 l 265 445 "},"Ԑ":{"ha":812,"x_min":51,"x_max":762,"o":"m 547 445 l 406 445 q 236 398 296 445 q 176 268 176 351 l 176 267 q 203 177 176 215 q 282 117 231 138 q 401 96 333 96 q 522 114 470 96 q 604 166 573 132 q 640 250 634 201 l 641 255 l 762 255 l 761 246 q 709 109 755 168 q 584 17 663 50 q 399 -16 505 -16 q 221 21 300 -16 q 97 121 142 58 q 51 263 51 184 l 51 264 q 106 429 51 363 q 260 507 162 494 l 260 513 q 130 595 180 532 q 79 739 79 658 l 79 741 q 120 872 79 815 q 232 962 160 930 q 397 995 304 995 q 569 964 496 995 q 686 876 643 933 q 734 737 729 818 l 735 728 l 614 728 l 613 738 q 580 815 607 783 q 509 865 553 848 q 402 882 464 882 q 295 864 340 882 q 228 811 251 846 q 204 730 204 777 l 204 728 q 261 604 204 652 q 411 555 317 555 l 547 555 l 547 445 "},"И":{"ha":985,"x_min":102,"x_max":883,"o":"m 102 0 l 102 979 l 222 979 l 222 201 l 278 201 l 197 158 l 764 979 l 883 979 l 883 0 l 762 0 l 762 775 l 707 775 l 788 818 l 220 0 l 102 0 "},"Й":{"ha":985,"x_min":102,"x_max":883,"o":"m 102 0 l 102 979 l 222 979 l 222 201 l 278 201 l 197 158 l 764 979 l 883 979 l 883 0 l 762 0 l 762 775 l 707 775 l 788 818 l 220 0 l 102 0 m 494 1056 q 387 1080 432 1056 q 319 1146 342 1105 q 295 1240 295 1188 l 295 1243 l 391 1243 l 391 1240 q 417 1165 391 1197 q 495 1134 444 1134 q 572 1165 545 1134 q 600 1240 600 1197 l 600 1243 l 695 1243 l 695 1240 q 671 1146 695 1188 q 602 1080 647 1105 q 494 1056 557 1056 "},"Ѝ":{"ha":985,"x_min":102,"x_max":883,"o":"m 102 0 l 102 979 l 222 979 l 222 201 l 278 201 l 197 158 l 764 979 l 883 979 l 883 0 l 762 0 l 762 775 l 707 775 l 788 818 l 220 0 l 102 0 m 462 1057 l 319 1253 l 441 1253 l 551 1057 l 462 1057 "},"Ӣ":{"ha":985,"x_min":102,"x_max":883,"o":"m 102 0 l 102 979 l 222 979 l 222 201 l 278 201 l 197 158 l 764 979 l 883 979 l 883 0 l 762 0 l 762 775 l 707 775 l 788 818 l 220 0 l 102 0 m 311 1114 l 311 1200 l 671 1200 l 671 1114 l 311 1114 "},"Ӥ":{"ha":985,"x_min":102,"x_max":883,"o":"m 102 0 l 102 979 l 222 979 l 222 201 l 278 201 l 197 158 l 764 979 l 883 979 l 883 0 l 762 0 l 762 775 l 707 775 l 788 818 l 220 0 l 102 0 m 370 1090 q 323 1109 342 1090 q 303 1157 303 1129 q 323 1204 303 1185 q 370 1224 342 1224 q 417 1204 398 1224 q 437 1157 437 1185 q 417 1109 437 1129 q 370 1090 398 1090 m 613 1090 q 566 1109 586 1090 q 547 1157 547 1129 q 566 1204 547 1185 q 613 1224 586 1224 q 661 1204 642 1224 q 680 1157 680 1185 q 661 1109 680 1129 q 613 1090 642 1090 "},"Ҋ":{"ha":1025,"x_min":102,"x_max":1005,"o":"m 820 -193 l 873 0 l 762 0 l 762 110 l 1005 110 l 1005 75 l 933 -193 l 820 -193 m 102 0 l 102 979 l 222 979 l 222 201 l 278 201 l 197 158 l 764 979 l 883 979 l 883 0 l 762 0 l 762 775 l 707 775 l 788 818 l 220 0 l 102 0 m 494 1056 q 387 1080 432 1056 q 319 1146 342 1105 q 295 1240 295 1188 l 295 1243 l 391 1243 l 391 1240 q 417 1165 391 1197 q 495 1134 444 1134 q 572 1165 545 1134 q 600 1240 600 1197 l 600 1243 l 695 1243 l 695 1240 q 671 1146 695 1188 q 603 1080 648 1105 q 494 1056 557 1056 "},"К":{"ha":859,"x_min":102,"x_max":843,"o":"m 224 0 l 102 0 l 102 979 l 224 979 l 224 549 l 264 549 l 644 979 l 798 979 l 352 496 l 353 526 l 843 0 l 679 0 l 264 451 l 224 451 l 224 0 "},"Ќ":{"ha":859,"x_min":102,"x_max":843,"o":"m 224 0 l 102 0 l 102 979 l 224 979 l 224 549 l 264 549 l 644 979 l 798 979 l 352 496 l 353 526 l 843 0 l 679 0 l 264 451 l 224 451 l 224 0 m 434 1057 l 345 1057 l 455 1253 l 576 1253 l 434 1057 "},"Қ":{"ha":918,"x_min":102,"x_max":877,"o":"m 224 0 l 102 0 l 102 979 l 224 979 l 224 549 l 264 549 l 644 979 l 798 979 l 352 496 l 353 526 l 843 0 l 679 0 l 264 451 l 224 451 l 224 0 m 764 -193 l 764 0 l 684 0 l 684 110 l 877 110 l 877 -193 l 764 -193 "},"Ҝ":{"ha":934,"x_min":102,"x_max":918,"o":"m 224 0 l 102 0 l 102 979 l 224 979 l 224 549 l 429 549 l 731 979 l 873 979 l 525 496 l 526 526 l 918 0 l 766 0 l 429 451 l 224 451 l 224 0 m 320 210 l 320 798 l 412 798 l 412 210 l 320 210 "},"Ҟ":{"ha":892,"x_min":34,"x_max":877,"o":"m 258 0 l 136 0 l 136 979 l 258 979 l 258 549 l 298 549 l 678 979 l 831 979 l 386 496 l 387 526 l 877 0 l 713 0 l 298 451 l 258 451 l 258 0 m 34 749 l 34 851 l 373 851 l 373 749 l 34 749 "},"Ҡ":{"ha":1034,"x_min":37,"x_max":1018,"o":"m 399 0 l 277 0 l 277 869 l 37 869 l 37 979 l 399 979 l 399 549 l 439 549 l 819 979 l 972 979 l 541 511 l 1018 0 l 854 0 l 439 451 l 399 451 l 399 0 "},"Ӄ":{"ha":864,"x_min":102,"x_max":817,"o":"m 386 -279 q 360 -278 373 -279 q 338 -275 347 -277 l 338 -164 q 361 -165 349 -165 q 386 -166 372 -166 q 521 -131 464 -166 q 610 -32 578 -96 q 642 119 642 32 l 642 121 q 593 290 642 219 q 456 400 545 361 q 245 438 368 438 l 224 438 l 224 0 l 102 0 l 102 979 l 224 979 l 224 548 l 273 548 l 218 533 l 663 979 l 817 979 l 351 519 l 364 536 q 578 463 488 519 q 717 320 668 407 q 766 125 766 234 l 766 123 q 739 -42 766 33 q 662 -169 712 -116 q 542 -250 612 -222 q 386 -279 472 -279 "},"Л":{"ha":954,"x_min":34,"x_max":852,"o":"m 81 -7 q 56 -5 68 -7 q 34 0 43 -3 l 34 109 q 51 106 39 108 q 71 105 62 105 q 147 132 117 105 q 194 217 177 159 q 216 370 210 276 l 251 979 l 852 979 l 852 0 l 730 0 l 730 869 l 362 869 l 331 366 q 294 153 323 235 q 213 32 265 71 q 81 -7 161 -7 "},"Ӆ":{"ha":993,"x_min":34,"x_max":972,"o":"m 787 -193 l 840 0 l 730 0 l 730 110 l 972 110 l 972 75 l 901 -193 l 787 -193 m 81 -7 q 56 -5 68 -7 q 34 0 43 -3 l 34 109 q 51 106 39 108 q 71 105 62 105 q 147 132 117 105 q 194 217 177 159 q 216 370 210 276 l 251 979 l 852 979 l 852 0 l 730 0 l 730 869 l 362 869 l 331 366 q 294 153 323 235 q 213 32 265 71 q 81 -7 161 -7 "},"Ԯ":{"ha":1015,"x_min":34,"x_max":974,"o":"m 861 -193 l 861 0 l 730 0 l 730 110 l 974 110 l 974 -193 l 861 -193 m 81 -7 q 56 -5 68 -7 q 34 0 43 -3 l 34 109 q 51 106 39 108 q 71 105 62 105 q 147 132 117 105 q 194 217 177 159 q 216 370 210 276 l 251 979 l 852 979 l 852 0 l 730 0 l 730 869 l 362 869 l 331 366 q 294 153 323 235 q 213 32 265 71 q 81 -7 161 -7 "},"Ԓ":{"ha":954,"x_min":34,"x_max":852,"o":"m 852 14 l 852 -39 q 803 -189 852 -140 q 654 -237 754 -237 q 615 -236 635 -237 q 583 -233 595 -235 l 583 -137 q 607 -139 593 -138 q 636 -140 621 -140 q 707 -115 684 -140 q 730 -39 730 -90 l 730 14 l 852 14 m 81 -7 q 56 -5 68 -7 q 34 0 43 -3 l 34 109 q 51 106 39 108 q 71 105 62 105 q 147 132 117 105 q 194 217 177 159 q 216 370 210 276 l 251 979 l 852 979 l 852 0 l 730 0 l 730 869 l 362 869 l 331 366 q 294 153 323 235 q 213 32 265 71 q 81 -7 161 -7 "},"М":{"ha":1168,"x_min":102,"x_max":1066,"o":"m 102 0 l 102 979 l 243 979 l 582 154 l 586 154 l 925 979 l 1066 979 l 1066 0 l 952 0 l 952 756 l 897 756 l 1029 951 l 635 0 l 532 0 l 139 951 l 271 756 l 216 756 l 216 0 l 102 0 "},"Ӎ":{"ha":1215,"x_min":102,"x_max":1195,"o":"m 1010 -193 l 1063 0 l 952 0 l 952 110 l 1195 110 l 1195 75 l 1123 -193 l 1010 -193 m 102 0 l 102 979 l 243 979 l 582 154 l 586 154 l 925 979 l 1066 979 l 1066 0 l 952 0 l 952 756 l 897 756 l 1029 951 l 635 0 l 532 0 l 139 951 l 271 756 l 216 756 l 216 0 l 102 0 "},"Н":{"ha":985,"x_min":102,"x_max":883,"o":"m 102 0 l 102 979 l 224 979 l 224 555 l 761 555 l 761 979 l 883 979 l 883 0 l 761 0 l 761 446 l 224 446 l 224 0 l 102 0 "},"Ӈ":{"ha":985,"x_min":102,"x_max":883,"o":"m 102 0 l 102 979 l 224 979 l 224 555 l 761 555 l 761 979 l 883 979 l 883 0 l 761 0 l 761 446 l 224 446 l 224 0 l 102 0 m 883 14 l 883 -39 q 834 -189 883 -140 q 686 -237 785 -237 q 646 -236 666 -237 q 614 -233 627 -235 l 614 -137 q 638 -139 625 -138 q 667 -140 652 -140 q 738 -115 715 -140 q 761 -39 761 -90 l 761 14 l 883 14 "},"Ң":{"ha":1046,"x_min":102,"x_max":1005,"o":"m 892 -193 l 892 0 l 761 0 l 761 110 l 1005 110 l 1005 -193 l 892 -193 m 102 0 l 102 979 l 224 979 l 224 555 l 761 555 l 761 979 l 883 979 l 883 0 l 761 0 l 761 446 l 224 446 l 224 0 l 102 0 "},"Ӊ":{"ha":1024,"x_min":102,"x_max":1004,"o":"m 819 -193 l 871 0 l 761 0 l 761 110 l 1004 110 l 1004 75 l 932 -193 l 819 -193 m 102 0 l 102 979 l 224 979 l 224 555 l 761 555 l 761 979 l 883 979 l 883 0 l 761 0 l 761 446 l 224 446 l 224 0 l 102 0 "},"Ҥ":{"ha":1379,"x_min":95,"x_max":1335,"o":"m 95 0 l 95 979 l 217 979 l 217 555 l 754 555 l 754 979 l 1335 979 l 1335 869 l 876 869 l 876 0 l 754 0 l 754 446 l 217 446 l 217 0 l 95 0 "},"О":{"ha":1029,"x_min":64,"x_max":966,"o":"m 515 -16 q 275 45 376 -16 q 119 220 174 107 q 64 489 64 334 l 64 490 q 119 759 64 646 q 276 933 174 871 q 515 995 377 995 q 755 933 654 995 q 911 759 856 871 q 966 490 966 646 l 966 489 q 911 220 966 334 q 755 45 856 107 q 515 -16 654 -16 m 515 96 q 689 145 616 96 q 802 281 762 193 q 841 489 841 370 l 841 490 q 801 699 841 610 q 688 834 762 787 q 515 882 615 882 q 342 834 416 882 q 229 699 269 787 q 189 490 189 611 l 189 489 q 229 281 189 369 q 342 144 269 193 q 515 96 415 96 "},"Ӧ":{"ha":1029,"x_min":64,"x_max":966,"o":"m 515 -16 q 275 45 376 -16 q 119 220 174 107 q 64 489 64 334 l 64 490 q 119 759 64 646 q 276 933 174 871 q 515 995 377 995 q 755 933 654 995 q 911 759 856 871 q 966 490 966 646 l 966 489 q 911 220 966 334 q 755 45 856 107 q 515 -16 654 -16 m 515 96 q 689 145 616 96 q 802 281 762 193 q 841 489 841 370 l 841 490 q 801 699 841 610 q 688 834 762 787 q 515 882 615 882 q 342 834 416 882 q 229 699 269 787 q 189 490 189 611 l 189 489 q 229 281 189 369 q 342 144 269 193 q 515 96 415 96 m 393 1090 q 346 1109 366 1090 q 326 1157 326 1129 q 346 1204 326 1185 q 393 1224 366 1224 q 440 1204 421 1224 q 460 1157 460 1185 q 440 1109 460 1129 q 393 1090 421 1090 m 636 1090 q 589 1109 609 1090 q 570 1157 570 1129 q 589 1204 570 1185 q 636 1224 609 1224 q 684 1204 665 1224 q 703 1157 703 1185 q 684 1109 703 1129 q 636 1090 665 1090 "},"Ө":{"ha":1029,"x_min":64,"x_max":966,"o":"m 515 -16 q 275 45 376 -16 q 119 220 174 107 q 64 489 64 334 l 64 490 q 119 759 64 646 q 276 933 174 871 q 515 995 377 995 q 755 933 654 995 q 911 759 856 871 q 966 490 966 646 l 966 489 q 911 220 966 334 q 755 45 856 107 q 515 -16 654 -16 m 515 96 q 689 145 616 96 q 802 281 762 193 q 841 489 841 370 l 841 490 q 801 699 841 610 q 688 834 762 787 q 515 882 615 882 q 342 834 416 882 q 229 699 269 787 q 189 490 189 611 l 189 489 q 229 281 189 369 q 342 144 269 193 q 515 96 415 96 m 125 448 l 125 550 l 905 550 l 905 448 l 125 448 "},"Ӫ":{"ha":1029,"x_min":64,"x_max":966,"o":"m 515 -16 q 275 45 376 -16 q 119 220 174 107 q 64 489 64 334 l 64 490 q 119 759 64 646 q 276 933 174 871 q 515 995 377 995 q 755 933 654 995 q 911 759 856 871 q 966 490 966 646 l 966 489 q 911 220 966 334 q 755 45 856 107 q 515 -16 654 -16 m 515 96 q 689 145 616 96 q 802 281 762 193 q 841 489 841 370 l 841 490 q 801 699 841 610 q 688 834 762 787 q 515 882 615 882 q 342 834 416 882 q 229 699 269 787 q 189 490 189 611 l 189 489 q 229 281 189 369 q 342 144 269 193 q 515 96 415 96 m 125 448 l 125 550 l 905 550 l 905 448 l 125 448 m 393 1090 q 346 1109 366 1090 q 326 1157 326 1129 q 346 1204 326 1185 q 393 1224 366 1224 q 440 1204 421 1224 q 460 1157 460 1185 q 440 1109 460 1129 q 393 1090 421 1090 m 636 1090 q 589 1109 609 1090 q 570 1157 570 1129 q 589 1204 570 1185 q 636 1224 609 1224 q 684 1204 665 1224 q 703 1157 703 1185 q 684 1109 703 1129 q 636 1090 665 1090 "},"Ѳ":{"ha":1025,"x_min":64,"x_max":961,"o":"m 513 -16 q 274 45 375 -16 q 118 220 173 106 q 64 489 64 333 l 64 490 q 119 759 64 646 q 274 933 174 871 q 513 995 375 995 q 752 933 652 995 q 907 759 852 872 q 961 490 961 646 l 961 489 q 907 220 961 333 q 752 45 852 106 q 513 -16 652 -16 m 513 96 q 685 144 612 96 q 797 280 758 192 q 836 489 836 368 l 836 490 q 797 699 836 611 q 685 834 758 787 q 513 882 613 882 q 341 834 414 882 q 228 699 268 787 q 189 490 189 610 l 189 489 q 228 280 189 368 q 341 144 268 192 q 513 96 414 96 m 692 402 q 582 415 630 402 q 493 443 534 427 q 412 472 452 459 q 322 484 371 484 q 232 465 273 484 q 172 412 191 446 l 118 439 q 164 517 134 485 q 236 568 194 550 q 330 585 279 585 q 436 573 390 585 q 523 544 483 560 q 605 516 564 528 q 695 503 646 503 q 791 521 753 503 q 850 575 829 538 l 903 548 q 859 468 888 500 q 788 419 829 435 q 692 402 746 402 "},"П":{"ha":971,"x_min":102,"x_max":869,"o":"m 869 0 l 747 0 l 747 869 l 224 869 l 224 0 l 102 0 l 102 979 l 869 979 l 869 0 "},"Ԥ":{"ha":1034,"x_min":102,"x_max":993,"o":"m 880 -193 l 880 0 l 749 0 l 749 110 l 993 110 l 993 -193 l 880 -193 m 869 0 l 747 0 l 747 869 l 224 869 l 224 0 l 102 0 l 102 979 l 869 979 l 869 0 "},"Џ":{"ha":971,"x_min":102,"x_max":869,"o":"m 102 979 l 224 979 l 224 110 l 747 110 l 747 979 l 869 979 l 869 0 l 544 0 l 544 -194 l 427 -194 l 427 0 l 102 0 l 102 979 "},"Р":{"ha":816,"x_min":102,"x_max":764,"o":"m 163 349 l 163 458 l 419 458 q 582 512 524 458 q 640 663 640 567 l 640 665 q 582 816 640 762 q 419 870 524 870 l 163 870 l 163 979 l 450 979 q 613 939 543 979 q 724 829 684 900 q 764 666 764 759 l 764 665 q 724 500 764 572 q 613 389 684 429 q 450 349 543 349 l 163 349 m 102 0 l 102 979 l 224 979 l 224 0 l 102 0 "},"Ҏ":{"ha":802,"x_min":95,"x_max":758,"o":"m 156 349 l 156 458 l 412 458 q 575 512 517 458 q 633 663 633 567 l 633 665 q 575 816 633 762 q 412 870 517 870 l 156 870 l 156 979 l 444 979 q 606 939 536 979 q 717 829 677 900 q 758 666 758 759 l 758 665 q 717 500 758 572 q 606 389 677 429 q 444 349 536 349 l 156 349 m 95 0 l 95 979 l 217 979 l 217 0 l 95 0 m 529 427 l 448 392 l 340 645 l 420 680 l 529 427 m 642 175 l 553 137 l 444 390 l 533 428 l 642 175 "},"С":{"ha":966,"x_min":64,"x_max":911,"o":"m 511 -16 q 274 46 375 -16 q 119 222 174 109 q 64 490 64 336 l 64 490 q 119 758 64 644 q 274 933 174 871 q 511 995 374 995 q 696 956 612 995 q 835 848 779 918 q 909 686 891 779 l 911 680 l 787 680 l 783 694 q 726 796 764 754 q 634 860 688 838 q 511 882 580 882 q 341 834 413 882 q 229 697 269 785 q 189 490 189 610 l 189 490 q 229 282 189 371 q 341 145 269 194 q 511 96 414 96 q 633 119 579 96 q 726 185 687 141 q 785 293 764 229 l 787 299 l 911 299 l 909 292 q 836 129 891 199 q 696 22 780 60 q 511 -16 613 -16 "},"Ҫ":{"ha":966,"x_min":64,"x_max":911,"o":"m 570 17 l 570 -194 l 453 -194 l 453 17 l 570 17 m 511 -16 q 274 46 375 -16 q 119 222 174 109 q 64 490 64 336 l 64 490 q 119 758 64 644 q 274 933 174 871 q 511 995 374 995 q 696 956 612 995 q 835 848 779 918 q 909 686 891 779 l 911 680 l 787 680 l 783 694 q 726 796 764 754 q 634 860 688 838 q 511 882 580 882 q 341 834 413 882 q 229 697 269 785 q 189 490 189 610 l 189 490 q 229 282 189 371 q 341 145 269 194 q 511 96 414 96 q 633 119 579 96 q 726 185 687 141 q 785 293 764 229 l 787 299 l 911 299 l 909 292 q 836 129 891 199 q 696 22 780 60 q 511 -16 613 -16 "},"Т":{"ha":821,"x_min":41,"x_max":780,"o":"m 349 0 l 349 869 l 41 869 l 41 979 l 780 979 l 780 869 l 471 869 l 471 0 l 349 0 "},"Ҭ":{"ha":821,"x_min":41,"x_max":780,"o":"m 481 -193 l 481 0 l 349 0 l 349 110 l 593 110 l 593 -193 l 481 -193 m 349 0 l 349 869 l 41 869 l 41 979 l 780 979 l 780 869 l 471 869 l 471 0 l 349 0 "},"У":{"ha":827,"x_min":24,"x_max":810,"o":"m 198 -7 q 166 -4 181 -7 q 144 2 152 -2 l 144 111 q 168 107 154 109 q 198 106 182 106 q 263 117 235 106 q 316 150 292 127 q 358 209 339 173 l 24 979 l 154 979 l 416 345 l 427 345 l 684 979 l 810 979 l 511 280 q 420 109 465 172 q 323 20 376 46 q 198 -7 270 -7 "},"Ў":{"ha":827,"x_min":24,"x_max":810,"o":"m 198 -7 q 166 -4 181 -7 q 144 2 152 -2 l 144 111 q 168 107 154 109 q 198 106 182 106 q 263 117 235 106 q 316 150 292 127 q 358 209 339 173 l 24 979 l 154 979 l 416 345 l 427 345 l 684 979 l 810 979 l 511 280 q 420 109 465 172 q 323 20 376 46 q 198 -7 270 -7 m 422 1056 q 315 1080 359 1056 q 246 1146 270 1105 q 222 1240 222 1188 l 222 1243 l 318 1243 l 318 1240 q 345 1165 318 1197 q 422 1134 371 1134 q 500 1165 473 1134 q 527 1240 527 1197 l 527 1243 l 623 1243 l 623 1240 q 598 1146 623 1188 q 530 1080 574 1105 q 422 1056 485 1056 "},"Ӯ":{"ha":827,"x_min":24,"x_max":810,"o":"m 198 -7 q 166 -4 181 -7 q 144 2 152 -2 l 144 111 q 168 107 154 109 q 198 106 182 106 q 263 117 235 106 q 316 150 292 127 q 358 209 339 173 l 24 979 l 154 979 l 416 345 l 427 345 l 684 979 l 810 979 l 511 280 q 420 109 465 172 q 323 20 376 46 q 198 -7 270 -7 m 239 1114 l 239 1200 l 599 1200 l 599 1114 l 239 1114 "},"Ӱ":{"ha":827,"x_min":24,"x_max":810,"o":"m 198 -7 q 166 -4 181 -7 q 144 2 152 -2 l 144 111 q 168 107 154 109 q 198 106 182 106 q 263 117 235 106 q 316 150 292 127 q 358 209 339 173 l 24 979 l 154 979 l 416 345 l 427 345 l 684 979 l 810 979 l 511 280 q 420 109 465 172 q 323 20 376 46 q 198 -7 270 -7 m 298 1090 q 250 1109 270 1090 q 231 1157 231 1129 q 250 1204 231 1185 q 298 1224 270 1224 q 345 1204 326 1224 q 364 1157 364 1185 q 345 1109 364 1129 q 298 1090 326 1090 m 541 1090 q 494 1109 513 1090 q 474 1157 474 1129 q 494 1204 474 1185 q 541 1224 513 1224 q 588 1204 569 1224 q 608 1157 608 1185 q 588 1109 608 1129 q 541 1090 569 1090 "},"Ӳ":{"ha":827,"x_min":24,"x_max":810,"o":"m 198 -7 q 166 -4 181 -7 q 144 2 152 -2 l 144 111 q 168 107 154 109 q 198 106 182 106 q 263 117 235 106 q 316 150 292 127 q 358 209 339 173 l 24 979 l 154 979 l 416 345 l 427 345 l 684 979 l 810 979 l 511 280 q 420 109 465 172 q 323 20 376 46 q 198 -7 270 -7 m 347 1057 l 258 1057 l 355 1253 l 476 1253 l 347 1057 m 557 1057 l 467 1057 l 578 1253 l 699 1253 l 557 1057 "},"Ү":{"ha":864,"x_min":24,"x_max":840,"o":"m 371 0 l 371 421 l 24 979 l 163 979 l 430 539 l 434 539 l 701 979 l 840 979 l 493 421 l 493 0 l 371 0 "},"Ұ":{"ha":864,"x_min":24,"x_max":840,"o":"m 371 0 l 371 421 l 24 979 l 163 979 l 430 539 l 434 539 l 701 979 l 840 979 l 493 421 l 493 0 l 371 0 m 128 380 l 128 481 l 736 481 l 736 380 l 128 380 "},"Ф":{"ha":1101,"x_min":58,"x_max":1043,"o":"m 490 -7 l 490 89 l 490 89 q 261 143 358 93 q 111 283 164 194 q 58 492 58 372 l 58 493 q 111 703 58 614 q 261 843 164 793 q 490 897 358 894 l 490 897 l 490 985 l 611 985 l 611 897 l 611 897 q 841 843 744 894 q 990 703 937 793 q 1043 493 1043 614 l 1043 492 q 990 283 1043 372 q 841 143 937 194 q 611 89 744 93 l 611 89 l 611 -7 l 490 -7 m 490 198 q 490 198 490 198 q 490 198 490 198 l 490 787 l 490 787 q 326 748 395 785 q 220 646 257 711 q 183 493 183 581 l 183 492 q 220 340 183 405 q 326 239 257 275 q 490 198 395 202 m 611 198 q 611 198 611 198 q 611 198 611 198 q 775 239 707 202 q 881 340 844 275 q 918 492 918 405 l 918 493 q 881 646 918 581 q 775 748 844 711 q 611 787 707 785 l 611 787 l 611 198 "},"Х":{"ha":895,"x_min":37,"x_max":858,"o":"m 37 0 l 400 534 l 371 440 l 371 494 l 41 979 l 189 979 l 450 585 l 506 585 l 425 541 l 719 979 l 858 979 l 519 488 l 519 434 l 490 528 l 850 0 l 704 0 l 444 391 l 388 391 l 469 433 l 176 0 l 37 0 "},"Ҳ":{"ha":937,"x_min":37,"x_max":897,"o":"m 37 0 l 400 534 l 371 440 l 371 494 l 41 979 l 189 979 l 450 585 l 506 585 l 425 541 l 719 979 l 858 979 l 519 488 l 519 434 l 490 528 l 850 0 l 704 0 l 444 391 l 388 391 l 469 433 l 176 0 l 37 0 m 784 -193 l 784 0 l 704 0 l 704 110 l 897 110 l 897 -193 l 784 -193 "},"Ӿ":{"ha":895,"x_min":37,"x_max":858,"o":"m 37 0 l 400 534 l 371 440 l 371 494 l 41 979 l 189 979 l 450 585 l 506 585 l 425 541 l 719 979 l 858 979 l 519 488 l 519 434 l 490 528 l 850 0 l 704 0 l 444 391 l 388 391 l 469 433 l 176 0 l 37 0 m 99 439 l 99 541 l 797 541 l 797 439 l 99 439 "},"Ӽ":{"ha":895,"x_min":37,"x_max":858,"o":"m 617 -264 q 592 -263 604 -264 q 570 -260 580 -262 l 570 -148 q 588 -150 578 -149 q 608 -151 598 -151 q 680 -129 654 -151 q 706 -67 706 -106 q 699 -21 706 -45 q 676 33 692 3 q 634 102 661 62 l 444 391 l 439 391 l 176 0 l 37 0 l 371 492 l 371 494 l 41 979 l 189 979 l 450 585 l 454 585 l 719 979 l 858 979 l 519 488 l 519 486 l 732 171 q 790 76 770 116 q 820 1 811 36 q 829 -72 829 -33 q 770 -211 829 -158 q 617 -264 712 -264 "},"Ц":{"ha":1034,"x_min":102,"x_max":993,"o":"m 102 979 l 224 979 l 224 110 l 747 110 l 747 979 l 869 979 l 869 0 l 102 0 l 102 979 m 880 -193 l 880 0 l 749 0 l 749 110 l 993 110 l 993 -193 l 880 -193 "},"Ҵ":{"ha":1238,"x_min":35,"x_max":1198,"o":"m 307 979 l 429 979 l 429 110 l 953 110 l 953 979 l 1075 979 l 1075 0 l 307 0 l 307 979 m 1086 -193 l 1086 0 l 954 0 l 954 110 l 1198 110 l 1198 -193 l 1086 -193 m 35 869 l 35 979 l 700 979 l 700 869 l 35 869 "},"Ч":{"ha":927,"x_min":85,"x_max":825,"o":"m 703 0 l 703 431 l 701 431 q 636 397 672 412 q 555 373 600 382 q 459 363 511 363 q 252 412 336 363 q 127 542 169 460 q 85 723 85 623 l 85 979 l 207 979 l 207 722 q 236 592 207 647 q 321 506 264 536 q 458 476 377 476 q 556 486 510 476 q 641 513 603 496 q 703 555 678 531 l 703 979 l 825 979 l 825 0 l 703 0 "},"Ӵ":{"ha":927,"x_min":85,"x_max":825,"o":"m 703 0 l 703 431 l 701 431 q 636 397 672 412 q 555 373 600 382 q 459 363 511 363 q 252 412 336 363 q 127 542 169 460 q 85 723 85 623 l 85 979 l 207 979 l 207 722 q 236 592 207 647 q 321 506 264 536 q 458 476 377 476 q 556 486 510 476 q 641 513 603 496 q 703 555 678 531 l 703 979 l 825 979 l 825 0 l 703 0 m 333 1090 q 286 1109 305 1090 q 266 1157 266 1129 q 286 1204 266 1185 q 333 1224 305 1224 q 380 1204 361 1224 q 399 1157 399 1185 q 380 1109 399 1129 q 333 1090 361 1090 m 576 1090 q 529 1109 549 1090 q 509 1157 509 1129 q 529 1204 509 1185 q 576 1224 549 1224 q 624 1204 604 1224 q 643 1157 643 1185 q 624 1109 643 1129 q 576 1090 604 1090 "},"Ҷ":{"ha":988,"x_min":85,"x_max":947,"o":"m 835 -193 l 835 0 l 703 0 l 703 110 l 947 110 l 947 -193 l 835 -193 m 703 0 l 703 431 l 701 431 q 636 397 672 412 q 555 373 600 382 q 459 363 511 363 q 252 412 336 363 q 127 542 169 460 q 85 723 85 623 l 85 979 l 207 979 l 207 722 q 236 592 207 647 q 321 506 264 536 q 458 476 377 476 q 556 486 510 476 q 641 513 603 496 q 703 555 678 531 l 703 979 l 825 979 l 825 0 l 703 0 "},"Ӌ":{"ha":927,"x_min":85,"x_max":825,"o":"m 703 0 l 703 431 l 701 431 q 636 397 672 412 q 555 373 600 382 q 459 363 511 363 q 252 412 336 363 q 127 542 169 460 q 85 723 85 623 l 85 979 l 207 979 l 207 722 q 236 592 207 647 q 321 506 264 536 q 458 476 377 476 q 556 486 510 476 q 641 513 603 496 q 703 555 678 531 l 703 979 l 825 979 l 825 0 l 703 0 m 694 -193 l 581 -193 l 581 110 l 825 110 l 825 0 l 694 0 l 694 -193 "},"Ҹ":{"ha":968,"x_min":85,"x_max":866,"o":"m 744 0 l 744 431 l 741 431 q 671 397 713 412 q 581 373 630 382 q 479 363 532 363 q 258 412 346 363 q 127 542 170 460 q 85 723 85 623 l 85 979 l 207 979 l 207 722 q 237 592 207 647 q 327 506 267 536 q 479 476 387 476 q 582 486 530 476 q 676 513 633 496 q 744 555 719 531 l 744 979 l 866 979 l 866 0 l 744 0 m 433 171 l 433 758 l 526 758 l 526 171 l 433 171 "},"Ҩ":{"ha":1308,"x_min":64,"x_max":1260,"o":"m 610 -16 q 325 51 448 -16 q 133 234 201 117 q 64 507 64 352 l 64 509 q 118 740 64 634 q 268 913 172 845 q 488 995 363 981 l 488 879 q 328 807 394 860 q 227 678 262 755 q 193 507 193 601 l 193 506 q 249 287 193 379 q 399 146 304 195 q 609 97 493 97 q 716 106 669 97 q 807 136 764 115 q 936 229 880 172 q 1022 361 991 286 q 1053 522 1053 435 l 1053 523 q 1029 640 1053 588 q 961 723 1005 692 q 858 753 917 753 q 749 721 793 753 q 685 634 706 689 q 663 511 663 579 l 663 510 q 691 362 663 433 q 770 232 718 291 q 894 133 821 173 q 981 100 934 111 q 1076 90 1028 90 q 1162 100 1116 90 q 1260 134 1209 110 l 1260 26 q 1179 -5 1229 6 q 1074 -16 1130 -16 q 925 7 996 -16 q 791 77 854 31 q 655 186 712 121 q 569 334 599 252 q 538 507 538 416 l 538 509 q 578 690 538 609 q 690 819 618 771 q 858 866 762 866 q 1027 823 955 866 q 1138 703 1099 781 q 1178 523 1178 626 l 1178 522 q 1141 328 1178 416 q 1042 175 1104 240 q 906 72 981 109 q 813 25 861 45 q 715 -5 766 5 q 610 -16 665 -16 "},"Ҽ":{"ha":1146,"x_min":14,"x_max":1082,"o":"m 682 -16 q 447 44 546 -16 q 295 217 349 105 q 241 485 241 330 l 241 486 q 294 753 241 639 q 443 931 347 867 q 665 995 538 995 q 887 939 793 995 q 1031 778 981 882 q 1082 532 1082 674 q 1082 505 1082 519 q 1082 477 1082 490 l 341 477 l 341 587 l 948 587 l 947 596 q 905 749 941 685 q 806 848 868 813 q 663 882 745 882 q 504 832 572 882 q 399 695 436 783 q 366 492 363 607 l 366 486 l 366 467 q 405 270 366 353 q 516 141 444 186 q 685 96 587 96 q 800 113 749 96 q 887 162 851 130 q 940 241 922 195 l 942 247 l 1067 247 l 1066 241 q 992 105 1046 163 q 859 16 939 47 q 682 -16 779 -16 m 296 477 l 250 477 q 78 533 142 477 q 14 684 14 590 q 21 746 14 717 q 37 795 28 776 l 147 795 q 134 750 140 776 q 127 694 127 724 q 159 613 127 640 q 252 587 190 587 l 296 587 l 296 477 "},"Ҿ":{"ha":1146,"x_min":14,"x_max":1082,"o":"m 741 17 l 741 -194 l 624 -194 l 624 17 l 741 17 m 682 -16 q 447 44 546 -16 q 295 217 349 105 q 241 485 241 330 l 241 486 q 294 753 241 639 q 443 931 347 867 q 665 995 538 995 q 887 939 793 995 q 1031 778 981 882 q 1082 532 1082 674 q 1082 505 1082 519 q 1082 477 1082 490 l 341 477 l 341 587 l 948 587 l 947 596 q 905 749 941 685 q 806 848 868 813 q 663 882 745 882 q 504 832 572 882 q 399 695 436 783 q 366 492 363 607 l 366 486 l 366 467 q 405 270 366 353 q 516 141 444 186 q 685 96 587 96 q 800 113 749 96 q 887 162 851 130 q 940 241 922 195 l 942 247 l 1067 247 l 1066 241 q 992 105 1046 163 q 859 16 939 47 q 682 -16 779 -16 m 296 477 l 250 477 q 78 533 142 477 q 14 684 14 590 q 21 746 14 717 q 37 795 28 776 l 147 795 q 134 750 140 776 q 127 694 127 724 q 159 613 127 640 q 252 587 190 587 l 296 587 l 296 477 "},"Һ":{"ha":937,"x_min":102,"x_max":842,"o":"m 102 0 l 102 979 l 224 979 l 224 571 l 227 571 q 293 605 255 590 q 375 629 330 620 q 468 637 420 637 q 675 589 592 637 q 800 460 758 541 q 842 278 842 378 l 842 0 l 720 0 l 720 279 q 691 410 720 355 q 606 495 663 465 q 469 525 550 525 q 371 515 417 525 q 287 488 324 505 q 224 446 250 470 l 224 0 l 102 0 "},"Ԧ":{"ha":1005,"x_min":102,"x_max":964,"o":"m 852 -193 l 852 0 l 720 0 l 720 110 l 964 110 l 964 -193 l 852 -193 m 102 0 l 102 979 l 224 979 l 224 571 l 227 571 q 293 605 255 590 q 375 629 330 620 q 468 637 420 637 q 675 589 592 637 q 800 460 758 541 q 842 278 842 378 l 842 0 l 720 0 l 720 279 q 691 410 720 355 q 606 495 663 465 q 469 525 550 525 q 371 515 417 525 q 287 488 324 505 q 224 446 250 470 l 224 0 l 102 0 "},"Ш":{"ha":1278,"x_min":102,"x_max":1176,"o":"m 102 1 l 102 979 l 224 979 l 224 111 l 578 111 l 578 979 l 700 979 l 700 111 l 1054 111 l 1054 979 l 1176 979 l 1176 1 l 102 1 "},"Щ":{"ha":1339,"x_min":102,"x_max":1298,"o":"m 1185 -193 l 1185 0 l 1054 0 l 1054 110 l 1298 110 l 1298 -193 l 1185 -193 m 102 1 l 102 979 l 224 979 l 224 111 l 578 111 l 578 979 l 700 979 l 700 111 l 1054 111 l 1054 979 l 1176 979 l 1176 1 l 102 1 "},"Ъ":{"ha":1004,"x_min":37,"x_max":953,"o":"m 277 0 l 277 869 l 37 869 l 37 979 l 399 979 l 399 616 l 638 616 q 801 576 730 616 q 912 468 872 537 q 953 308 953 398 l 953 307 q 913 148 953 217 q 802 39 873 79 q 640 0 732 0 l 277 0 m 608 506 l 399 506 l 399 110 l 608 110 q 770 161 713 110 q 828 307 828 212 l 828 308 q 770 454 828 403 q 608 506 713 506 "},"Ы":{"ha":1131,"x_min":102,"x_max":1029,"o":"m 163 0 l 163 110 l 433 110 q 595 161 538 110 q 653 307 653 212 l 653 308 q 595 454 653 403 q 433 506 538 506 l 163 506 l 163 616 l 463 616 q 626 576 555 616 q 738 468 697 537 q 778 308 778 398 l 778 307 q 738 148 778 217 q 627 39 698 79 q 465 0 557 0 l 163 0 m 102 0 l 102 979 l 224 979 l 224 0 l 102 0 m 907 0 l 907 979 l 1029 979 l 1029 0 l 907 0 "},"Ӹ":{"ha":1131,"x_min":102,"x_max":1029,"o":"m 163 0 l 163 110 l 433 110 q 595 161 538 110 q 653 307 653 212 l 653 308 q 595 454 653 403 q 433 506 538 506 l 163 506 l 163 616 l 463 616 q 626 576 555 616 q 738 468 697 537 q 778 308 778 398 l 778 307 q 738 148 778 217 q 627 39 698 79 q 465 0 557 0 l 163 0 m 102 0 l 102 979 l 224 979 l 224 0 l 102 0 m 907 0 l 907 979 l 1029 979 l 1029 0 l 907 0 m 444 1090 q 397 1109 416 1090 q 377 1157 377 1129 q 397 1204 377 1185 q 444 1224 416 1224 q 491 1204 472 1224 q 511 1157 511 1185 q 491 1109 511 1129 q 444 1090 472 1090 m 687 1090 q 640 1109 660 1090 q 621 1157 621 1129 q 640 1204 621 1185 q 687 1224 660 1224 q 735 1204 715 1224 q 754 1157 754 1185 q 735 1109 754 1129 q 687 1090 715 1090 "},"Ҍ":{"ha":863,"x_min":34,"x_max":812,"o":"m 197 0 l 197 110 l 467 110 q 629 161 572 110 q 687 307 687 212 l 687 308 q 629 454 687 403 q 467 506 572 506 l 197 506 l 197 616 l 497 616 q 660 576 589 616 q 771 468 731 537 q 812 308 812 398 l 812 307 q 772 148 812 217 q 661 39 732 79 q 498 0 591 0 l 197 0 m 136 0 l 136 1020 l 258 1020 l 258 0 l 136 0 m 34 788 l 34 880 l 461 880 l 461 788 l 34 788 "},"Ѣ":{"ha":1046,"x_min":41,"x_max":996,"o":"m 380 0 l 380 110 l 650 110 q 813 161 755 110 q 871 307 871 212 l 871 308 q 813 454 871 403 q 650 506 755 506 l 380 506 l 380 616 l 681 616 q 844 576 773 616 q 955 468 915 537 q 996 308 996 398 l 996 307 q 956 148 996 217 q 845 39 916 79 q 682 0 774 0 l 380 0 m 319 0 l 319 1020 l 441 1020 l 441 0 l 319 0 m 41 781 l 41 887 l 781 887 l 781 781 l 41 781 "},"Ь":{"ha":829,"x_min":102,"x_max":778,"o":"m 163 0 l 163 110 l 433 110 q 595 161 538 110 q 653 307 653 212 l 653 308 q 595 454 653 403 q 433 506 538 506 l 163 506 l 163 616 l 463 616 q 626 576 555 616 q 738 468 697 537 q 778 308 778 398 l 778 307 q 738 148 778 217 q 627 39 698 79 q 465 0 557 0 l 163 0 m 102 0 l 102 979 l 224 979 l 224 0 l 102 0 "},"Љ":{"ha":1457,"x_min":34,"x_max":1406,"o":"m 81 -7 q 56 -5 68 -7 q 34 0 43 -3 l 34 109 q 51 106 39 108 q 71 105 62 105 q 147 132 117 105 q 194 217 177 159 q 216 370 210 276 l 251 979 l 852 979 l 852 0 l 730 0 l 730 869 l 362 869 l 331 366 q 294 153 323 235 q 213 32 265 71 q 81 -7 161 -7 m 791 0 l 791 110 l 1061 110 q 1223 161 1166 110 q 1281 307 1281 212 l 1281 308 q 1223 454 1281 403 q 1061 506 1166 506 l 791 506 l 791 616 l 1091 616 q 1254 576 1183 616 q 1365 468 1325 537 q 1406 308 1406 398 l 1406 307 q 1366 148 1406 217 q 1255 39 1326 79 q 1093 0 1185 0 l 791 0 m 730 0 l 730 979 l 852 979 l 852 0 l 730 0 "},"Њ":{"ha":1488,"x_min":102,"x_max":1437,"o":"m 102 0 l 102 979 l 224 979 l 224 555 l 761 555 l 761 979 l 883 979 l 883 0 l 761 0 l 761 446 l 224 446 l 224 0 l 102 0 m 822 0 l 822 110 l 1092 110 q 1255 161 1197 110 q 1312 307 1312 212 l 1312 308 q 1255 454 1312 403 q 1092 506 1197 506 l 822 506 l 822 616 l 1122 616 q 1285 576 1215 616 q 1397 468 1356 537 q 1437 308 1437 398 l 1437 307 q 1397 148 1437 217 q 1286 39 1357 79 q 1124 0 1216 0 l 822 0 m 761 0 l 761 979 l 883 979 l 883 0 l 761 0 "},"Э":{"ha":964,"x_min":53,"x_max":900,"o":"m 454 -16 q 268 22 351 -16 q 128 127 184 60 q 54 286 73 195 l 53 292 l 176 292 l 178 286 q 237 183 199 225 q 331 118 276 140 q 454 96 385 96 q 624 145 552 96 q 736 282 696 194 q 775 490 775 371 l 775 490 q 736 697 775 610 q 625 834 696 785 q 454 882 553 882 q 331 860 385 882 q 237 796 276 838 q 178 692 199 754 l 176 686 l 53 686 l 54 693 q 129 851 73 783 q 268 957 184 919 q 454 995 352 995 q 690 933 590 995 q 845 758 791 871 q 900 490 900 644 l 900 490 q 845 222 900 336 q 690 46 790 109 q 454 -16 590 -16 m 836 446 l 333 446 l 333 555 l 836 555 l 836 446 "},"Ӭ":{"ha":964,"x_min":53,"x_max":900,"o":"m 454 -16 q 268 22 351 -16 q 128 127 184 60 q 54 286 73 195 l 53 292 l 176 292 l 178 286 q 237 183 199 225 q 331 118 276 140 q 454 96 385 96 q 624 145 552 96 q 736 282 696 194 q 775 490 775 371 l 775 490 q 736 697 775 610 q 625 834 696 785 q 454 882 553 882 q 331 860 385 882 q 237 796 276 838 q 178 692 199 754 l 176 686 l 53 686 l 54 693 q 129 851 73 783 q 268 957 184 919 q 454 995 352 995 q 690 933 590 995 q 845 758 791 871 q 900 490 900 644 l 900 490 q 845 222 900 336 q 690 46 790 109 q 454 -16 590 -16 m 836 446 l 333 446 l 333 555 l 836 555 l 836 446 m 338 1090 q 290 1109 310 1090 q 271 1157 271 1129 q 290 1204 271 1185 q 338 1224 310 1224 q 385 1204 366 1224 q 404 1157 404 1185 q 385 1109 404 1129 q 338 1090 366 1090 m 581 1090 q 534 1109 553 1090 q 514 1157 514 1129 q 534 1204 514 1185 q 581 1224 553 1224 q 628 1204 609 1224 q 648 1157 648 1185 q 628 1109 648 1129 q 581 1090 609 1090 "},"Є":{"ha":964,"x_min":64,"x_max":911,"o":"m 510 -16 q 274 46 374 -16 q 119 222 174 109 q 64 490 64 336 l 64 490 q 118 758 64 644 q 273 933 173 871 q 510 995 374 995 q 695 957 612 995 q 836 851 779 919 q 909 693 892 783 l 911 686 l 787 686 l 785 692 q 726 796 765 754 q 633 860 688 838 q 510 882 578 882 q 339 834 412 882 q 228 697 267 785 q 189 490 189 610 l 189 490 q 228 282 189 371 q 339 145 267 194 q 510 96 412 96 q 633 118 578 96 q 726 183 688 140 q 785 286 765 225 l 787 292 l 911 292 l 909 286 q 836 127 892 195 q 696 22 780 60 q 510 -16 612 -16 m 127 446 l 127 555 l 631 555 l 631 446 l 127 446 "},"Ю":{"ha":1337,"x_min":102,"x_max":1273,"o":"m 102 0 l 102 979 l 224 979 l 224 555 l 403 555 l 403 446 l 224 446 l 224 0 l 102 0 m 832 -16 q 602 42 699 -16 q 450 207 505 100 q 391 458 396 313 l 391 543 q 455 784 399 682 q 607 940 511 885 q 832 995 703 995 q 1068 933 969 995 q 1220 759 1166 871 q 1273 490 1273 646 l 1273 489 q 1220 221 1273 335 q 1068 46 1167 108 q 832 -16 970 -16 m 832 882 q 663 834 734 882 q 553 699 592 787 q 515 490 515 610 l 515 489 q 553 282 515 370 q 662 145 591 193 q 832 96 732 96 q 1001 145 930 96 q 1110 282 1072 193 q 1148 489 1148 370 l 1148 490 q 1110 699 1148 610 q 1001 834 1072 787 q 832 882 930 882 "},"Я":{"ha":873,"x_min":37,"x_max":771,"o":"m 771 0 l 649 0 l 649 376 l 452 376 l 182 0 l 37 0 l 318 391 q 151 492 214 415 q 88 677 88 569 l 88 679 q 128 834 88 767 q 239 940 168 902 q 401 979 310 979 l 771 979 l 771 0 m 649 486 l 649 869 l 433 869 q 271 819 328 869 q 213 679 213 770 l 213 677 q 271 536 213 586 q 433 486 329 486 l 649 486 "},"Ӏ":{"ha":326,"x_min":102,"x_max":224,"o":"m 102 0 l 102 979 l 224 979 l 224 0 l 102 0 "},"І":{"ha":326,"x_min":102,"x_max":224,"o":"m 102 0 l 102 979 l 224 979 l 224 0 l 102 0 "},"Ї":{"ha":326,"x_min":-26,"x_max":351,"o":"m 102 0 l 102 979 l 224 979 l 224 0 l 102 0 m 41 1090 q -6 1109 14 1090 q -26 1157 -26 1129 q -6 1204 -26 1185 q 41 1224 14 1224 q 89 1204 69 1224 q 108 1157 108 1185 q 89 1109 108 1129 q 41 1090 69 1090 m 284 1090 q 237 1109 257 1090 q 218 1157 218 1129 q 237 1204 218 1185 q 284 1224 257 1224 q 332 1204 313 1224 q 351 1157 351 1185 q 332 1109 351 1129 q 284 1090 313 1090 "},"Ѕ":{"ha":838,"x_min":54,"x_max":783,"o":"m 422 -16 q 236 17 316 -16 q 108 111 155 50 q 55 255 61 172 l 54 264 l 176 264 l 178 255 q 218 171 185 206 q 304 116 250 135 q 429 96 358 96 q 551 116 499 96 q 630 174 602 136 q 659 261 659 211 l 659 262 q 614 365 659 326 q 468 426 569 404 l 359 450 q 202 507 264 471 q 109 596 140 543 q 79 721 79 650 l 79 722 q 123 864 79 802 q 245 960 168 925 q 423 995 323 995 q 594 961 519 995 q 714 865 669 926 q 765 724 760 804 l 766 714 l 644 714 l 642 724 q 606 809 635 774 q 529 863 576 844 q 420 882 482 882 q 306 863 355 882 q 230 808 257 843 q 203 725 203 772 l 203 724 q 223 654 203 684 q 285 602 243 623 q 390 566 326 581 l 498 543 q 662 485 599 521 q 754 396 724 449 q 783 268 783 342 l 783 267 q 740 117 783 180 q 615 18 696 53 q 422 -16 534 -16 "},"Ʒ":{"ha":801,"x_min":52,"x_max":741,"o":"m 397 -16 q 224 17 299 -16 q 104 109 149 50 q 53 245 59 168 l 52 255 l 172 255 l 174 245 q 210 166 180 199 q 287 114 239 132 q 395 96 334 96 q 512 118 463 96 q 589 180 562 140 q 616 277 616 221 l 616 279 q 585 395 616 350 q 494 463 554 441 q 346 485 433 485 l 267 485 l 267 589 l 541 858 l 541 869 l 87 869 l 87 979 l 720 979 l 720 892 l 418 594 l 418 583 q 590 544 517 579 q 702 442 662 508 q 741 281 741 376 l 741 279 q 697 126 741 193 q 575 22 652 60 q 397 -16 497 -16 "},"Ӡ":{"ha":801,"x_min":52,"x_max":741,"o":"m 397 -16 q 575 22 497 -16 q 697 126 652 60 q 741 279 741 193 l 741 281 q 702 442 741 376 q 590 544 662 508 q 418 583 517 579 l 418 594 l 720 892 l 720 979 l 87 979 l 87 869 l 541 869 l 541 858 l 267 589 l 267 485 l 346 485 q 494 463 433 485 q 585 395 554 441 q 616 279 616 350 l 616 277 q 589 180 616 221 q 512 118 562 140 q 395 96 463 96 q 287 114 334 96 q 210 166 239 132 q 174 245 180 199 l 172 255 l 52 255 l 53 245 q 104 109 59 168 q 224 17 149 50 q 397 -16 299 -16 "},"Ћ":{"ha":1185,"x_min":41,"x_max":1090,"o":"m 349 0 l 349 979 l 471 979 l 471 557 l 474 557 q 540 591 503 576 q 623 615 578 606 q 715 624 667 624 q 923 576 840 624 q 1048 446 1006 528 q 1090 264 1090 365 l 1090 0 l 968 0 l 968 265 q 939 396 968 341 q 854 481 910 451 q 716 511 798 511 q 618 502 665 511 q 534 474 572 492 q 471 433 497 456 l 471 0 l 349 0 m 41 869 l 41 979 l 780 979 l 780 869 l 41 869 "},"Ђ":{"ha":1137,"x_min":41,"x_max":1056,"o":"m 736 -49 q 692 -46 712 -49 q 661 -39 673 -43 l 661 71 q 692 66 673 68 q 728 64 711 64 q 831 88 785 64 q 904 161 877 113 q 931 283 931 210 l 931 284 q 905 397 931 348 q 832 474 879 446 q 722 503 785 503 q 581 460 645 503 q 478 356 516 418 l 478 0 l 356 0 l 356 869 l 41 869 l 41 979 l 793 979 l 793 869 l 478 869 l 478 509 l 485 509 q 557 567 518 543 q 640 603 595 590 q 734 615 684 615 q 902 573 829 615 q 1015 457 975 531 q 1056 286 1056 382 l 1056 284 q 1014 106 1056 181 q 899 -8 971 32 q 736 -49 827 -49 "},"Ҕ":{"ha":883,"x_min":102,"x_max":802,"o":"m 482 -49 q 438 -46 458 -49 q 407 -39 418 -43 l 407 71 q 438 66 419 68 q 473 64 457 64 q 576 88 530 64 q 650 161 623 113 q 677 283 677 210 l 677 284 q 651 397 677 348 q 577 474 625 446 q 467 503 530 503 q 326 461 391 503 q 224 356 262 419 l 224 0 l 102 0 l 102 979 l 648 979 l 648 869 l 224 869 l 224 509 l 231 509 q 302 567 264 543 q 386 603 341 590 q 479 615 430 615 q 648 573 575 615 q 761 457 720 531 q 802 286 802 382 l 802 284 q 759 106 802 181 q 645 -8 717 32 q 482 -49 572 -49 "}}}
